<svg xmlns="http://www.w3.org/2000/svg" xmlns:xlink="http://www.w3.org/1999/xlink" width="240" height="249" viewBox="0 0 240 249">
    <defs>
        <linearGradient id="c" x1="34.18%" x2="65.82%" y1="100%" y2="0%">
            <stop offset="0%" stop-color="#F2994A"/>
            <stop offset="100%" stop-color="#F2C94C"/>
        </linearGradient>
        <path id="b" d="M719 865h512v251H719z"/>
        <filter id="a" width="110.2%" height="120.7%" x="-5.1%" y="-8.4%" filterUnits="objectBoundingBox">
            <feOffset dy="5" in="SourceAlpha" result="shadowOffsetOuter1"/>
            <feGaussianBlur in="shadowOffsetOuter1" result="shadowBlurOuter1" stdDeviation="7.5"/>
            <feColorMatrix in="shadowBlurOuter1" result="shadowMatrixOuter1" values="0 0 0 0 0 0 0 0 0 0 0 0 0 0 0 0 0 0 0.07 0"/>
            <feMorphology in="SourceAlpha" operator="dilate" radius=".5" result="shadowSpreadOuter2"/>
            <feOffset in="shadowSpreadOuter2" result="shadowOffsetOuter2"/>
            <feColorMatrix in="shadowOffsetOuter2" result="shadowMatrixOuter2" values="0 0 0 0 0 0 0 0 0 0 0 0 0 0 0 0 0 0 0.03 0"/>
            <feMerge>
                <feMergeNode in="shadowMatrixOuter1"/>
                <feMergeNode in="shadowMatrixOuter2"/>
            </feMerge>
        </filter>
    </defs>
    <g fill="none" fill-rule="evenodd">
        <g transform="translate(-848 -866)">
            <use fill="#000" filter="url(#a)" xlink:href="#b"/>
            <use fill="url(#c)" xlink:href="#b"/>
        </g>
        <g fill="#FFF" stroke="#FFF" stroke-opacity=".3" stroke-width=".5">
            <path d="M11.93 152.5l72.416-72.4 72.414 72.4-72.415 72.401-72.415-72.4zm-85.993 85.976l72.416-72.4 72.415 72.4-72.415 72.4-72.416-72.4zm-85.992 85.975l72.415-72.4 72.414 72.4-72.415 72.4-72.414-72.4zm-85.994 85.976l72.415-72.4 72.416 72.4-72.416 72.4-72.415-72.4zm-85.993 85.975l72.416-72.4 72.414 72.4-72.414 72.4-72.416-72.4zm-85.993 85.976l72.416-72.401 72.415 72.4-72.415 72.401-72.416-72.4zM97.923 238.477l72.415-72.4 72.416 72.4-72.416 72.4-72.415-72.4zM11.93 324.452l72.416-72.4 72.414 72.4-72.415 72.4-72.415-72.4zm-85.993 85.975l72.416-72.4 72.415 72.4-72.415 72.4-72.416-72.4z" opacity=".548"/>
            <path d="M11.93 1012.255l72.416-72.4 72.414 72.4-72.415 72.4-72.415-72.4zm-85.993-945.73l72.416-72.4 72.415 72.4-72.415 72.401-72.416-72.4zm-85.992 85.976l72.415-72.4 72.414 72.4-72.415 72.4-72.414-72.4zm-85.994 85.975l72.415-72.4 72.416 72.4-72.416 72.4-72.415-72.4zm-85.993 85.975l72.416-72.4 72.414 72.4-72.414 72.4-72.416-72.4zm-85.993 85.976l72.416-72.4 72.415 72.4-72.415 72.4-72.416-72.4zm-85.993 85.975l72.416-72.4 72.415 72.4-72.415 72.4-72.416-72.4zM-160.056-19.45l72.415-72.4 72.416 72.4-72.416 72.4-72.415-72.4zm-85.993 85.975l72.415-72.4 72.416 72.4-72.416 72.4-72.415-72.4z" opacity=".324"/>
            <path d="M-762.007 238.476l72.415-72.4 72.416 72.4-72.416 72.401-72.415-72.4zm343.972-515.852l72.415-72.4 72.416 72.4-72.416 72.4-72.415-72.4zM97.64 66.243l72.416-72.4 72.415 72.4-72.415 72.4-72.416-72.4zm86.276 86.258l72.416-72.4 72.414 72.4-72.415 72.4-72.415-72.4z" opacity=".283"/>
            <path d="M11.93-19.45l72.416-72.4 72.414 72.4-72.415 72.4z" opacity=".739"/>
            <path d="M-332.042-363.352l72.416-72.4 72.414 72.4-72.415 72.401-72.415-72.4zM183.916-19.45l72.416-72.4 72.414 72.4-72.415 72.4-72.415-72.4zm85.993 85.975l72.415-72.4 72.416 72.4-72.416 72.4-72.415-72.4zm85.993 85.975l72.415-72.4 72.416 72.4-72.416 72.401-72.415-72.4zm85.993 85.976l72.415-72.4 72.415 72.4-72.415 72.401-72.415-72.4zm85.992 85.976l72.416-72.401 72.415 72.4-72.415 72.401-72.416-72.4zm85.994 85.975l72.415-72.4 72.416 72.4-72.416 72.4-72.415-72.4zM97.923-105.425l72.415-72.4 72.416 72.4-72.416 72.4-72.415-72.4zM11.93-191.4l72.416-72.4 72.414 72.4L84.345-119 11.93-191.4zM699.874 324.452l72.415-72.401 72.416 72.4-72.416 72.401-72.415-72.4zM183.916-191.401l72.416-72.4 72.414 72.4L256.331-119 183.916-191.4zm-85.993-85.975l72.416-72.4 72.415 72.4-72.415 72.4-72.416-72.4zM97.923-621.277l72.415-72.4 72.416 72.4-72.416 72.4-72.415-72.4zM11.93-707.252l72.416-72.4 72.414 72.4-72.415 72.4-72.415-72.4zm515.958 343.9l72.415-72.4 72.416 72.4-72.416 72.401-72.415-72.4zm85.993 85.976l72.415-72.4 72.416 72.4-72.416 72.4-72.415-72.4zm85.992 85.975l72.416-72.4 72.415 72.4L772.29-119 699.873-191.4zm85.994 85.976l72.415-72.4 72.416 72.4-72.416 72.4-72.415-72.4zM871.86-19.45l72.416-72.4 72.414 72.4-72.415 72.4-72.415-72.4zm85.993 85.975l72.416-72.4 72.414 72.4-72.415 72.4-72.415-72.4zM441.895-449.327l72.415-72.4 72.416 72.4-72.416 72.4-72.415-72.4zm-85.993-85.975l72.416-72.4 72.415 72.4-72.415 72.4-72.416-72.4zm-85.993-85.975l72.416-72.4 72.415 72.4-72.415 72.4-72.416-72.4zm-85.992-85.975l72.415-72.4 72.414 72.4-72.415 72.4-72.414-72.4zm-85.994-85.976l72.415-72.4 72.415 72.4-72.415 72.4-72.415-72.4z" opacity=".02"/>
        </g>
    </g>
</svg>
