<svg xmlns="http://www.w3.org/2000/svg" width="46" height="26" viewBox="0 0 46 26">
    <g fill="none" fill-rule="nonzero">
        <path fill="none" d="M0-3h46v34H0z"/>
        <path fill="#8F9CB3" d="M5.397 7.347c-1.91 1.698-2.607 5.545.838 7.794l13.74 9.254-6.662-14.983c-1.396-3.536-5.215-4.307-7.916-2.065zM17.225.062c-2.234.045-5.588 2.656-4.095 6.643l6.89 15.952 2.422-16.779c.56-4.169-2.654-6.094-5.217-5.816zm6.292 5.176h1.303s.696 0 .79.323c-.512.41-1.908.462-1.723 2.658l2.191 14.436 6.844-15.994c1.4-3.572-1.539-6.554-4.145-6.645a5.124 5.124 0 0 0-.37-.016c-2.34 0-5.02 1.67-4.89 5.238zm9.13 4.31L26.172 24.35l13.737-9.303c3.167-2.204 2.656-5.73.883-7.472-.743-.82-2.107-1.453-3.552-1.453-1.708 0-3.535.889-4.595 3.425zm5.725 7.607L25.472 26h15.884c3.259 0 5.353-3.298 4.422-6.325-.624-1.903-2.469-3.396-4.61-3.398-.901 0-1.857.267-2.796.878zM5.026 26h15.65L7.773 17.155c-2.982-1.88-6.333-.78-7.544 2.34C-.796 23.066 1.765 26 5.026 26z"/>
    </g>
</svg>
