<svg xmlns="http://www.w3.org/2000/svg" width="73" height="20" viewBox="0 0 73 20">
    <g fill="none" fill-rule="nonzero">
        <path fill="none" d="M0-9h72v34H0z"/>
        <g fill="#8F9CB3">
            <path fill-opacity=".5" d="M49.097 5.58c-.31 2.013-1.865 2.013-3.37 2.013h-.856l.6-3.759a.47.47 0 0 1 .467-.394h.393c1.024 0 1.991 0 2.49.576.299.345.389.857.276 1.564zM48.442.327H42.77a.786.786 0 0 0-.78.658l-2.293 14.383a.47.47 0 0 0 .466.54h2.912a.55.55 0 0 0 .545-.46l.65-4.078a.785.785 0 0 1 .78-.658h1.794c3.737 0 5.895-1.788 6.458-5.332.254-1.55.01-2.767-.724-3.62C51.771.823 50.34.327 48.442.327zm13.172 10.416c-.263 1.535-1.495 2.566-3.067 2.566-.787 0-1.419-.251-1.824-.726-.402-.47-.553-1.14-.426-1.886.245-1.522 1.497-2.585 3.045-2.585.772 0 1.398.253 1.811.732.416.483.58 1.157.46 1.9zM65.4 5.515h-2.717a.472.472 0 0 0-.467.395l-.12.75-.19-.271c-.588-.844-1.9-1.127-3.209-1.127-3 0-5.565 2.25-6.064 5.403-.26 1.574.11 3.077 1.012 4.127.829.964 2.012 1.365 3.421 1.365 2.42 0 3.762-1.536 3.762-1.536l-.122.746a.47.47 0 0 0 .468.54h2.446a.785.785 0 0 0 .779-.657l1.469-9.194a.47.47 0 0 0-.468-.54zM68.602.722l-2.328 14.646a.469.469 0 0 0 .467.54h2.342c.388 0 .718-.279.778-.658L72.157.867a.47.47 0 0 0-.467-.54h-2.62a.47.47 0 0 0-.468.395z"/>
            <path d="M9.184 5.638c-.303 2.036-1.82 2.036-3.29 2.036h-.836l.587-3.801a.464.464 0 0 1 .455-.399h.384c1 0 1.944 0 2.43.583.292.349.38.867.27 1.58zM8.545.327H3.006a.776.776 0 0 0-.76.665L.005 15.534a.469.469 0 0 0 .455.546h2.646c.378 0 .7-.282.76-.664l.604-3.924a.775.775 0 0 1 .76-.665h1.753c3.648 0 5.755-1.808 6.304-5.392.248-1.566.01-2.797-.706-3.66C11.794.829 10.398.328 8.545.328zm12.86 10.532c-.257 1.551-1.46 2.593-2.994 2.593-.77 0-1.386-.254-1.781-.733-.393-.476-.54-1.153-.416-1.907.238-1.539 1.461-2.614 2.972-2.614.754 0 1.365.256 1.768.74.407.488.567 1.17.45 1.92zM25.1 5.573h-2.652a.465.465 0 0 0-.457.399l-.116.759-.185-.275c-.575-.853-1.856-1.14-3.134-1.14-2.93 0-5.433 2.275-5.92 5.464-.254 1.59.106 3.11.987 4.172.81.974 1.964 1.38 3.34 1.38 2.363 0 3.673-1.553 3.673-1.553l-.119.755a.47.47 0 0 0 .456.546h2.389c.379 0 .7-.281.76-.665l1.434-9.296a.47.47 0 0 0-.456-.546zm14.127 0h-2.666a.763.763 0 0 0-.637.346l-3.678 5.545-1.558-5.329a.773.773 0 0 0-.738-.562h-2.62a.471.471 0 0 0-.437.625l2.935 8.823-2.76 3.988c-.217.313.001.746.376.746h2.663a.766.766 0 0 0 .633-.338l8.866-13.102c.212-.314-.007-.742-.38-.742z"/>
        </g>
    </g>
</svg>
