<svg xmlns="http://www.w3.org/2000/svg" width="56" height="26" viewBox="0 0 56 26">
    <g fill="none" fill-rule="nonzero">
        <path fill="none" d="M0-5h56v34H0z"/>
        <path fill="#8F9CB3" d="M22.522 2.804c-.584 3.294-2.196 4.492-4.17 4.71v.953h2.474v8.358c0 2.341 1.585 3.485 3.698 3.485 1.64 0 3.337-.68 3.92-2.096l-.583-.735c-.278.462-1.168 1.143-2.28 1.143-1.224 0-1.89-.817-1.89-2.886V8.358l4.114.3.223-1.852-4.338.164V2.804h-1.168zm8.759 12.85l-1.057.028c.14 1.306.167 2.613 0 3.811 0 0 2.114.762 4.255.762 2.891 0 5.2-1.36 5.2-4.002 0-4.628-7.008-3.893-7.008-6.996 0-1.28 1.196-1.77 2.42-1.77 1.028 0 1.862.354 2.03.871l.694 2.042 1.03-.054c.055-1.09.138-2.342.305-3.35-.89-.38-2.753-.598-3.92-.598-2.726 0-4.922 1.17-4.922 3.784 0 4.574 6.84 3.567 6.84 6.997 0 1.144-.75 2.015-2.42 2.015-1.584 0-2.363-.79-2.668-1.58l-.779-1.96zm11.372 8.794c-.834 0-1.084-.381-1.195-.925l-.417-2.124-1.168.054c-.167 1.253-.417 2.668-.75 3.785.778.517 1.723.762 3.002.762 1.89 0 4.727-.517 7.285-6.425L53.86 9.257c.361-.817.473-.926 1.557-1.334L56 7.705v-.953l-2.642.136-2.808-.136v.953l.723.218c.723.217 1.057.462 1.057 1.034 0 .3-.084.436-.25.817-.306.762-2.28 5.527-3.254 7.596-1.223-2.995-2.892-7.46-3.086-8.113a1.329 1.329 0 0 1-.084-.436c0-.436.306-.79.974-.926l.917-.19v-.953l-3.81.136-3.03-.136v.953l.5.163c.723.245.807.327 1.28 1.361 1.918 4.247 4.06 9.665 4.754 11.435-1.501 2.967-3.28 3.784-4.588 3.784zM6.006 2.042c0-.272.028-.436.5-.436h6.368c1.112 0 1.724.926 2.169 2.668l.361 1.389h1.085C16.683 1.715 16.85 0 16.85 0s-2.725.3-4.338.3H4.365L0 .162v1.144l1.474.272c1.028.19 1.279.408 1.362 1.334 0 0 .084 2.723.084 7.215s-.084 7.187-.084 7.187c0 .817-.334 1.116-1.362 1.307L0 18.894v1.144l4.365-.136h7.285c1.641 0 5.45.136 5.45.136.084-.98.64-5.418.723-5.908h-1.029l-1.084 2.423c-.862 1.906-2.113 2.042-3.503 2.042H8.064c-1.39 0-2.058-.545-2.058-1.715v-6.208s3.086 0 4.087.082c.779.054 1.252.272 1.502 1.334l.334 1.416h1.195l-.083-3.567.167-3.594h-1.196l-.39 1.58c-.25 1.034-.416 1.225-1.5 1.334-1.419.136-4.116.108-4.116.108V2.042z"/>
    </g>
</svg>
