<svg xmlns="http://www.w3.org/2000/svg" width="101" height="18" viewBox="0 0 101 18">
    <g fill="none" fill-rule="nonzero">
        <path fill="none" d="M0-8h101v34H0z"/>
        <path fill="#8F9CB3" d="M0 .01c2.843.004 5.688-.039 8.53.027 2.19.05 3.907 1.548 4.276 3.593.419 2.316-.775 4.293-2.617 4.823-.047.014-.085.057-.148.102 1.756.505 2.804 1.675 3.099 3.427.486 2.89-1.098 5.265-4.09 5.601-.665.075-1.339.073-2.008.076-2.347.013-4.695.012-7.042.017V.01zm3.78 14.293c.049.017.097.049.146.049 1.178.002 2.359.044 3.534-.012 1.217-.059 1.94-.811 1.972-1.92.033-1.114-.635-1.917-1.827-2.061-.753-.091-1.522-.05-2.284-.06-.505-.007-1.01-.002-1.541-.002v4.006zM3.754 7.01c1.099 0 2.141.002 3.184-.001.2-.001.406 0 .601-.039.737-.149 1.291-.529 1.484-1.301.308-1.231-.472-2.295-1.738-2.358-.59-.03-1.18-.009-1.77-.01H3.78c-.011.128-.025.206-.025.284V7.01zM67.798 18c-.444-.083-.893-.147-1.332-.253-3.438-.83-5.19-3.807-4.89-7.097.252-2.755 1.632-4.77 4.26-5.702 3.67-1.302 7.926.456 8.554 5.37.083.65.08 1.31.119 2.023H65.03c.22 1.21.827 2.06 1.885 2.512 1.719.733 3.329.368 4.847-.616.09-.058.173-.127.26-.19.009-.006.025 0 .086 0l1.483 2.197c-.489.307-.94.64-1.432.889-.906.458-1.88.7-2.893.786-.115.01-.228.053-.341.081h-1.128zm3.44-7.984c.065-1.587-1.437-2.798-3.338-2.723-1.582.063-2.989 1.411-2.82 2.723h6.158zM81.406 18c-.547-.11-1.102-.19-1.639-.338-2.562-.711-4.33-2.892-4.562-5.557-.22-2.514.505-4.644 2.51-6.23 3.038-2.403 9.01-1.858 10.196 3.828.085.408.135.826.16 1.241.028.442.007.886.007 1.397h-9.416c.082.71.357 1.282.812 1.755 1.04 1.082 2.34 1.285 3.745 1.037.894-.158 1.72-.5 2.464-1.141l1.515 2.236c-.394.266-.752.547-1.144.763-.976.537-2.033.821-3.139.925-.129.012-.254.055-.381.084h-1.128zm-2.721-7.986h6.163c.08-1.538-1.387-2.76-3.23-2.724-1.635.032-3.051 1.334-2.933 2.724zM19.083 18c-.402-.083-.808-.155-1.207-.25-2.476-.595-3.939-2.46-3.941-5.023-.002-2.458 0-4.915 0-7.373v-.44h3.346v.469c0 2.322.007 4.645-.003 6.967-.004 1.054.316 1.946 1.308 2.404 1.075.497 2.176.48 3.17-.234.728-.522.934-1.32.936-2.18.004-2.308.001-4.617.001-6.926v-.508h3.31v.455c0 2.43.002 4.861 0 7.292-.001 2.933-1.815 4.949-4.722 5.256-.144.015-.284.06-.426.09L19.083 18zm31.6-.365V.022h12.173v1.709c0 .378-.025.758.007 1.134.032.373-.117.446-.459.444-2.402-.014-4.804-.007-7.206-.007h-.76V7.01h.454c1.811 0 3.623.01 5.434-.008.367-.004.452.113.444.461-.023.928-.008 1.857-.008 2.831h-6.35v7.341h-3.73zm38.243-.007v-.463V5.34c0-.517 0-.522.531-.517 1.837.017 3.68-.061 5.508.081 2.604.203 4.641 1.383 5.606 3.97.98 2.627.233 5.627-1.759 7.27-1.173.969-2.554 1.445-4.042 1.5-1.889.068-3.782.02-5.673.022-.038 0-.077-.016-.171-.038zm3.191-2.703h1.843c2.16 0 3.522-1.226 3.764-3.39.174-1.554-.661-3.1-1.991-3.648-1.172-.483-2.396-.226-3.616-.295v7.333zM32.75 7.791h-5.67V4.9h10.25c0 .545-.027 1.093.009 1.637.032.501-.12.889-.434 1.282-1.705 2.136-3.383 4.292-5.07 6.442-.09.115-.176.234-.317.421h5.88v2.946h-10.35c0-.805-.01-1.609.012-2.412.004-.138.142-.282.239-.406 1.73-2.218 3.464-4.433 5.196-6.65.072-.093.134-.194.255-.37zm5.565.003V5.21c.001-.092.016-.185.027-.304h10.22c0 .777.008 1.541-.01 2.305-.003.115-.115.237-.196.34-1.76 2.247-3.522 4.492-5.283 6.738-.087.111-.165.23-.3.42h.513c1.663 0 3.327.007 4.99-.006.31-.003.425.074.415.405-.022.834-.007 1.669-.007 2.528h-10.36c0-.832-.006-1.651.01-2.47 0-.102.108-.21.18-.303 1.69-2.165 3.382-4.328 5.074-6.492.129-.166.255-.333.442-.577h-5.715z"/>
    </g>
</svg>
