<svg xmlns="http://www.w3.org/2000/svg" width="97" height="16" viewBox="0 0 97 16">
    <g fill="none" fill-rule="nonzero">
        <path fill="none" d="M0-10h97v34H0z"/>
        <path fill="#8F9CB3" d="M7.73 15.816c-2.207 0-4.089-.814-5.59-2.419C.72 11.878 0 9.977 0 7.747c0-2.108.791-4.01 2.287-5.5C3.784.756 5.63 0 7.773 0c3.245 0 6.005 1.981 7.219 5.176h-4.149c-.934-1.008-1.934-1.485-3.112-1.485-2.213 0-4.015 1.829-4.015 4.076 0 2.362 1.839 4.358 4.015 4.358 1.452 0 2.71-.763 3.454-2.093l.041-.074H6.864V6.999H15.4c.02.335.04.661.04.963 0 1.71-.423 3.166-1.292 4.451a7.757 7.757 0 0 1-6.418 3.403zm15.335-.302l-2.977-5.065v5.065h-3.61V.301h4.982c1.675 0 2.836.136 3.808.832 1.344.947 2.025 2.375 2.025 4.245 0 2.462-1.269 4.287-3.395 4.883l-.068.019 3.694 5.234h-4.459zm-2.977-8.149h.774c1.973 0 2.778-.55 2.778-1.901 0-1.272-.764-1.838-2.479-1.838h-1.072v3.74zm15.632 8.429c-2.236 0-4.124-.807-5.612-2.397-1.42-1.52-2.14-3.42-2.14-5.65 0-2.109.791-4.01 2.288-5.5C31.738.77 33.584.022 35.742.022c2.013 0 3.924.798 5.379 2.246 1.503 1.498 2.33 3.466 2.33 5.543 0 2.183-.754 4.122-2.181 5.608a7.573 7.573 0 0 1-5.55 2.375zm.043-12.082c-2.287 0-4.078 1.791-4.078 4.077 0 2.339 1.848 4.314 4.035 4.314 2.277 0 3.993-1.855 3.993-4.314 0-2.248-1.772-4.077-3.95-4.077zM49.96 15.75c-3.463 0-5.45-2.156-5.45-5.915V.301h3.63v9.383c0 1.812.586 2.656 1.84 2.656 1.325 0 1.969-.868 1.969-2.656V.301h3.61v9.534c0 3.649-2.146 5.915-5.599 5.915zm6.768-.236V.301h4.981c1.676 0 2.837.136 3.808.832 1.345.948 2.025 2.383 2.025 4.266 0 1.933-.869 3.574-2.384 4.501-.937.568-2.113.682-3.705.682h-1.115v4.932h-3.61zm3.652-8.149h.732c1.973 0 2.778-.55 2.778-1.901 0-1.272-.765-1.838-2.48-1.838h-1.03v3.74zm15.504 8.429c-2.236 0-4.125-.807-5.612-2.397-1.42-1.52-2.14-3.42-2.14-5.65 0-2.108.791-4.01 2.287-5.5C71.902.77 73.75.022 75.905.022c2.014 0 3.924.798 5.38 2.246 1.502 1.498 2.33 3.466 2.33 5.543 0 2.183-.754 4.122-2.182 5.608a7.572 7.572 0 0 1-5.549 2.375zm.042-12.082c-2.286 0-4.078 1.791-4.078 4.077 0 2.339 1.849 4.314 4.036 4.314 2.276 0 3.993-1.855 3.993-4.314 0-2.248-1.772-4.077-3.95-4.077zm17.85 11.802L88.05 6.871v8.643h-3.61V.301h3.27l5.64 8.623V.301h3.61v15.213h-3.186z"/>
    </g>
</svg>
