<svg xmlns="http://www.w3.org/2000/svg" width="84" height="23" viewBox="0 0 84 23">
    <g fill="none" fill-rule="nonzero">
        <path fill="none" d="M0-4h83v34H0z"/>
        <path fill="#8F9CB3" d="M12.645 1.715c0 .936-.769 1.716-1.691 1.716s-1.691-.78-1.691-1.716C9.263.78 10.032 0 10.953 0c.923 0 1.692.78 1.692 1.715zm-1.691 3.119c-1 0-1.768.78-1.768 1.793 0 1.014.769 1.793 1.768 1.793s1.767-.78 1.767-1.793-.768-1.793-1.767-1.793zm0 4.834c-1 0-1.845.857-1.845 1.871s.846 1.871 1.845 1.871 1.844-.857 1.844-1.871-.845-1.871-1.844-1.871zm0 4.912c-1 0-1.768.78-1.768 1.793s.769 1.793 1.768 1.793 1.767-.78 1.767-1.793c0-.936-.768-1.793-1.767-1.793zm0 4.99c-.922 0-1.691.78-1.691 1.715S10.032 23 10.953 23c.923 0 1.692-.78 1.692-1.715 0-.936-.769-1.716-1.691-1.716zM15.642 4.6c-1.076 0-1.998.936-1.998 2.027 0 1.092.922 2.027 1.998 2.027s1.998-.935 1.998-2.027c0-1.091-.922-2.027-1.998-2.027zm0 4.834c-1.153 0-2.075.935-2.075 2.105s.922 2.105 2.075 2.105 2.075-.936 2.075-2.105c0-1.17-.922-2.105-2.075-2.105zm0 4.912c-1.076 0-1.998.935-1.998 2.027 0 1.091.922 2.027 1.998 2.027s1.998-.936 1.998-2.027c0-1.092-.922-2.027-1.998-2.027zM20.483 9.2a2.329 2.329 0 0 0-2.305 2.339c0 1.247.999 2.339 2.305 2.339 1.307 0 2.306-1.014 2.306-2.339-.077-1.325-1.076-2.339-2.306-2.339zM6.19 5.068c-.845 0-1.537.701-1.537 1.56 0 .857.692 1.558 1.537 1.558s1.537-.701 1.537-1.559-.692-1.56-1.537-1.56zm0 4.834c-.922 0-1.614.701-1.614 1.637s.692 1.637 1.614 1.637c.922 0 1.614-.701 1.614-1.637S7.11 9.902 6.189 9.902zm0 4.912c-.845 0-1.537.701-1.537 1.559s.692 1.56 1.537 1.56 1.537-.702 1.537-1.56c0-.858-.692-1.56-1.537-1.56zm-4.765-4.678c-.768 0-1.383.623-1.383 1.403s.615 1.403 1.383 1.403c.769 0 1.383-.623 1.383-1.403s-.614-1.403-1.383-1.403zm38.733-1.638c-.153 0-.307.156-.307.312v12.24c0 .157.154.313.307.313h1.46c.154 0 .308-.156.308-.312V8.81c0-.157-.154-.313-.307-.313h-1.46zm.769-5.145c-.769 0-1.383.623-1.383 1.403s.614 1.403 1.383 1.403 1.383-.623 1.383-1.403-.614-1.403-1.383-1.403zm30.203 5.145c-.154 0-.308.156-.308.312v12.24c0 .157.154.313.308.313h1.46c.154 0 .307-.156.307-.312V8.81c0-.157-.153-.313-.307-.313h-1.46zm.691-5.145c-.768 0-1.383.623-1.383 1.403s.615 1.403 1.383 1.403c.769 0 1.384-.623 1.384-1.403s-.615-1.403-1.384-1.403zm-19.674 7.172c.154 0 .308-.156.308-.311V8.732c0-.156-.154-.312-.308-.312h-3.074V3.742c0-.156-.153-.311-.307-.311h-1.46c-.154 0-.308.155-.308.311V8.42H45.46c-.153 0-.307.156-.307.312v1.482c0 .155.154.311.307.311h1.537v7.095c0 2.183 1.46 3.587 3.535 3.587h1.538c.153 0 .307-.156.307-.312v-1.481c0-.156-.154-.312-.307-.312h-1.307c-.999 0-1.69-.702-1.69-1.794v-6.86h3.073v.077zm30.587 0c.154 0 .308-.156.308-.311V8.732c0-.156-.154-.312-.308-.312H79.66V3.742c0-.156-.153-.311-.307-.311h-1.46c-.154 0-.308.155-.308.311V8.42h-1.537c-.153 0-.307.156-.307.312v1.482c0 .155.154.311.307.311h1.537v7.095c0 2.183 1.46 3.587 3.536 3.587h1.537c.153 0 .307-.156.307-.312v-1.481c0-.156-.154-.312-.307-.312h-1.384c-.999 0-1.69-.702-1.69-1.794v-6.86h3.15v.077zm-51.72 0v10.448c0 .156.153.312.307.312h1.46c.153 0 .307-.156.307-.312V10.525h3.382c.153 0 .307-.156.307-.311V8.732c0-.156-.154-.312-.307-.312h-3.382V5.692c0-1.092.769-1.872 1.69-1.872h1.692c.153 0 .307-.156.307-.312v-1.48c0-.157-.154-.313-.307-.313h-1.614c-2.152 0-3.843 1.793-3.843 3.899V8.42h-1.537c-.154 0-.307.156-.307.312v1.482c0 .155.153.311.307.311h1.537zM66.21 9.98a6.062 6.062 0 0 0-4.457-1.95c-1.614 0-3.228.702-4.227 1.716V1.949c0-.156-.154-.312-.307-.312h-1.46c-.154 0-.308.156-.308.312v12.865c0 4.755 3.15 6.86 6.225 6.86 3.074 0 6.225-2.105 6.225-6.86.077-1.872-.538-3.587-1.69-4.834zm-4.457 9.745c-3.074 0-4.227-2.494-4.227-4.833 0-2.885 1.69-4.756 4.227-4.756 2.536 0 4.227 1.949 4.227 4.756-.077 2.339-1.153 4.833-4.227 4.833z"/>
    </g>
</svg>
