<svg xmlns="http://www.w3.org/2000/svg" width="78" height="24" viewBox="0 0 78 24">
    <g fill="none" fill-rule="nonzero">
        <path fill="none" d="M0-4h78v34H0z"/>
        <path fill="#8F9CB3" d="M55.291 23.977v.002l-10.655-.004c-3.579 0-6.504-2.945-6.504-6.576V6.956c0-3.63 2.9-6.572 6.479-6.572h10.68v3.289H44.636c-1.784 0-3.23 1.465-3.23 3.283v10.442c0 1.816 1.456 3.294 3.238 3.294h7.411v-8.907h-5.921v-3.28h9.157v13.198l6.111-18.24C62.003 1.465 63.964 0 66.297 0c2.329 0 4.296 1.471 4.893 3.471L78 23.976H64.906v-3.284h8.604l-5.556-16.66a1.81 1.81 0 0 0-1.663-1.12c-.75 0-1.39.464-1.66 1.125l-6.673 19.94H55.29zM0 24l10.307-.01c4.217 0 7.634-3.468 7.634-7.74 0-4.28-3.417-7.748-7.634-7.748l-2.677.015a.388.388 0 0 1-.382-.393c0-.217.171-.393.382-.393l10.289.002.004-3.284H7.628c-1.99 0-3.61 1.645-3.61 3.667 0 2.023 1.62 3.662 3.61 3.662l2.69.036c2.416 0 4.37 1.983 4.37 4.43 0 2.448-1.954 4.435-4.37 4.435H.004L0 24zm.008-4.092H10.32c1.996 0 3.611-1.639 3.611-3.664 0-2.024-1.615-3.661-3.61-3.661l-2.69-.03c-2.411 0-4.368-1.985-4.368-4.438 0-2.446 1.957-4.431 4.368-4.431l10.293-.002-.004-3.298H7.633C3.42.384 0 3.848 0 8.124s3.421 7.742 7.633 7.742l2.661.004a.378.378 0 0 1 0 .756l-10.29.008.004 3.274zm25.925.792c-1.789 0-3.253-1.45-3.253-3.302V6.92a3.263 3.263 0 0 1 3.253-3.247l11.001.002V.385H25.933c-3.58 0-6.48 2.94-6.48 6.571v10.443c0 3.63 2.9 6.576 6.48 6.576l10.955.004-.002-3.283-10.953.004zM23.468 6.956c0-1.388 1.098-2.514 2.465-2.514h11.001v3.295h-9.478c-.76 0-.77.767-.77.767h7.908v3.28h-11.13l.004-4.828zm2.465 12.946c-1.363 0-2.469-1.119-2.469-2.503v-4.833h11.13v3.287h-7.908c.01.773.77.777.77.777h9.432l-.002 3.268-10.953.004zm16.232-2.504c0 1.392 1.106 2.523 2.47 2.523h6.656v-7.36h-5.15v3.292h1.912l.006.773h-1.903a.768.768 0 0 1-.755-.773l-.017-7.351s-.002-.765.764-.784h9.147L55.29 4.44l-10.656.002c-1.364 0-2.47 1.126-2.47 2.514v10.442zm23.14-13.005c.143-.418.533-.72.994-.72.462 0 .856.302.995.72l5.173 15.551h-7.574l.008-3.658h2.531l-1.14-3.446-3.71 11.136h-3.82l6.542-19.583z"/>
    </g>
</svg>
