<svg xmlns="http://www.w3.org/2000/svg" width="77" height="25" viewBox="0 0 77 25">
    <g fill="none" fill-rule="nonzero">
        <path fill="none" d="M0-6h77v34H0z"/>
        <path fill="#8F9CB3" d="M9.946 8.829v2.64h6.372c-.315 3.702-3.425 5.281-6.361 5.281-3.757 0-7.034-2.927-7.034-7.029 0-3.996 3.124-7.073 7.042-7.073 3.023 0 4.804 1.908 4.804 1.908l1.867-1.915S14.24 0 9.87 0C4.305 0 0 4.65 0 9.674c0 4.922 4.05 9.722 10.012 9.722 5.243 0 9.082-3.557 9.082-8.817 0-1.11-.163-1.75-.163-1.75H9.946zm16.345-1.912c-3.687 0-6.329 2.854-6.329 6.183 0 3.378 2.563 6.285 6.372 6.285 3.449 0 6.274-2.61 6.274-6.213 0-4.129-3.286-6.255-6.317-6.255zm.037 2.449c1.813 0 3.53 1.451 3.53 3.79 0 2.289-1.71 3.782-3.539 3.782-2.009 0-3.594-1.594-3.594-3.8 0-2.16 1.565-3.772 3.603-3.772zm13.727-2.45c-3.686 0-6.328 2.855-6.328 6.184 0 3.378 2.562 6.285 6.372 6.285 3.448 0 6.274-2.61 6.274-6.213 0-4.129-3.287-6.255-6.318-6.255zm.037 2.45c1.813 0 3.531 1.451 3.531 3.79 0 2.289-1.71 3.782-3.54 3.782-2.008 0-3.594-1.594-3.594-3.8 0-2.16 1.566-3.772 3.603-3.772zm13.464-2.443c-3.384 0-6.044 2.935-6.044 6.23 0 3.752 3.084 6.24 5.986 6.24 1.794 0 2.748-.705 3.453-1.515v1.23c0 2.15-1.32 3.438-3.31 3.438-1.923 0-2.887-1.416-3.222-2.219l-2.42 1.002C48.857 23.126 50.585 25 53.661 25c3.365 0 5.93-2.099 5.93-6.5V7.298h-2.64v1.056c-.812-.866-1.922-1.43-3.395-1.43zm.245 2.444c1.66 0 3.363 1.403 3.363 3.799 0 2.435-1.7 3.777-3.4 3.777-1.804 0-3.482-1.45-3.482-3.754 0-2.394 1.743-3.822 3.52-3.822zM71.326 6.91c-3.192 0-5.872 2.514-5.872 6.225 0 3.927 2.988 6.256 6.179 6.256 2.664 0 4.298-1.443 5.274-2.736l-2.176-1.434c-.565.868-1.51 1.716-3.085 1.716-1.77 0-2.583-.96-3.087-1.89L77 11.579l-.438-1.016c-.816-1.99-2.718-3.653-5.235-3.653zm.11 2.397c1.15 0 1.978.606 2.33 1.332l-5.637 2.333c-.243-1.806 1.485-3.665 3.307-3.665zM61.43 19.02h2.773V.645H61.43V19.02z"/>
    </g>
</svg>
