<svg xmlns="http://www.w3.org/2000/svg" width="135" height="17" viewBox="0 0 135 17">
    <g fill="none" fill-rule="nonzero">
        <path fill="none" d="M0-10h135v34H0z"/>
        <path fill="#8F9CB3" d="M38.74.2h-3.23a.398.398 0 0 0-.408.396v8.355c0 1.356-.55 2.077-1.788 2.077-1.239 0-1.788-.721-1.788-2.077V.596c0-.229-.142-.396-.403-.396H27.89a.397.397 0 0 0-.405.396v9.178c0 2.838 2.032 5.12 5.79 5.12 3.798 0 5.87-2.282 5.87-5.12V.596A.405.405 0 0 0 38.742.2zm23.403 5.852l-2.337-.824c-.69-.247-.773-.637-.773-.864 0-.37.346-.739 1.037-.739.75 0 1.83.21 2.886 1.035a.33.33 0 0 0 .474-.051l1.814-2.318a.369.369 0 0 0-.044-.5C63.658.467 61.76.006 60.008.006c-3.373 0-5.382 2.118-5.382 4.421 0 1.81 1.035 3.476 3.251 4.236l2.071.72c1.016.35 1.18.618 1.18 1.05 0 .39-.408.842-1.22.842-1.148 0-2.495-.698-3.402-1.46a.314.314 0 0 0-.463.048l-1.862 2.476a.381.381 0 0 0 .045.504c1.346 1.18 3.345 2.053 5.865 2.053 3.169 0 5.465-1.852 5.465-4.647 0-1.914-1.179-3.416-3.413-4.196zm-14.807.292h-2.11V3.838h2.11c1.177 0 1.643.534 1.643 1.253 0 .718-.466 1.253-1.643 1.253zm3.206 2.895c1.724-.863 2.617-2.218 2.617-4.231C53.159 2.46 51.13.2 47.702.2h-6.186c-.203 0-.368.21-.368.416v13.63a.37.37 0 0 0 .368.373h3.342a.37.37 0 0 0 .368-.373v-4.41h1.32l2.36 4.455c.097.181.34.328.543.328h3.83c.202 0 .285-.145.183-.323l-2.92-5.057zM10.157.2H.455A.436.436 0 0 0 0 .628v13.57a.41.41 0 0 0 .406.42h3.27c.2 0 .364-.219.364-.42v-4.38h4.147a.47.47 0 0 0 .44-.363l.626-3.01c.039-.177-.052-.372-.295-.372H4.04V3.886h5.458c.203 0 .4-.162.441-.361l.593-2.838C10.584.438 10.448.2 10.157.2zm123.794 3.685a.47.47 0 0 0 .44-.36l.593-2.84c.051-.247-.012-.485-.35-.485h-9.754a.422.422 0 0 0-.428.427v13.57c0 .225.166.422.405.422h8.876a.47.47 0 0 0 .44-.36l.594-2.841c.053-.246-.012-.485-.349-.485h-5.895V9.28h4.115c.201 0 .4-.163.44-.362l.627-3.01c.039-.176-.053-.372-.296-.372h-4.886V3.885h5.428zM102.224 8.38h-1.317l1.317-4.41 1.32 4.41h-1.32zm2.678-7.85a.488.488 0 0 0-.438-.329h-4.44a.483.483 0 0 0-.437.33l-4.09 13.736c-.055.18.051.353.24.353h3.649c.187 0 .381-.172.432-.355l.578-2.074h3.662l.63 2.076c.053.18.25.353.438.353h3.627c.186 0 .295-.172.24-.353L104.902.53zM94.362.2h-3.23a.398.398 0 0 0-.408.396v8.355c0 1.356-.55 2.077-1.788 2.077-1.24 0-1.79-.721-1.79-2.077V.596c0-.229-.14-.396-.4-.396H83.51a.397.397 0 0 0-.405.396v9.178c0 2.838 2.032 5.12 5.79 5.12 3.799 0 5.87-2.282 5.87-5.12V.596A.405.405 0 0 0 94.362.2zm22.28 6.144h-2.111V3.838h2.111c1.176 0 1.641.534 1.641 1.253 0 .718-.465 1.253-1.64 1.253zm3.205 2.895c1.724-.863 2.616-2.218 2.616-4.231 0-2.547-2.027-4.808-5.456-4.808h-6.186c-.203 0-.368.21-.368.416v13.63a.37.37 0 0 0 .368.373h3.341a.37.37 0 0 0 .369-.373v-4.41h1.32l2.36 4.455c.097.181.34.328.543.328h3.828c.204 0 .287-.145.183-.323l-2.918-5.057zm-45.843 1.857c-1.86 0-3.12-1.635-3.12-3.649 0-2.016 1.262-3.649 3.12-3.649 1.857 0 3.12 1.633 3.12 3.65 0 2.013-1.26 3.648-3.12 3.648zm7.413 1.738a3.976 3.976 0 0 1-2.293.173h-.005c.145-.13.284-.262.418-.402 1.918-2.06 2.462-5.144 1.523-7.771C80.087 2.11 77.517.26 74.633.025c-2.89-.236-5.816 1.198-7.211 3.752-1.46 2.67-1.187 6.192.8 8.53 1.717 2.02 4.413 2.862 6.937 2.505l.113.11C76.67 16.257 78.944 17 80.883 17l.8-3.943c.018-.143-.086-.292-.266-.223zm-63.034-1.738c-1.86 0-3.12-1.635-3.12-3.649 0-2.016 1.263-3.649 3.12-3.649 1.856 0 3.12 1.633 3.12 3.65 0 2.013-1.26 3.648-3.12 3.648zm.63-11.07c-2.89-.237-5.818 1.197-7.213 3.751-1.46 2.67-1.186 6.192.8 8.53 2.829 3.328 8.315 3.464 11.316.298 1.918-2.06 2.462-5.144 1.523-7.771C24.466 2.11 21.896.26 19.012.025z"/>
    </g>
</svg>
