<svg xmlns="http://www.w3.org/2000/svg" width="121" height="21" viewBox="0 0 121 21">
    <defs>
        <linearGradient id="a" x1="41.598%" x2="61.257%" y1="56.775%" y2="20.179%">
            <stop offset="0%" stop-color="#8F9CB3" stop-opacity=".6"/>
            <stop offset="100%" stop-color="#8F9CB3"/>
        </linearGradient>
        <linearGradient id="b" x1="73.563%" x2="18.578%" y1="31.162%" y2="73.824%">
            <stop offset="0%" stop-color="#8F9CB3" stop-opacity=".4"/>
            <stop offset="100%" stop-color="#8F9CB3"/>
        </linearGradient>
        <linearGradient id="c" x1="28.089%" x2="81.584%" y1="20.234%" y2="79.748%">
            <stop offset="0%" stop-color="#8F9CB3"/>
            <stop offset="100%" stop-color="#8F9CB3" stop-opacity=".7"/>
        </linearGradient>
    </defs>
    <g fill="none" fill-rule="nonzero">
        <path fill="none" d="M0-8h121v34H0z"/>
        <path fill="#8F9CB3" d="M32.162 5.451l-2.036 4.642h4.09L32.163 5.45zm80.4 3.25V3.098h-1.992v11.6h1.991V8.722l5.855 5.976H121l-5.882-5.986 5.32-5.616h-2.55L112.561 8.7zm-74.17 5.997h-2.206L34.98 11.9h-5.62l-1.221 2.8H26l5.23-11.683h1.933l5.229 11.682zm19.238 0h-2.106v-9.71h-3.77v-1.89h9.813l-.809 1.89H57.63v9.71zm39.985-9.71H91.25v2.95h4.076v1.824H91.25v3.083h6.367v1.853h-8.47v-11.6h8.467v1.89zm6.46-.115c-1.213 0-2.245.358-2.25 1.145-.007.921.585 1.24 2.82 1.95 2.47.793 3.782 1.599 3.769 3.56C108.4 13.74 106.65 15 104.094 15c-1.809 0-3.431-.573-4.668-1.635l.77-1.82c1.122.919 2.482 1.57 3.952 1.576 1.287.006 2.202-.605 2.202-1.51 0-.756-.448-1.26-2.616-1.93-2.487-.796-3.99-1.626-3.977-3.602.015-1.967 1.904-3.085 4.28-3.074 2.376.011 3.714.86 3.917.975l-.747 1.654c-.485-.256-1.548-.761-3.132-.761zm-36.022 8.255c-2.335 0-4.04-1.847-4.04-4.127s1.705-4.128 4.04-4.128c2.336 0 4.042 1.848 4.042 4.128 0 2.28-1.706 4.127-4.042 4.127zm0-10.128c-3.394 0-6.145 2.687-6.145 6.001 0 3.314 2.75 5.999 6.145 5.999 3.394 0 6.147-2.685 6.147-5.999C74.2 5.687 71.447 3 68.053 3zm12.85 9.842l-2.4.002V4.988h2.41c2.334 0 4.031 1.616 4.031 3.894 0 2.279-1.707 3.96-4.04 3.96zm0-9.744h-4.508v11.6h4.509c3.392 0 6.144-2.503 6.144-5.816 0-3.314-2.752-5.784-6.144-5.784zM49.436 9.617c0 3.458-2.079 5.323-5.094 5.323-3.014 0-5.092-1.865-5.092-5.323v-6.46h2.105V9.86c0 2.03 1.22 3.22 2.987 3.22 1.77 0 2.99-1.19 2.99-3.22V3.157h2.104v6.46z"/>
        <path fill="url(#a)" d="M4.055 20.782c-.588 0-.894-.224-1.187-.743l-2.68-5.007C.003 14.674 0 14.554 0 14.296l4.212.187.965.971h8.45l-7.017 4.38c-.342.203-1.642.948-2.555.948z"/>
        <path fill="url(#b)" d="M5.18 15.474H1.537c-1.1 0-1.537-.58-1.537-1.158 0-.367.117-.566.279-.973L5.589.57l.057-.112.073-.115.153-.15.224-.12L6.421 0l.56.015 3.69 1.382L9.422 5.36 5.18 15.474z"/>
        <path fill="url(#c)" d="M15.767 20.826L7.385.833c-.144-.34-.376-.78-.975-.78-.535 0-.79.262-.934.543.074-.203.3-.596.953-.596h5.785c.533 0 .788.316.905.606l8.476 20.22h-5.828z"/>
    </g>
</svg>
