<?xml version="1.0" encoding="UTF-8"?>
<svg width="1127px" height="602px" viewBox="0 0 1127 602" version="1.1" xmlns="http://www.w3.org/2000/svg" xmlns:xlink="http://www.w3.org/1999/xlink">
    <!-- Generator: Sketch 47.1 (45422) - http://www.bohemiancoding.com/sketch -->
    <title>image_a8d4f</title>
    <desc>Created with Sketch.</desc>
    <defs>
        <path d="M28.4641944,0 L204.382521,0 C220.102861,0 232.846715,12.7170659 232.846715,28.4011078 L232.846715,454.153637 C232.846715,469.839135 220.100251,482.554745 204.382521,482.554745 L28.4641944,482.554745 C12.7438539,482.554745 0,469.837679 0,454.153637 L0,28.4011078 C0,12.7156091 12.7464642,0 28.4641944,0 Z" id="path-1"></path>
        <filter x="-11.2%" y="-4.4%" width="122.3%" height="110.8%" filterUnits="objectBoundingBox" id="filter-2">
            <feOffset dx="0" dy="5" in="SourceAlpha" result="shadowOffsetOuter1"></feOffset>
            <feGaussianBlur stdDeviation="7.5" in="shadowOffsetOuter1" result="shadowBlurOuter1"></feGaussianBlur>
            <feColorMatrix values="0 0 0 0 0   0 0 0 0 0   0 0 0 0 0  0 0 0 0.07 0" type="matrix" in="shadowBlurOuter1" result="shadowMatrixOuter1"></feColorMatrix>
            <feMorphology radius="0.5" operator="dilate" in="SourceAlpha" result="shadowSpreadOuter2"></feMorphology>
            <feOffset dx="0" dy="0" in="shadowSpreadOuter2" result="shadowOffsetOuter2"></feOffset>
            <feColorMatrix values="0 0 0 0 0   0 0 0 0 0   0 0 0 0 0  0 0 0 0.03 0" type="matrix" in="shadowOffsetOuter2" result="shadowMatrixOuter2"></feColorMatrix>
            <feMerge>
                <feMergeNode in="shadowMatrixOuter1"></feMergeNode>
                <feMergeNode in="shadowMatrixOuter2"></feMergeNode>
            </feMerge>
        </filter>
        <linearGradient x1="50%" y1="0%" x2="50%" y2="100%" id="linearGradient-3">
            <stop stop-color="#EFF2F7" offset="0%"></stop>
            <stop stop-color="#FFFFFF" offset="100%"></stop>
        </linearGradient>
        <linearGradient x1="50%" y1="0%" x2="50%" y2="100%" id="linearGradient-4">
            <stop stop-color="#E5EDFC" offset="0%"></stop>
            <stop stop-color="#FFFFFF" offset="100%"></stop>
        </linearGradient>
        <linearGradient x1="50%" y1="0%" x2="50%" y2="100%" id="linearGradient-5">
            <stop stop-color="#F3F4F6" offset="0%"></stop>
            <stop stop-color="#FFFFFF" offset="100%"></stop>
        </linearGradient>
        <path d="M28.4224329,0 L806.27244,0 C821.969716,0 834.694873,12.7266141 834.694873,28.4224318 L834.694873,542.815791 C834.694873,558.513067 821.96711,571.238223 806.27244,571.238223 L28.4224329,571.238223 C12.7251567,571.238223 0,558.511609 0,542.815791 L0,28.4224318 C0,12.7251562 12.7277631,0 28.4224329,0 Z" id="path-6"></path>
        <filter x="-3.1%" y="-3.7%" width="106.2%" height="109.1%" filterUnits="objectBoundingBox" id="filter-7">
            <feOffset dx="0" dy="5" in="SourceAlpha" result="shadowOffsetOuter1"></feOffset>
            <feGaussianBlur stdDeviation="7.5" in="shadowOffsetOuter1" result="shadowBlurOuter1"></feGaussianBlur>
            <feColorMatrix values="0 0 0 0 0   0 0 0 0 0   0 0 0 0 0  0 0 0 0.07 0" type="matrix" in="shadowBlurOuter1" result="shadowMatrixOuter1"></feColorMatrix>
            <feMorphology radius="0.5" operator="dilate" in="SourceAlpha" result="shadowSpreadOuter2"></feMorphology>
            <feOffset dx="0" dy="0" in="shadowSpreadOuter2" result="shadowOffsetOuter2"></feOffset>
            <feColorMatrix values="0 0 0 0 0   0 0 0 0 0   0 0 0 0 0  0 0 0 0.03 0" type="matrix" in="shadowOffsetOuter2" result="shadowMatrixOuter2"></feColorMatrix>
            <feMerge>
                <feMergeNode in="shadowMatrixOuter1"></feMergeNode>
                <feMergeNode in="shadowMatrixOuter2"></feMergeNode>
            </feMerge>
        </filter>
    </defs>
    <g id="Webiste" stroke="none" stroke-width="1" fill="none" fill-rule="evenodd">
        <g id="image_a8d4f" transform="translate(14.000000, 10.000000)">
            <g id="Group" transform="translate(864.856000, 89.324000)">
                <g id="home_client-b-link" fill-rule="nonzero" fill="#000000">
                    <path d="M28.4641944,0 L204.382521,0 C220.102861,0 232.846715,12.7170659 232.846715,28.4011078 L232.846715,454.153637 C232.846715,469.839135 220.100251,482.554745 204.382521,482.554745 L28.4641944,482.554745 C12.7438539,482.554745 0,469.837679 0,454.153637 L0,28.4011078 C0,12.7156091 12.7464642,0 28.4641944,0 Z" id="home_client-b"></path>
                </g>
                <g id="home_client-b-link" fill-rule="nonzero" fill="#FFFFFF">
                    <path d="M28.4641944,0 L204.382521,0 C220.102861,0 232.846715,12.7170659 232.846715,28.4011078 L232.846715,454.153637 C232.846715,469.839135 220.100251,482.554745 204.382521,482.554745 L28.4641944,482.554745 C12.7438539,482.554745 0,469.837679 0,454.153637 L0,28.4011078 C0,12.7156091 12.7464642,0 28.4641944,0 Z" id="home_client-b"></path>
                </g>
                <g id="home_client-b-link" fill-rule="nonzero">
                    <g id="home_client-b">
                        <use fill="black" fill-opacity="1" filter="url(#filter-2)" xlink:href="#path-1"></use>
                        <use fill="#FFFFFF" fill-rule="evenodd" xlink:href="#path-1"></use>
                    </g>
                </g>
                <circle id="Oval" fill="url(#linearGradient-3)" fill-rule="nonzero" style="mix-blend-mode: multiply;" cx="116.423" cy="457.664" r="16.861"></circle>
                <rect id="Rectangle-path" fill="url(#linearGradient-4)" fill-rule="nonzero" style="mix-blend-mode: multiply;" x="93.942" y="23.285" width="44.964" height="4.015" rx="2.007"></rect>
                <path d="M74.270073,27.2992701 C75.3786738,27.2992701 76.2773723,26.4005716 76.2773723,25.2919708 C76.2773723,24.18337 75.3786738,23.2846715 74.270073,23.2846715 C73.1614722,23.2846715 72.2627737,24.18337 72.2627737,25.2919708 C72.2627737,26.4005716 73.1614722,27.2992701 74.270073,27.2992701 Z" id="Shape" fill="url(#linearGradient-5)" fill-rule="nonzero" style="mix-blend-mode: multiply;"></path>
                <path d="M23.8759124,378.175182 L208.167883,378.175182 L208.167883,378.175182 C209.824737,378.175182 211.167883,379.518328 211.167883,381.175182 L211.167883,407.291971 L211.167883,407.291971 C211.167883,408.948825 209.824737,410.291971 208.167883,410.291971 L23.8759124,410.291971 L23.8759124,410.291971 C22.2190582,410.291971 20.8759124,408.948825 20.8759124,407.291971 L20.8759124,381.175182 L20.8759124,381.175182 C20.8759124,379.518328 22.2190582,378.175182 23.8759124,378.175182 Z" id="Shape" fill="#263F6F" fill-rule="nonzero" opacity="0.24"></path>
                <circle id="Oval" fill="#FFFFFF" fill-rule="nonzero" opacity="0.4" cx="46.041" cy="394.741" r="8.15"></circle>
                <circle id="Oval" fill="#FFFFFF" fill-rule="nonzero" opacity="0.4" cx="92.275" cy="394.741" r="8.15"></circle>
                <circle id="Oval" fill="#FFFFFF" fill-rule="nonzero" opacity="0.4" cx="138.275" cy="394.741" r="8.15"></circle>
                <circle id="Oval" fill="#FFFFFF" fill-rule="nonzero" cx="185.275" cy="394.741" r="8.15"></circle>
                <path d="M55.9927007,321.167883 L176.051095,321.167883 C177.707949,321.167883 179.051095,322.511029 179.051095,324.167883 L179.051095,342.255474 C179.051095,343.912329 177.707949,345.255474 176.051095,345.255474 L55.9927007,345.255474 C54.3358465,345.255474 52.9927007,343.912329 52.9927007,342.255474 L52.9927007,324.167883 C52.9927007,322.511029 54.3358465,321.167883 55.9927007,321.167883 Z" id="Shape" fill="#3F46AD" fill-rule="nonzero"></path>
                <path d="M23.5328467,179.927007 L67.832846,179.927007" id="Shape" stroke="#263F6F" stroke-width="6" opacity="0.4" stroke-linecap="round"></path>
                <path d="M174.532847,179.927007 L206.832846,179.927007" id="Shape" stroke="#DFE4EE" stroke-width="6" stroke-linecap="round"></path>
                <path d="M85.6398933,333.499918 L148.566549,333.500082" id="Shape" stroke="#FFFFFF" stroke-width="3" opacity="0.3" stroke-linecap="round"></path>
                <path d="M21.2773723,195.109489 L210.766423,195.109489 L210.766423,195.109489 C210.988144,195.109489 211.167883,195.289229 211.167883,195.510949 L211.167883,195.510949 L211.167883,195.510949 C211.167883,195.732669 210.988144,195.912409 210.766423,195.912409 L21.2773723,195.912409 L21.2773723,195.912409 C21.0556521,195.912409 20.8759124,195.732669 20.8759124,195.510949 L20.8759124,195.510949 L20.8759124,195.510949 C20.8759124,195.289229 21.0556521,195.109489 21.2773723,195.109489 Z" id="Shape" fill="#DFE4EE" fill-rule="nonzero"></path>
                <path d="M23.8759124,75.4744526 L208.167883,75.4744526 C209.824737,75.4744526 211.167883,76.8175983 211.167883,78.4744526 L211.167883,160.79562 C211.167883,162.452475 209.824737,163.79562 208.167883,163.79562 L23.8759124,163.79562 C22.2190582,163.79562 20.8759124,162.452475 20.8759124,160.79562 L20.8759124,78.4744526 C20.8759124,76.8175983 22.2190582,75.4744526 23.8759124,75.4744526 Z" id="Shape" fill="#3F46AD" fill-rule="nonzero" opacity="0.8"></path>
                <g transform="translate(77.080000, 218.970000)" id="Shape" fill-rule="nonzero" fill="#263F6F">
                    <polygon points="0 31.314 0 34.526 0 37.737 0 40.949 3.212 40.949 3.212 37.737 3.212 34.526 3.212 31.314"></polygon>
                    <path d="M0,0 L0,3.21183942 L0,6.42335766 L0,9.6350365 L0,12.8467153 L0,16.0585547 L0,19.2702336 L0,22.4817518 L3.21167883,22.4817518 L6.42335766,22.4817518 L9.6350365,22.4817518 L12.8467153,22.4817518 L16.0583942,22.4817518 L19.270073,22.4817518 L22.4817518,22.4817518 L22.4817518,19.2702336 L22.4817518,16.0585547 L22.4817518,12.8467153 L22.4817518,9.6350365 L22.4817518,6.42335766 L22.4817518,3.21183942 L22.4817518,0 L0,0 Z M3.21167883,16.0585547 L3.21167883,12.8467153 L3.21167883,9.6350365 L3.21167883,6.42335766 L3.21167883,3.21183942 L6.42335766,3.21183942 L9.6350365,3.21183942 L12.8467153,3.21183942 L16.0583942,3.21183942 L19.270073,3.21183942 L19.270073,6.42335766 L19.270073,9.6350365 L19.270073,12.8467153 L19.270073,16.0585547 L19.270073,19.2702336 L16.0583942,19.2702336 L12.8467153,19.2702336 L9.6350365,19.2702336 L6.42335766,19.2702336 L3.21167883,19.2702336 L3.21167883,16.0585547 Z"></path>
                    <polygon points="3.212 47.372 3.212 50.584 3.212 53.796 6.423 53.796 6.423 50.584 6.423 47.372 6.423 44.161 3.212 44.161"></polygon>
                    <polygon points="9.635 31.314 6.423 31.314 6.423 34.526 6.423 37.737 9.635 37.737 12.847 37.737 12.847 34.526 9.635 34.526"></polygon>
                    <polygon points="6.423 44.161 9.635 44.161 9.635 40.949 6.423 40.949"></polygon>
                    <polygon points="12.847 16.058 16.058 16.058 16.058 12.847 16.058 9.635 16.058 6.423 12.847 6.423 9.635 6.423 6.423 6.423 6.423 9.635 6.423 12.847 6.423 16.058 9.635 16.058"></polygon>
                    <polygon points="9.635 50.584 12.847 50.584 12.847 47.372 16.058 47.372 16.058 44.161 12.847 44.161 9.635 44.161 9.635 47.372"></polygon>
                    <polygon points="9.635 63.431 6.423 63.431 6.423 66.642 6.423 69.854 6.423 73.066 9.635 73.066 12.847 73.066 16.058 73.066 16.058 69.854 16.058 66.642 16.058 63.431 12.847 63.431"></polygon>
                    <polygon points="12.847 41.752 16.058 41.752 16.058 38.54 12.847 38.54"></polygon>
                    <polygon points="12.311 25.693 9.234 25.693 6.156 25.693 3.078 25.693 0 25.693 0 28.905 3.078 28.905 6.156 28.905 9.234 28.905 12.311 28.905 12.311 32.117 12.311 35.328 15.389 35.328 15.389 32.117 18.467 32.117 18.467 28.905 15.389 28.905 15.389 25.693"></polygon>
                    <polygon points="16.058 50.584 16.058 53.796 19.27 53.796 22.482 53.796 22.482 50.584 19.27 50.584"></polygon>
                    <path d="M19.2699354,57.0072993 L16.0582795,57.0072993 L12.8466236,57.0072993 L9.63512826,57.0072993 L6.42331178,57.0072993 L3.21165589,57.0072993 L0,57.0072993 L0,60.2191387 L0,63.4306569 L0,66.6423358 L0,69.8540146 L0,73.065854 L0,76.2775328 L0,79.4890511 L3.21165589,79.4890511 L6.42331178,79.4890511 L9.63512826,79.4890511 L12.8466236,79.4890511 L16.0582795,79.4890511 L19.2699354,79.4890511 L22.4817518,79.4890511 L22.4817518,76.2775328 L22.4817518,73.065854 L22.4817518,69.8540146 L22.4817518,66.6423358 L22.4817518,63.4306569 L22.4817518,60.2191387 L22.4817518,57.0072993 L19.2699354,57.0072993 Z M3.21165589,73.065854 L3.21165589,69.8540146 L3.21165589,66.6423358 L3.21165589,63.4306569 L3.21165589,60.2191387 L6.42331178,60.2191387 L9.63512826,60.2191387 L12.8466236,60.2191387 L16.0582795,60.2191387 L19.2699354,60.2191387 L19.2699354,63.4306569 L19.2699354,66.6423358 L19.2699354,69.8540146 L19.2699354,73.065854 L19.2699354,76.2775328 L16.0582795,76.2775328 L12.8466236,76.2775328 L9.63512826,76.2775328 L6.42331178,76.2775328 L3.21165589,76.2775328 L3.21165589,73.065854 Z"></path>
                    <polygon points="18.467 34.526 21.679 34.526 21.679 31.314 18.467 31.314"></polygon>
                    <polygon points="18.467 41.752 21.679 41.752 21.679 38.54 18.467 38.54"></polygon>
                    <polygon points="28.905 19.27 28.905 16.058 25.693 16.058 25.693 19.27 25.693 22.482 28.905 22.482"></polygon>
                    <polygon points="28.102 53.26 28.102 50.182 31.314 50.182 31.314 47.105 31.314 44.027 28.102 44.027 24.891 44.027 24.891 40.949 21.679 40.949 21.679 44.027 18.467 44.027 18.467 47.105 21.679 47.105 24.891 47.105 24.891 50.182 24.891 53.26 24.891 56.338 24.891 59.416 28.102 59.416 28.102 56.338"></polygon>
                    <polygon points="31.314 16.058 31.314 19.27 31.314 22.482 34.526 22.482 34.526 19.27 34.526 16.058 34.526 12.847 31.314 12.847"></polygon>
                    <polygon points="34.526 38.005 34.526 41.083 37.737 41.083 37.737 44.161 40.949 44.161 44.161 44.161 44.161 41.083 47.372 41.083 47.372 38.005 44.161 38.005 40.949 38.005 37.737 38.005 37.737 34.927 40.949 34.927 44.161 34.927 44.161 31.849 40.949 31.849 37.737 31.849 34.526 31.849 34.526 34.927 31.314 34.927 31.314 31.849 31.314 28.771 34.526 28.771 34.526 25.693 31.314 25.693 28.102 25.693 24.891 25.693 21.679 25.693 18.467 25.693 18.467 28.771 21.679 28.771 21.679 31.849 24.891 31.849 28.102 31.849 28.102 34.927 28.102 38.005 28.102 41.083 31.314 41.083 31.314 38.005"></polygon>
                    <polygon points="31.314 44.161 34.526 44.161 34.526 40.949 31.314 40.949"></polygon>
                    <polygon points="40.949 73.066 44.161 73.066 44.161 69.854 40.949 69.854"></polygon>
                    <path d="M28.9051095,0 L28.9051095,3.13152777 L25.6934307,3.13152777 L25.6934307,6.26274241 L28.9051095,6.26274241 L28.9051095,9.39411361 L25.6934307,9.39411361 L25.6934307,12.5254848 L28.9051095,12.5254848 L32.1167883,12.5254848 L32.1167883,9.39411361 L35.3284672,9.39411361 L35.3284672,12.5254848 L38.540146,12.5254848 L38.540146,9.39411361 L38.540146,6.26274241 L41.7518248,6.26274241 L44.9635036,6.26274241 L48.1751825,6.26274241 L48.1751825,9.39411361 L44.9635036,9.39411361 L41.7518248,9.39411361 L41.7518248,12.5254848 L38.540146,12.5254848 L38.540146,15.6570126 L41.7518248,15.6570126 L41.7518248,18.7883838 L38.540146,18.7883838 L38.540146,21.9195984 L38.540146,25.0509696 L38.540146,28.1823408 L41.7518248,28.1823408 L44.9635036,28.1823408 L44.9635036,31.3138686 L48.1751825,31.3138686 L48.1751825,28.1823408 L51.3868613,28.1823408 L51.3868613,25.0509696 L51.3868613,21.9195984 L54.5985401,21.9195984 L54.5985401,18.7883838 L54.5985401,15.6570126 L54.5985401,12.5254848 L54.5985401,9.39411361 L54.5985401,6.26274241 L51.3868613,6.26274241 L51.3868613,3.13152777 L48.1751825,3.13152777 L44.9635036,3.13152777 L41.7518248,3.13152777 L38.540146,3.13152777 L35.3284672,3.13152777 L35.3284672,6.26274241 L32.1167883,6.26274241 L32.1167883,3.13152777 L32.1167883,0 L28.9051095,0 Z M44.9635036,12.5254848 L48.1751825,12.5254848 L51.3868613,12.5254848 L51.3868613,15.6570126 L48.1751825,15.6570126 L44.9635036,15.6570126 L44.9635036,12.5254848 Z M48.1751825,21.919755 L51.3870219,21.919755 L51.3870219,18.7883838 L48.1751825,18.7883838 L48.1751825,21.919755 Z M44.9635036,18.7883838 L44.9635036,21.9195984 L44.9635036,25.0509696 L41.7518248,25.0509696 L41.7518248,21.9195984 L41.7518248,18.7883838 L44.9635036,18.7883838 Z"></path>
                    <polygon points="44.964 73.066 44.964 76.277 41.752 76.277 38.54 76.277 38.54 73.066 35.328 73.066 35.328 76.277 35.328 79.489 38.54 79.489 41.752 79.489 44.964 79.489 48.175 79.489 48.175 76.277 48.175 73.066"></polygon>
                    <polygon points="47.372 73.066 50.584 73.066 50.584 69.854 47.372 69.854"></polygon>
                    <polygon points="50.584 3.212 53.796 3.212 53.796 0 50.584 0"></polygon>
                    <polygon points="50.584 32.117 53.796 32.117 53.796 28.905 50.584 28.905"></polygon>
                    <polygon points="53.796 28.905 57.007 28.905 57.007 25.693 53.796 25.693"></polygon>
                    <polygon points="57.007 60.219 60.219 60.219 60.219 57.007 57.007 57.007"></polygon>
                    <polygon points="66.642 6.423 63.431 6.423 63.431 9.635 63.431 12.847 63.431 16.058 66.642 16.058 69.854 16.058 73.066 16.058 73.066 12.847 73.066 9.635 73.066 6.423 69.854 6.423"></polygon>
                    <polygon points="66.642 28.905 69.854 28.905 69.854 25.693 66.642 25.693"></polygon>
                    <path d="M60.5022591,25.6934307 L60.5022591,28.8578789 L60.5022591,32.0223272 L57.3378202,32.0223272 L57.3378202,35.1867754 L54.1733812,35.1867754 L51.0091005,35.1867754 L51.0091005,32.0223272 L47.8445033,32.0223272 L47.8445033,35.1867754 L47.8445033,38.3512237 L51.0091005,38.3512237 L54.1733812,38.3512237 L54.1733812,41.515672 L51.0091005,41.515672 L51.0091005,44.6802784 L47.8445033,44.6802784 L44.6800644,44.6802784 L44.6800644,47.8445685 L44.6800644,51.0090167 L41.5156254,51.0090167 L38.3513447,51.0090167 L38.3513447,47.8445685 L35.1867475,47.8445685 L35.1867475,51.0090167 L32.0223086,51.0090167 L32.0223086,54.173465 L32.0223086,57.3379133 L32.0223086,60.5023615 L28.8578696,60.5023615 L28.8578696,63.6668098 L25.6934307,63.6668098 L25.6934307,66.8312581 L25.6934307,69.9957063 L25.6934307,73.1603128 L25.6934307,76.3246028 L25.6934307,79.4890511 L28.8578696,79.4890511 L28.8578696,76.3246028 L28.8578696,73.1603128 L32.0223086,73.1603128 L32.0223086,69.9957063 L28.8578696,69.9957063 L28.8578696,66.8312581 L32.0223086,66.8312581 L35.1867475,66.8312581 L35.1867475,69.9957063 L38.3513447,69.9957063 L38.3513447,66.8312581 L41.5156254,66.8312581 L44.6800644,66.8312581 L47.8445033,66.8312581 L51.0091005,66.8312581 L51.0091005,69.9957063 L54.1733812,69.9957063 L57.3378202,69.9957063 L60.5022591,69.9957063 L60.5022591,66.8312581 L63.6666981,66.8312581 L63.6666981,69.9957063 L66.8312953,69.9957063 L66.8312953,73.1603128 L63.6666981,73.1603128 L60.5022591,73.1603128 L57.3378202,73.1603128 L54.1733812,73.1603128 L51.0091005,73.1603128 L51.0091005,76.3246028 L54.1733812,76.3246028 L54.1733812,79.4890511 L57.3378202,79.4890511 L60.5022591,79.4890511 L63.6666981,79.4890511 L66.8312953,79.4890511 L69.995576,79.4890511 L73.160015,79.4890511 L76.3244539,79.4890511 L79.4890511,79.4890511 L79.4890511,66.8312581 L76.3244539,66.8312581 L73.160015,66.8312581 L73.160015,63.6668098 L69.995576,63.6668098 L69.995576,66.8312581 L66.8312953,66.8312581 L66.8312953,63.6668098 L69.995576,63.6668098 L69.995576,60.5023615 L66.8312953,60.5023615 L66.8312953,57.3379133 L69.995576,57.3379133 L69.995576,54.173465 L66.8312953,54.173465 L66.8312953,51.0090167 L66.8312953,47.8445685 L69.995576,47.8445685 L69.995576,44.6802784 L69.995576,41.515672 L66.8312953,41.515672 L66.8312953,44.6802784 L63.6666981,44.6802784 L63.6666981,41.515672 L66.8312953,41.515672 L66.8312953,38.3512237 L63.6666981,38.3512237 L63.6666981,35.1867754 L66.8312953,35.1867754 L69.995576,35.1867754 L69.995576,32.0223272 L66.8312953,32.0223272 L63.6666981,32.0223272 L63.6666981,28.8578789 L63.6666981,25.6934307 L60.5022591,25.6934307 Z M57.3378202,44.6802784 L60.5022591,44.6802784 L60.5022591,41.515672 L57.3378202,41.515672 L57.3378202,44.6802784 Z M54.1733812,44.6802784 L54.1733812,47.8445685 L57.3378202,47.8445685 L60.5022591,47.8445685 L60.5022591,51.0090167 L57.3378202,51.0090167 L54.1733812,51.0090167 L51.0091005,51.0090167 L51.0091005,47.8445685 L51.0091005,44.6802784 L54.1733812,44.6802784 Z M47.8445033,51.0090167 L47.8445033,54.173465 L51.0091005,54.173465 L51.0091005,57.3379133 L51.0091005,60.5023615 L51.0091005,63.6668098 L47.8445033,63.6668098 L44.6800644,63.6668098 L41.5156254,63.6668098 L38.3513447,63.6668098 L35.1867475,63.6668098 L35.1867475,60.5023615 L35.1867475,57.3379133 L38.3513447,57.3379133 L41.5156254,57.3379133 L41.5156254,60.5023615 L44.6800644,60.5023615 L47.8445033,60.5023615 L47.8445033,57.3379133 L44.6800644,57.3379133 L44.6800644,54.173465 L44.6800644,51.0090167 L47.8445033,51.0090167 Z M54.1733812,60.5023615 L54.1733812,57.3379133 L54.1733812,54.173465 L57.3378202,54.173465 L60.5022591,54.173465 L63.6666981,54.173465 L63.6666981,57.3379133 L63.6666981,60.5023615 L63.6666981,63.6668098 L60.5022591,63.6668098 L57.3378202,63.6668098 L54.1733812,63.6668098 L54.1733812,60.5023615 Z M69.995576,73.1603128 L73.160015,73.1603128 L73.160015,69.9957063 L76.3244539,69.9957063 L76.3244539,73.1603128 L76.3244539,76.3246028 L73.160015,76.3246028 L69.995576,76.3246028 L69.995576,73.1603128 Z"></path>
                    <polygon points="69.854 53.796 73.066 53.796 73.066 50.584 69.854 50.584"></polygon>
                    <polygon points="76.277 57.007 73.066 57.007 69.854 57.007 69.854 60.219 73.066 60.219 76.277 60.219 79.489 60.219 79.489 57.007"></polygon>
                    <polygon points="73.066 25.693 73.066 28.905 73.066 32.117 73.066 35.328 76.277 35.328 76.277 38.54 73.066 38.54 69.854 38.54 69.854 41.752 73.066 41.752 73.066 44.964 73.066 48.175 76.277 48.175 76.277 51.387 79.489 51.387 79.489 44.964 76.277 44.964 76.277 41.752 79.489 41.752 79.489 32.117 76.277 32.117 76.277 28.905 76.277 25.693"></polygon>
                    <path d="M57.0072993,0 L57.0072993,3.21183942 L57.0072993,6.42335766 L57.0072993,9.6350365 L57.0072993,12.8467153 L57.0072993,16.0585547 L57.0072993,19.2702336 L57.0072993,22.4817518 L60.2189781,22.4817518 L63.4306569,22.4817518 L66.6423358,22.4817518 L69.8540146,22.4817518 L73.0656934,22.4817518 L76.2773723,22.4817518 L79.4890511,22.4817518 L79.4890511,0 L57.0072993,0 Z M60.2189781,16.0585547 L60.2189781,12.8467153 L60.2189781,9.6350365 L60.2189781,6.42335766 L60.2189781,3.21183942 L63.4306569,3.21183942 L66.6423358,3.21183942 L69.8540146,3.21183942 L73.0656934,3.21183942 L76.2773723,3.21183942 L76.2773723,6.42335766 L76.2773723,9.6350365 L76.2773723,12.8467153 L76.2773723,16.0585547 L76.2773723,19.2702336 L73.0656934,19.2702336 L69.8540146,19.2702336 L66.6423358,19.2702336 L63.4306569,19.2702336 L60.2189781,19.2702336 L60.2189781,16.0585547 Z"></path>
                </g>
                <polygon id="Shape" fill="#FFFFFF" fill-rule="nonzero" opacity="0.4" transform="translate(192.699500, 121.423500) rotate(90.000000) translate(-192.699500, -121.423500) " points="192.7 118.212 197.517 124.635 187.882 124.635"></polygon>
                <polygon id="Shape" fill="#FFFFFF" fill-rule="nonzero" opacity="0.4" transform="translate(38.540500, 121.422500) rotate(-90.000000) translate(-38.540500, -121.422500) " points="38.54 118.211 43.358 124.634 33.723 124.634"></polygon>
                <rect id="Rectangle-path" fill="#FFFFFF" fill-rule="nonzero" opacity="0.4" x="92.336" y="87.518" width="48.175" height="9.635" rx="4.8175"></rect>
                <rect id="Rectangle-path" fill="#FFFFFF" fill-rule="nonzero" x="80.292" y="115" width="72.263" height="4.818" rx="2.409"></rect>
                <rect id="Rectangle-path" fill="#FFFFFF" fill-rule="nonzero" opacity="0.4" x="90.292" y="125.029" width="52.26" height="4.818" rx="2.409"></rect>
            </g>
            <g id="Group" transform="translate(0.856000, 0.324000)">
                <g fill-rule="nonzero">
                    <g id="home_client-h-link" fill="#000000">
                        <path d="M28.4224329,0 L806.27244,0 C821.969716,0 834.694873,12.7266141 834.694873,28.4224318 L834.694873,542.815791 C834.694873,558.513067 821.96711,571.238223 806.27244,571.238223 L28.4224329,571.238223 C12.7251567,571.238223 0,558.511609 0,542.815791 L0,28.4224318 C0,12.7251562 12.7277631,0 28.4224329,0 Z" id="home_client-h"></path>
                    </g>
                    <g id="home_client-h-link" fill="#FFFFFF">
                        <path d="M28.4224329,0 L806.27244,0 C821.969716,0 834.694873,12.7266141 834.694873,28.4224318 L834.694873,542.815791 C834.694873,558.513067 821.96711,571.238223 806.27244,571.238223 L28.4224329,571.238223 C12.7251567,571.238223 0,558.511609 0,542.815791 L0,28.4224318 C0,12.7251562 12.7277631,0 28.4224329,0 Z" id="home_client-h"></path>
                    </g>
                    <g id="home_client-h-link">
                        <g id="home_client-h">
                            <use fill="black" fill-opacity="1" filter="url(#filter-7)" xlink:href="#path-6"></use>
                            <use fill="#FFFFFF" fill-rule="evenodd" xlink:href="#path-6"></use>
                        </g>
                    </g>
                    <path d="M636.513642,115.323593 C637.612496,115.323593 638.503294,114.432795 638.503294,113.333941 C638.503294,112.235086 637.612496,111.344288 636.513642,111.344288 C635.414787,111.344288 634.523989,112.235086 634.523989,113.333941 C634.523989,114.432795 635.414787,115.323593 636.513642,115.323593 Z" id="Shape" fill="url(#linearGradient-5)" style="mix-blend-mode: multiply;"></path>
                </g>
                <path d="M74.8394161,61.0218978 L756.941606,61.0218978 C758.59846,61.0218978 759.941606,62.3650436 759.941606,64.0218978 L759.941606,114.226277 C759.941606,115.883132 758.59846,117.226277 756.941606,117.226277 L74.8394161,117.226277 C73.1825618,117.226277 71.8394161,115.883132 71.8394161,114.226277 L71.8394161,64.0218978 C71.8394161,62.3650436 73.1825618,61.0218978 74.8394161,61.0218978 Z" id="Shape" fill="#3F46AD" fill-rule="nonzero" opacity="0.8"></path>
                <path d="M74.8394161,287.445255 L756.941606,287.445255 L756.941606,287.445255 C758.59846,287.445255 759.941606,288.788401 759.941606,290.445255 L759.941606,316.562044 L759.941606,316.562044 C759.941606,318.218898 758.59846,319.562044 756.941606,319.562044 L74.8394161,319.562044 L74.8394161,319.562044 C73.1825618,319.562044 71.8394161,318.218898 71.8394161,316.562044 L71.8394161,290.445255 L71.8394161,290.445255 C71.8394161,288.788401 73.1825618,287.445255 74.8394161,287.445255 Z" id="Shape" fill="#263F6F" fill-rule="nonzero" opacity="0.3"></path>
                <polygon id="Shape" fill="#DFE4EE" fill-rule="nonzero" opacity="0.5" points="71.839 351.679 759.942 351.679 759.942 352.482 71.839 352.482"></polygon>
                <polygon id="Shape" fill="#DFE4EE" fill-rule="nonzero" opacity="0.5" points="71.839 383.796 759.942 383.796 759.942 384.599 71.839 384.599"></polygon>
                <polygon id="Shape" fill="#DFE4EE" fill-rule="nonzero" opacity="0.5" points="71.839 415.912 759.942 415.912 759.942 416.715 71.839 416.715"></polygon>
                <polygon id="Shape" fill="#DFE4EE" fill-rule="nonzero" opacity="0.5" points="71.839 448.029 759.942 448.029 759.942 448.832 71.839 448.832"></polygon>
                <polygon id="Shape" fill="#DFE4EE" fill-rule="nonzero" opacity="0.5" points="71.839 480.146 759.942 480.146 759.942 480.949 71.839 480.949"></polygon>
                <polygon id="Shape" fill="#DFE4EE" fill-rule="nonzero" opacity="0.5" points="71.839 512.263 759.942 512.263 759.942 513.066 71.839 513.066"></polygon>
                <g id="Group-18" transform="translate(86.000000, 160.000000)" fill="#656BBD">
                    <path d="M11.5129886,17.0019884 C8.37875169,14.3034466 8.45044992,11.3808749 11.9329353,8.65178356 L13.1518052,7.8065799 C14.0838822,7.14467342 15.6510006,5.73939503 15.6510006,4.30356712 C15.6510006,3.91660641 15.9685214,3.61111111 16.3577403,3.61111111 C16.7367167,3.61111111 17.0542374,3.91660641 17.0542374,4.30356712 C17.0542374,6.22818752 15.4051781,7.82694625 14.3604325,8.65178356 L13.1415626,9.49698723 C9.95611273,11.7780188 10.1097518,13.6720897 12.0148762,15.5559773 C12.2504561,15.7800072 12.486036,15.9938539 12.7011306,16.1567848 L11.5846868,16.9408894 L11.5129886,17.0019884 Z M14.3706751,17.3380333 C17.7609771,14.6802242 17.9760718,11.7576524 14.8111071,9.01837792 L14.7086811,9.09984334 L13.622965,9.85339841 C16.3270125,11.9816823 16.08119,13.7739214 14.2784917,15.5559773 C13.8687875,15.9633044 13.4385981,16.2891661 13.1518052,16.4928296 L11.9431779,17.3380333 C10.8881897,18.1628706 9.23913044,19.7616293 9.23913044,21.6862497 C9.23913044,22.0732104 9.55665117,22.3888889 9.94587012,22.3888889 C10.3350891,22.3888889 10.6526098,22.0732104 10.6526098,21.6862497 C10.6526098,20.3318872 12.045604,18.9775247 13.1518052,18.1832369 L14.3706751,17.3380333 Z M12.6704028,7.45016872 C11.7588111,6.70679682 10.6526098,5.51536515 10.6526098,4.30356712 C10.6526098,3.91660641 10.3350891,3.61111111 9.94587012,3.61111111 C9.55665117,3.61111111 9.23913044,3.91660641 9.23913044,4.30356712 C9.23913044,5.9736081 10.4784855,7.38906966 11.4822607,8.27500603 L11.5744442,8.20372379 L12.6704028,7.45016872 Z M14.8315923,17.7351772 C15.8456101,18.6312967 17.0542374,20.0365751 17.0542374,21.6862497 C17.0542374,22.0732104 16.7367167,22.3888889 16.3577403,22.3888889 C15.9685214,22.3888889 15.6510006,22.0732104 15.6510006,21.6862497 C15.6510006,20.5355507 14.6369828,19.3848518 13.6536928,18.5701976 L14.7189237,17.8268257 L14.8315923,17.7351772 Z" id="Shape"></path>
                    <path d="M12.7914439,2.88888889 C15.5356241,2.88888889 18.0203546,4.01459935 19.8265241,5.85021732 C21.6227148,7.67569375 22.7403446,10.2009361 22.7403446,13 C22.7403446,15.7889223 21.6227148,18.3141647 19.8265241,20.1497827 C18.0203546,21.9752591 15.5356241,23.1111111 12.7914439,23.1111111 C10.0372848,23.1111111 7.55255428,21.9752591 5.75636356,20.1497827 C3.95019402,18.3141647 2.84254308,15.7889223 2.84254308,13 C2.84254308,10.2009361 3.95019402,7.67569375 5.75636356,5.85021732 C7.55255428,4.01459935 10.0372848,2.88888889 12.7914439,2.88888889 Z M19.1679209,6.50941714 C17.5313916,4.85634682 15.2761743,3.82191017 12.7914439,3.82191017 C10.2967345,3.82191017 8.0415173,4.85634682 6.40498799,6.50941714 C4.77843751,8.172629 3.76059611,10.4646161 3.76059611,13 C3.76059611,15.5252424 4.77843751,17.8172295 6.40498799,19.4804413 C8.0415173,21.1436532 10.2967345,22.1679483 12.7914439,22.1679483 C15.2761743,22.1679483 17.5313916,21.1436532 19.1679209,19.4804413 C20.8044502,17.8172295 21.8123128,15.5252424 21.8123128,13 C21.8123128,10.4646161 20.8044502,8.172629 19.1679209,6.50941714 Z" id="Shape" fill-rule="nonzero"></path>
                    <path d="M12.7964308,0 C14.5219043,0 16.177561,0.354775828 17.6836101,0.983235867 C19.2495022,1.64210526 20.655813,2.60506823 21.8426994,3.81130604 C23.019612,5.00740741 23.9671264,6.43664717 24.6154257,8.02807018 C25.2437773,9.55867446 25.5828877,11.2413255 25.5828877,13.0050682 C25.5828877,14.7586745 25.2437773,16.4413255 24.6154257,17.9719298 C23.9671264,19.5633528 23.019612,20.9925926 21.8426994,22.1988304 C20.655813,23.3949318 19.2495022,24.3578947 17.6836101,25.0167641 C16.177561,25.6553606 14.5219043,26 12.7964308,26 C11.0609834,26 9.40532675,25.6553606 7.89927761,25.0167641 C6.33338545,24.3578947 4.92707467,23.3949318 3.7501621,22.1988304 C2.56327569,20.9925926 1.61576133,19.5633528 0.96746203,17.9719298 C0.349084238,16.4413255 0,14.7586745 0,13.0050682 C0,11.2413255 0.349084238,9.55867446 0.96746203,8.02807018 C1.61576133,6.43664717 2.56327569,5.00740741 3.7501621,3.81130604 C4.92707467,2.60506823 6.33338545,1.64210526 7.89927761,0.983235867 C9.40532675,0.354775828 11.0609834,0 12.7964308,0 Z M21.0747141,4.58167641 C19.9975399,3.48693957 18.7009413,2.60506823 17.2746828,1.99688109 C15.8883197,1.41910331 14.3822706,1.09473684 12.7964308,1.09473684 C11.2105909,1.09473684 9.69456797,1.41910331 8.31817869,1.99688109 C6.8819464,2.60506823 5.59532164,3.48693957 4.50817358,4.58167641 C3.43099936,5.68654971 2.56327569,6.99415205 1.96484557,8.45380117 C1.39633695,9.85263158 1.07717422,11.3933723 1.07717422,13.0050682 C1.07717422,14.6167641 1.39633695,16.1473684 1.96484557,17.5563353 C2.56327569,19.005848 3.43099936,20.3235867 4.50817358,21.4183236 C5.59532164,22.5130604 6.8819464,23.4050682 8.31817869,24.0031189 C9.69456797,24.5808967 11.2105909,24.9052632 12.7964308,24.9052632 C14.3822706,24.9052632 15.8883197,24.5808967 17.2746828,24.0031189 C18.7009413,23.4050682 19.9975399,22.5130604 21.0747141,21.4183236 C22.1518883,20.3235867 23.0295858,19.005848 23.6180421,17.5563353 C24.1865508,16.1473684 24.5057135,14.6167641 24.5057135,13.0050682 C24.5057135,11.3933723 24.1865508,9.85263158 23.6180421,8.45380117 C23.0295858,6.99415205 22.1518883,5.68654971 21.0747141,4.58167641 Z" id="Shape" fill-rule="nonzero"></path>
                </g>
                <path d="M86.080292,218.394161 L113.80292,218.394161 L113.80292,218.394161 C115.459774,218.394161 116.80292,219.737306 116.80292,221.394161 L116.80292,232.255474 L116.80292,232.255474 C116.80292,233.912329 115.459774,235.255474 113.80292,235.255474 L86.080292,235.255474 L86.080292,235.255474 C84.4234377,235.255474 83.080292,233.912329 83.080292,232.255474 L83.080292,221.394161 L83.080292,221.394161 C83.080292,219.737306 84.4234377,218.394161 86.080292,218.394161 Z M159.948905,218.394161 L187.671533,218.394161 L187.671533,218.394161 C189.328387,218.394161 190.671533,219.737306 190.671533,221.394161 L190.671533,232.255474 L190.671533,232.255474 C190.671533,233.912329 189.328387,235.255474 187.671533,235.255474 L159.948905,235.255474 L159.948905,235.255474 C158.292051,235.255474 156.948905,233.912329 156.948905,232.255474 L156.948905,221.394161 L156.948905,221.394161 C156.948905,219.737306 158.292051,218.394161 159.948905,218.394161 Z M123.014599,218.394161 L150.737226,218.394161 L150.737226,218.394161 C152.394081,218.394161 153.737226,219.737306 153.737226,221.394161 L153.737226,232.255474 L153.737226,232.255474 C153.737226,233.912329 152.394081,235.255474 150.737226,235.255474 L123.014599,235.255474 L123.014599,235.255474 C121.357744,235.255474 120.014599,233.912329 120.014599,232.255474 L120.014599,221.394161 L120.014599,221.394161 C120.014599,219.737306 121.357744,218.394161 123.014599,218.394161 Z" id="Shape" fill="#DFE4EE" fill-rule="nonzero"></path>
                <path d="M319.138686,74.6715328 L512.761519,74.6715328" id="Shape" stroke="#FFFFFF" stroke-width="6" opacity="0.4" stroke-linecap="round"></path>
                <path d="M326.364964,335.620438 L337.611534,335.620438" id="Shape" stroke="#DFE4EE" stroke-width="6" stroke-linecap="round"></path>
                <path d="M75.0510949,335.620438 L107.976497,335.620438" id="Shape" stroke="#263F6F" stroke-width="6" opacity="0.3" stroke-linecap="round"></path>
                <path d="M121.620438,335.620438 L152.940001,335.620438" id="Shape" stroke="#DFE4EE" stroke-width="6" stroke-linecap="round"></path>
                <path d="M75.0510949,367.737226 L107.976497,367.737226" id="Shape" stroke="#263F6F" stroke-width="6" opacity="0.3" stroke-linecap="round"></path>
                <path d="M121.620438,367.737226 L152.940001,367.737226" id="Shape" stroke="#DFE4EE" stroke-width="6" stroke-linecap="round"></path>
                <path d="M75.0510949,399.854015 L107.976497,399.854015" id="Shape" stroke="#263F6F" stroke-width="6" opacity="0.3" stroke-linecap="round"></path>
                <path d="M121.620438,399.854015 L152.940001,399.854015" id="Shape" stroke="#DFE4EE" stroke-width="6" stroke-linecap="round"></path>
                <path d="M75.0510949,431.970803 L107.976497,431.970803" id="Shape" stroke="#263F6F" stroke-width="6" opacity="0.3" stroke-linecap="round"></path>
                <path d="M121.620438,431.970803 L152.940001,431.970803" id="Shape" stroke="#DFE4EE" stroke-width="6" stroke-linecap="round"></path>
                <path d="M75.0510949,464.087591 L107.976497,464.087591" id="Shape" stroke="#263F6F" stroke-width="6" opacity="0.3" stroke-linecap="round"></path>
                <path d="M121.620438,464.087591 L152.940001,464.087591" id="Shape" stroke="#DFE4EE" stroke-width="6" stroke-linecap="round"></path>
                <path d="M75.0510949,496.20438 L107.976497,496.20438" id="Shape" stroke="#263F6F" stroke-width="6" opacity="0.3" stroke-linecap="round"></path>
                <path d="M121.620438,496.20438 L152.940001,496.20438 M274.978102,335.620438 L304.691826,335.620438 M173.810219,335.620438 L253.304964,335.620438 M612.20438,335.620438 L641.918103,335.620438" id="Shape" stroke="#DFE4EE" stroke-width="6" stroke-linecap="round"></path>
                <path d="M661.985401,335.620438 L691.699125,335.620438" id="Shape" stroke="#263F6F" stroke-width="6" opacity="0.3" stroke-linecap="round"></path>
                <path d="M470.890511,335.620438 L482.137081,335.620438" id="Shape" stroke="#DFE4EE" stroke-width="6" stroke-linecap="round"></path>
                <path d="M146.510949,168.613139 L189.874308,168.613139" id="Shape" stroke="#263F6F" stroke-width="6" opacity="0.3" stroke-linecap="round"></path>
                <path d="M162.569343,179.051095 L189.874308,179.051095" id="Shape" stroke="#DFE4EE" stroke-width="6" stroke-linecap="round"></path>
                <g transform="translate(315.927000, 86.715000)" id="Oval" fill-rule="nonzero" fill="#FFFFFF">
                    <circle cx="10.149" cy="10.149" r="10.149"></circle>
                    <circle opacity="0.4" cx="40.221" cy="10.149" r="10.149"></circle>
                    <circle opacity="0.4" cx="70.293" cy="10.149" r="10.149"></circle>
                    <circle opacity="0.4" cx="100.365" cy="10.149" r="10.149"></circle>
                    <circle opacity="0.4" cx="130.437" cy="10.149" r="10.149"></circle>
                    <circle opacity="0.4" cx="160.509" cy="10.149" r="10.149"></circle>
                    <circle opacity="0.4" cx="190.581" cy="10.149" r="10.149"></circle>
                </g>
                <circle id="Oval" fill="#FFFFFF" fill-rule="nonzero" opacity="0.4" cx="743.883" cy="77.08" r="6.423"></circle>
                <circle id="Oval" fill="#263F6F" fill-rule="nonzero" opacity="0.3" cx="743.883" cy="335.62" r="6.423"></circle>
                <path d="M326.364964,367.737226 L450.020293,367.737226" id="Shape" stroke="#263F6F" stroke-width="6" opacity="0.3" stroke-linecap="round"></path>
                <path d="M274.978102,367.737226 L304.691826,367.737226 M173.810219,367.737226 L229.217373,367.737226 M612.20438,367.737226 L641.918103,367.737226 M661.985401,367.737226 L691.699125,367.737226 M470.890511,367.737226 L482.137081,367.737226" id="Shape" stroke="#DFE4EE" stroke-width="6" stroke-linecap="round"></path>
                <circle id="Oval" fill="#263F6F" fill-rule="nonzero" opacity="0.3" cx="743.883" cy="367.737" r="6.423"></circle>
                <path d="M326.364964,399.854015 L337.611534,399.854015 M274.978102,399.854015 L304.691826,399.854015 M173.810219,399.854015 L253.304964,399.854015" id="Shape" stroke="#DFE4EE" stroke-width="6" stroke-linecap="round"></path>
                <path d="M612.20438,399.854015 L641.918103,399.854015" id="Shape" stroke="#263F6F" stroke-width="6" opacity="0.3" stroke-linecap="round"></path>
                <path d="M661.985401,399.854015 L691.699125,399.854015 M470.890511,399.854015 L482.137081,399.854015" id="Shape" stroke="#DFE4EE" stroke-width="6" stroke-linecap="round"></path>
                <circle id="Oval" fill="#263F6F" fill-rule="nonzero" opacity="0.3" cx="743.883" cy="399.854" r="6.423"></circle>
                <path d="M326.364964,431.970803 L337.611534,431.970803 M274.978102,431.970803 L304.691826,431.970803 M173.810219,431.970803 L205.129782,431.970803 M612.20438,431.970803 L641.918103,431.970803" id="Shape" stroke="#DFE4EE" stroke-width="6" stroke-linecap="round"></path>
                <path d="M661.985401,431.970803 L691.699125,431.970803 M470.890511,431.970803 L594.54584,431.970803" id="Shape" stroke="#263F6F" stroke-width="6" opacity="0.3" stroke-linecap="round"></path>
                <circle id="Oval" fill="#263F6F" fill-rule="nonzero" opacity="0.3" cx="743.883" cy="431.971" r="6.423"></circle>
                <path d="M326.364964,464.087591 L450.020293,464.087591" id="Shape" stroke="#263F6F" stroke-width="6" opacity="0.3" stroke-linecap="round"></path>
                <path d="M274.978102,464.087591 L304.691826,464.087591 M173.810219,464.087591 L253.304964,464.087591 M612.20438,464.087591 L641.918103,464.087591 M661.985401,464.087591 L691.699125,464.087591 M470.890511,464.087591 L482.137081,464.087591" id="Shape" stroke="#DFE4EE" stroke-width="6" stroke-linecap="round"></path>
                <circle id="Oval" fill="#263F6F" fill-rule="nonzero" opacity="0.3" cx="743.883" cy="464.088" r="6.423"></circle>
                <path d="M326.364964,496.20438 L450.020293,496.20438" id="Shape" stroke="#263F6F" stroke-width="6" opacity="0.3" stroke-linecap="round"></path>
                <path d="M274.978102,496.20438 L304.691826,496.20438 M173.810219,496.20438 L253.304964,496.20438 M612.20438,496.20438 L641.918103,496.20438" id="Shape" stroke="#DFE4EE" stroke-width="6" stroke-linecap="round"></path>
                <path d="M661.985401,496.20438 L691.699125,496.20438" id="Shape" stroke="#263F6F" stroke-width="6" opacity="0.3" stroke-linecap="round"></path>
                <path d="M470.890511,496.20438 L482.137081,496.20438" id="Shape" stroke="#DFE4EE" stroke-width="6" stroke-linecap="round"></path>
                <circle id="Oval" fill="#263F6F" fill-rule="nonzero" opacity="0.3" cx="743.883" cy="496.204" r="6.423"></circle>
                <circle id="Oval" fill="#FFFFFF" fill-rule="nonzero" opacity="0.4" cx="718.993" cy="77.08" r="6.423"></circle>
                <circle id="Oval" fill="#FFFFFF" fill-rule="nonzero" opacity="0.4" cx="693.299" cy="77.08" r="6.423"></circle>
                <circle id="Oval" fill="#FFFFFF" fill-rule="nonzero" opacity="0.4" cx="668.81" cy="76.679" r="6.022"></circle>
                <path d="M86.0364964,141.813869 C78.0283675,141.813869 71.5364964,148.30574 71.5364964,156.313869 L71.5364964,232.298613 C71.5364964,240.306742 78.0283675,246.798613 86.0364964,246.798613 L187.715328,246.798613 C195.723457,246.798613 202.215328,240.306742 202.215328,232.298613 L202.215328,156.313869 C202.215328,148.30574 195.723457,141.813869 187.715328,141.813869 L86.0364964,141.813869 Z" id="Shape" stroke="#DFE4EE" opacity="0.5"></path>
                <path d="M224.182482,218.394161 L251.905109,218.394161 L251.905109,218.394161 C253.561964,218.394161 254.905109,219.737306 254.905109,221.394161 L254.905109,232.255474 L254.905109,232.255474 C254.905109,233.912329 253.561964,235.255474 251.905109,235.255474 L224.182482,235.255474 L224.182482,235.255474 C222.525628,235.255474 221.182482,233.912329 221.182482,232.255474 L221.182482,221.394161 L221.182482,221.394161 C221.182482,219.737306 222.525628,218.394161 224.182482,218.394161 Z M298.051095,218.394161 L325.773723,218.394161 L325.773723,218.394161 C327.430577,218.394161 328.773723,219.737306 328.773723,221.394161 L328.773723,232.255474 L328.773723,232.255474 C328.773723,233.912329 327.430577,235.255474 325.773723,235.255474 L298.051095,235.255474 L298.051095,235.255474 C296.394241,235.255474 295.051095,233.912329 295.051095,232.255474 L295.051095,221.394161 L295.051095,221.394161 C295.051095,219.737306 296.394241,218.394161 298.051095,218.394161 Z M261.116788,218.394161 L288.839416,218.394161 L288.839416,218.394161 C290.49627,218.394161 291.839416,219.737306 291.839416,221.394161 L291.839416,232.255474 L291.839416,232.255474 C291.839416,233.912329 290.49627,235.255474 288.839416,235.255474 L261.116788,235.255474 L261.116788,235.255474 C259.459934,235.255474 258.116788,233.912329 258.116788,232.255474 L258.116788,221.394161 L258.116788,221.394161 C258.116788,219.737306 259.459934,218.394161 261.116788,218.394161 Z" id="Shape" fill="#DFE4EE" fill-rule="nonzero"></path>
                <path d="M284.613139,168.613139 L327.976497,168.613139" id="Shape" stroke="#263F6F" stroke-width="6" opacity="0.3" stroke-linecap="round"></path>
                <path d="M300.671533,179.051095 L327.976497,179.051095" id="Shape" stroke="#DFE4EE" stroke-width="6" stroke-linecap="round"></path>
                <path d="M224.138686,141.813869 C216.130557,141.813869 209.638686,148.30574 209.638686,156.313869 L209.638686,232.298613 C209.638686,240.306742 216.130557,246.798613 224.138686,246.798613 L325.817518,246.798613 C333.825647,246.798613 340.317518,240.306742 340.317518,232.298613 L340.317518,156.313869 C340.317518,148.30574 333.825647,141.813869 325.817518,141.813869 L224.138686,141.813869 Z" id="Shape" stroke="#DFE4EE" opacity="0.5"></path>
                <path d="M363.087591,218.394161 L390.810219,218.394161 L390.810219,218.394161 C392.467073,218.394161 393.810219,219.737306 393.810219,221.394161 L393.810219,232.255474 L393.810219,232.255474 C393.810219,233.912329 392.467073,235.255474 390.810219,235.255474 L363.087591,235.255474 L363.087591,235.255474 C361.430737,235.255474 360.087591,233.912329 360.087591,232.255474 L360.087591,221.394161 L360.087591,221.394161 C360.087591,219.737306 361.430737,218.394161 363.087591,218.394161 Z M436.956204,218.394161 L464.678832,218.394161 L464.678832,218.394161 C466.335686,218.394161 467.678832,219.737306 467.678832,221.394161 L467.678832,232.255474 L467.678832,232.255474 C467.678832,233.912329 466.335686,235.255474 464.678832,235.255474 L436.956204,235.255474 L436.956204,235.255474 C435.29935,235.255474 433.956204,233.912329 433.956204,232.255474 L433.956204,221.394161 L433.956204,221.394161 C433.956204,219.737306 435.29935,218.394161 436.956204,218.394161 Z M400.021898,218.394161 L427.744526,218.394161 L427.744526,218.394161 C429.40138,218.394161 430.744526,219.737306 430.744526,221.394161 L430.744526,232.255474 L430.744526,232.255474 C430.744526,233.912329 429.40138,235.255474 427.744526,235.255474 L400.021898,235.255474 L400.021898,235.255474 C398.365044,235.255474 397.021898,233.912329 397.021898,232.255474 L397.021898,221.394161 L397.021898,221.394161 C397.021898,219.737306 398.365044,218.394161 400.021898,218.394161 Z" id="Shape" fill="#DFE4EE" fill-rule="nonzero"></path>
                <path d="M423.518248,168.613139 L466.881607,168.613139" id="Shape" stroke="#263F6F" stroke-width="6" opacity="0.3" stroke-linecap="round"></path>
                <path d="M439.576642,179.051095 L466.881607,179.051095" id="Shape" stroke="#DFE4EE" stroke-width="6" stroke-linecap="round"></path>
                <path d="M363.043796,141.813869 C355.035667,141.813869 348.543796,148.30574 348.543796,156.313869 L348.543796,232.298613 C348.543796,240.306742 355.035667,246.798613 363.043796,246.798613 L464.722628,246.798613 C472.730757,246.798613 479.222628,240.306742 479.222628,232.298613 L479.222628,156.313869 C479.222628,148.30574 472.730757,141.813869 464.722628,141.813869 L363.043796,141.813869 Z" id="Shape" stroke="#DFE4EE" opacity="0.5"></path>
                <path d="M501.992701,218.394161 L529.715328,218.394161 L529.715328,218.394161 C531.372183,218.394161 532.715328,219.737306 532.715328,221.394161 L532.715328,232.255474 L532.715328,232.255474 C532.715328,233.912329 531.372183,235.255474 529.715328,235.255474 L501.992701,235.255474 L501.992701,235.255474 C500.335846,235.255474 498.992701,233.912329 498.992701,232.255474 L498.992701,221.394161 L498.992701,221.394161 C498.992701,219.737306 500.335846,218.394161 501.992701,218.394161 Z M575.861314,218.394161 L603.583942,218.394161 L603.583942,218.394161 C605.240796,218.394161 606.583942,219.737306 606.583942,221.394161 L606.583942,232.255474 L606.583942,232.255474 C606.583942,233.912329 605.240796,235.255474 603.583942,235.255474 L575.861314,235.255474 L575.861314,235.255474 C574.20446,235.255474 572.861314,233.912329 572.861314,232.255474 L572.861314,221.394161 L572.861314,221.394161 C572.861314,219.737306 574.20446,218.394161 575.861314,218.394161 Z M538.927007,218.394161 L566.649635,218.394161 L566.649635,218.394161 C568.306489,218.394161 569.649635,219.737306 569.649635,221.394161 L569.649635,232.255474 L569.649635,232.255474 C569.649635,233.912329 568.306489,235.255474 566.649635,235.255474 L538.927007,235.255474 L538.927007,235.255474 C537.270153,235.255474 535.927007,233.912329 535.927007,232.255474 L535.927007,221.394161 L535.927007,221.394161 C535.927007,219.737306 537.270153,218.394161 538.927007,218.394161 Z" id="Shape" fill="#DFE4EE" fill-rule="nonzero"></path>
                <path d="M562.423358,168.613139 L605.786716,168.613139" id="Shape" stroke="#263F6F" stroke-width="6" opacity="0.3" stroke-linecap="round"></path>
                <path d="M578.481752,179.051095 L605.786716,179.051095" id="Shape" stroke="#DFE4EE" stroke-width="6" stroke-linecap="round"></path>
                <path d="M501.948905,141.813869 C493.940776,141.813869 487.448905,148.30574 487.448905,156.313869 L487.448905,232.298613 C487.448905,240.306742 493.940776,246.798613 501.948905,246.798613 L603.627737,246.798613 C611.635866,246.798613 618.127737,240.306742 618.127737,232.298613 L618.127737,156.313869 C618.127737,148.30574 611.635866,141.813869 603.627737,141.813869 L501.948905,141.813869 Z" id="Shape" stroke="#DFE4EE" opacity="0.5"></path>
                <path d="M640.89781,218.394161 L668.620438,218.394161 L668.620438,218.394161 C670.277292,218.394161 671.620438,219.737306 671.620438,221.394161 L671.620438,232.255474 L671.620438,232.255474 C671.620438,233.912329 670.277292,235.255474 668.620438,235.255474 L640.89781,235.255474 L640.89781,235.255474 C639.240956,235.255474 637.89781,233.912329 637.89781,232.255474 L637.89781,221.394161 L637.89781,221.394161 C637.89781,219.737306 639.240956,218.394161 640.89781,218.394161 Z M714.766423,218.394161 L742.489051,218.394161 L742.489051,218.394161 C744.145905,218.394161 745.489051,219.737306 745.489051,221.394161 L745.489051,232.255474 L745.489051,232.255474 C745.489051,233.912329 744.145905,235.255474 742.489051,235.255474 L714.766423,235.255474 L714.766423,235.255474 C713.109569,235.255474 711.766423,233.912329 711.766423,232.255474 L711.766423,221.394161 L711.766423,221.394161 C711.766423,219.737306 713.109569,218.394161 714.766423,218.394161 Z M677.832117,218.394161 L705.554745,218.394161 L705.554745,218.394161 C707.211599,218.394161 708.554745,219.737306 708.554745,221.394161 L708.554745,232.255474 L708.554745,232.255474 C708.554745,233.912329 707.211599,235.255474 705.554745,235.255474 L677.832117,235.255474 L677.832117,235.255474 C676.175263,235.255474 674.832117,233.912329 674.832117,232.255474 L674.832117,221.394161 L674.832117,221.394161 C674.832117,219.737306 676.175263,218.394161 677.832117,218.394161 Z" id="Shape" fill="#4F89DC" fill-rule="nonzero"></path>
                <path d="M701.328467,168.613139 L744.691826,168.613139 M717.386861,179.051095 L744.691826,179.051095" id="Shape" stroke="#DFE4EE" stroke-width="6" stroke-linecap="round"></path>
                <path d="M640.854015,141.813869 C632.845886,141.813869 626.354015,148.30574 626.354015,156.313869 L626.354015,232.298613 C626.354015,240.306742 632.845886,246.798613 640.854015,246.798613 L742.532847,246.798613 C750.540976,246.798613 757.032847,240.306742 757.032847,232.298613 L757.032847,156.313869 C757.032847,148.30574 750.540976,141.813869 742.532847,141.813869 L640.854015,141.813869 Z" id="Shape" stroke="#DFE4EE" opacity="0.5"></path>
                <path d="M640.89781,218.394161 L668.620438,218.394161 L668.620438,218.394161 C670.277292,218.394161 671.620438,219.737306 671.620438,221.394161 L671.620438,232.255474 L671.620438,232.255474 C671.620438,233.912329 670.277292,235.255474 668.620438,235.255474 L640.89781,235.255474 L640.89781,235.255474 C639.240956,235.255474 637.89781,233.912329 637.89781,232.255474 L637.89781,221.394161 L637.89781,221.394161 C637.89781,219.737306 639.240956,218.394161 640.89781,218.394161 Z M714.766423,218.394161 L742.489051,218.394161 L742.489051,218.394161 C744.145905,218.394161 745.489051,219.737306 745.489051,221.394161 L745.489051,232.255474 L745.489051,232.255474 C745.489051,233.912329 744.145905,235.255474 742.489051,235.255474 L714.766423,235.255474 L714.766423,235.255474 C713.109569,235.255474 711.766423,233.912329 711.766423,232.255474 L711.766423,221.394161 L711.766423,221.394161 C711.766423,219.737306 713.109569,218.394161 714.766423,218.394161 Z M677.832117,218.394161 L705.554745,218.394161 L705.554745,218.394161 C707.211599,218.394161 708.554745,219.737306 708.554745,221.394161 L708.554745,232.255474 L708.554745,232.255474 C708.554745,233.912329 707.211599,235.255474 705.554745,235.255474 L677.832117,235.255474 L677.832117,235.255474 C676.175263,235.255474 674.832117,233.912329 674.832117,232.255474 L674.832117,221.394161 L674.832117,221.394161 C674.832117,219.737306 676.175263,218.394161 677.832117,218.394161 Z" id="Shape" fill="#DFE4EE" fill-rule="nonzero"></path>
                <path d="M701.328467,168.613139 L744.691826,168.613139" id="Shape" stroke="#263F6F" stroke-width="6" opacity="0.2" stroke-linecap="round"></path>
                <path d="M717.386861,179.051095 L744.691826,179.051095" id="Shape" stroke="#DFE4EE" stroke-width="6" opacity="0.4" stroke-linecap="round"></path>
                <path d="M640.854015,141.813869 C632.845886,141.813869 626.354015,148.30574 626.354015,156.313869 L626.354015,232.298613 C626.354015,240.306742 632.845886,246.798613 640.854015,246.798613 L742.532847,246.798613 C750.540976,246.798613 757.032847,240.306742 757.032847,232.298613 L757.032847,156.313869 C757.032847,148.30574 750.540976,141.813869 742.532847,141.813869 L640.854015,141.813869 Z" id="Shape" stroke="#DFE4EE" opacity="0.5"></path>
                <g id="logo-celixir-non_responsive" transform="translate(221.000000, 158.176000)" fill-rule="nonzero">
                    <g id="Group">
                        <path d="M0.54375,18.30625 C-1.595,10.62125 2.9,2.6825 10.54875,0.54375 C18.1975,-1.595 26.1725,2.9 28.31125,10.54875 C30.45,18.1975 25.955,26.1725 18.30625,28.31125 C10.6575,30.45 2.6825,25.955 0.54375,18.30625 Z M18.01625,27.3325 C25.1575,25.33875 29.32625,17.94375 27.3325,10.8025 C25.33875,3.6975 17.94375,-0.47125 10.8025,1.5225 C3.66125,3.51625 -0.47125,10.91125 1.5225,18.01625 C3.51625,25.12125 10.91125,29.32625 18.01625,27.3325 Z" id="Shape" fill="#555759"></path>
                        <path d="M24.1425,5.945 C20.98875,2.32 15.91375,0.61625 10.9475,1.99375 C6.56125,3.22625 3.335,6.56125 2.1025,10.62125 C9.86,15.66 19.82875,9.53375 24.1425,5.945 Z" id="Shape" fill="#99252C"></path>
                        <path d="M1.595,13.08625 C1.45,14.645 1.55875,16.27625 1.99375,17.87125 C2.6825,20.40875 4.1325,22.5475 5.945,24.1425 C8.01125,17.00125 3.9875,14.68125 1.595,13.08625 Z" id="Shape" fill="#99252C"></path>
                        <path d="M15.47875,13.775 C15.47875,13.775 9.7875,17.94375 8.555,25.955 C11.34625,27.36875 14.645,27.80375 17.9075,26.8975 C24.75875,24.97625 28.7825,17.87125 26.86125,10.98375 C26.68,10.3675 26.4625,9.75125 26.20875,9.17125 C24.7225,9.53375 18.7775,11.165 15.47875,13.775 Z" id="Shape" fill="#99252C"></path>
                        <circle id="Oval" fill="#99252C" transform="translate(10.656463, 14.935044) rotate(-15.605389) translate(-10.656463, -14.935044) " cx="10.6564632" cy="14.9350435" r="1.3411981"></circle>
                        <circle id="Oval" fill="#99252C" transform="translate(7.363365, 15.117544) rotate(-15.605389) translate(-7.363365, -15.117544) " cx="7.36336463" cy="15.1175441" r="1.3411981"></circle>
                        <circle id="Oval" fill="#99252C" transform="translate(8.917630, 17.720374) rotate(-15.605389) translate(-8.917630, -17.720374) " cx="8.9176305" cy="17.7203739" r="1.3411981"></circle>
                    </g>
                </g>
                <path d="M525.13875,163.042 C523.82175,161.726 522.06375,161 520.18875,161 C518.31375,161 516.55575,161.725 515.23975,163.042 L510.93575,167.346 L510.93475,167.346 L506.04675,172.235 C503.31775,174.964 503.31775,179.404 506.04675,182.134 C507.41175,183.499 509.20375,184.181 510.99675,184.181 C512.78875,184.181 514.58175,183.499 515.94575,182.134 L520.68775,177.392 L520.68875,177.391 L525.13775,172.942 C527.86775,170.212 527.86775,165.772 525.13875,163.042 Z M515.23875,181.427 C512.89875,183.767 509.09275,183.766 506.75375,181.427 C504.41375,179.088 504.41375,175.282 506.75375,172.942 L510.99575,168.699 L519.48075,177.185 L515.23875,181.427 Z M523.01775,165.871 C522.82275,166.065 522.50575,166.065 522.31075,165.871 C520.94675,164.505 518.72575,164.505 517.36075,165.871 L515.24075,167.992 C515.14275,168.09 515.01475,168.138 514.88675,168.138 C514.75875,168.138 514.63075,168.09 514.53275,167.992 C514.33775,167.797 514.33775,167.481 514.53275,167.284 L516.65275,165.163 C518.40775,163.409 521.26275,163.409 523.01675,165.163 C523.21275,165.359 523.21275,165.675 523.01775,165.871 Z" id="Shape" fill="#F58823" fill-rule="nonzero"></path>
                <g id="medical-shield" transform="translate(643.000000, 162.000000)" fill-rule="nonzero" fill="#000000">
                    <path d="M20.73,0.574 C20.565,0.488 20.366,0.5 20.213,0.607 C18.445,1.841 16.987,2.392 15.486,2.392 C13.699,2.392 12.026,1.586 10.896,0.183 C10.706,-0.051 10.29,-0.051 10.1,0.184 C8.973,1.586 7.3,2.392 5.513,2.392 C4.01,2.392 2.552,1.842 0.786,0.607 C0.633,0.5 0.435,0.488 0.269,0.574 C0.104,0.66 0,0.831 0,1.019 L0.018,15.963 C0.018,15.963 1.644,21.534 10.366,23.979 C10.41,23.991 10.455,23.998 10.501,23.998 C10.546,23.998 10.592,23.991 10.636,23.979 C19.358,21.534 20.983,15.963 20.983,15.963 L21,1.019 C21,0.831 20.896,0.66 20.73,0.574 Z M15,12.497 L12.5,12.497 C12.224,12.497 12,12.722 12,12.997 L12,15.497 L9,15.497 L9,12.997 C9,12.722 8.776,12.497 8.5,12.497 L6,12.497 L6,9.497 L8.5,9.497 C8.776,9.497 9,9.273 9,8.997 L9,6.497 L12,6.497 L12,8.997 C12,9.273 12.224,9.497 12.5,9.497 L15,9.497 L15,12.497 Z" id="Shape"></path>
                </g>
                <path d="M383.31101,173.326 L377.85201,170.176 L383.31101,167.023 C383.55001,166.886 383.63201,166.58 383.49401,166.341 L380.99401,162.01 C380.92801,161.895 380.81801,161.811 380.69001,161.777 C380.56201,161.742 380.42501,161.76 380.31101,161.826 L374.85201,164.979 L374.85201,158.676 C374.85201,158.4 374.62701,158.176 374.35201,158.176 L369.35201,158.176 C369.07601,158.176 368.85201,158.4 368.85201,158.676 L368.85201,164.977 L363.39401,161.827 C363.27901,161.76 363.14201,161.742 363.01501,161.777 C362.88701,161.811 362.77801,161.895 362.71101,162.01 L360.21101,166.341 C360.07301,166.58 360.15501,166.885 360.39401,167.023 L365.85201,170.176 L360.39401,173.326 C360.15501,173.465 360.07301,173.77 360.21101,174.01 L362.71101,178.341 C362.77701,178.455 362.88701,178.539 363.01501,178.573 C363.14201,178.606 363.27901,178.589 363.39401,178.523 L368.85201,175.372 L368.85201,181.676 C368.85201,181.952 369.07601,182.176 369.35201,182.176 L374.35201,182.176 C374.62701,182.176 374.85201,181.952 374.85201,181.676 L374.85201,175.372 L380.31101,178.523 C380.42501,178.589 380.56201,178.606 380.69001,178.573 C380.81801,178.539 380.92701,178.455 380.99401,178.341 L383.49401,174.01 C383.56001,173.895 383.57801,173.758 383.54401,173.63 C383.50901,173.503 383.42501,173.393 383.31101,173.326 Z" id="Shape" fill="#FF0000" fill-rule="nonzero"></path>
                <g id="logo_white" transform="translate(86.000000, 72.000000)" fill="#FFFFFF">
                    <g id="Group-18">
                        <path d="M14.6126393,20.9255242 C10.6345695,17.604242 10.7255711,14.0072307 15.1456487,10.648349 L16.6926759,9.60809834 C17.8756966,8.7934442 19.8647316,7.06387081 19.8647316,5.296698 C19.8647316,4.82043866 20.2677387,4.44444444 20.7617473,4.44444444 C21.2427558,4.44444444 21.6457629,4.82043866 21.6457629,5.296698 C21.6457629,7.66546156 19.5527261,9.63316462 18.2267028,10.648349 L16.6796756,11.6885997 C12.6366046,14.4960231 12.831608,16.8271873 15.2496505,19.1458183 C15.5486558,19.4215474 15.847661,19.6847433 16.1206658,19.8852736 L14.7036409,20.8503254 L14.6126393,20.9255242 Z M18.239703,21.3391179 C22.5427786,18.0679682 22.8157834,14.4709569 18.7987129,11.0995421 L18.6687106,11.1998072 L17.2906864,12.1272596 C20.7227466,14.7466859 20.4107412,16.9525187 18.122701,19.1458183 C17.6026918,19.6471439 17.0566823,20.0482044 16.6926759,20.2988672 L15.1586489,21.3391179 C13.8196254,22.3543022 11.7265886,24.3220053 11.7265886,26.6907689 C11.7265886,27.1670282 12.1295957,27.5555556 12.6236044,27.5555556 C13.1176131,27.5555556 13.5206201,27.1670282 13.5206201,26.6907689 C13.5206201,25.0238612 15.2886512,23.3569535 16.6926759,22.3793685 L18.239703,21.3391179 Z M16.0816651,9.16943842 C14.9246448,8.25451916 13.5206201,6.78814172 13.5206201,5.296698 C13.5206201,4.82043866 13.1176131,4.44444444 12.6236044,4.44444444 C12.1295957,4.44444444 11.7265886,4.82043866 11.7265886,5.296698 C11.7265886,7.35213304 13.2996163,9.09423958 14.5736386,10.1846228 L14.6906407,10.0968908 L16.0816651,9.16943842 Z M18.8247133,21.8279103 C20.1117359,22.9308267 21.6457629,24.6604001 21.6457629,26.6907689 C21.6457629,27.1670282 21.2427558,27.5555556 20.7617473,27.5555556 C20.2677387,27.5555556 19.8647316,27.1670282 19.8647316,26.6907689 C19.8647316,25.274524 18.577709,23.8582791 17.329687,22.8556279 L18.6817108,21.9407086 L18.8247133,21.8279103 Z" id="Shape"></path>
                        <path d="M16.2352941,3.55555556 C19.7182921,3.55555556 22.8719885,4.94104536 25.1644345,7.20026747 C27.444215,9.44700769 28.8627451,12.5549983 28.8627451,16 C28.8627451,19.4325198 27.444215,22.5405104 25.1644345,24.7997325 C22.8719885,27.0464728 19.7182921,28.4444444 16.2352941,28.4444444 C12.7396307,28.4444444 9.58593427,27.0464728 7.30615376,24.7997325 C5.01370779,22.5405104 3.60784314,19.4325198 3.60784314,16 C3.60784314,12.5549983 5.01370779,9.44700769 7.30615376,7.20026747 C9.58593427,4.94104536 12.7396307,3.55555556 16.2352941,3.55555556 Z M24.328515,8.01159033 C22.2513816,5.97704224 19.3889905,4.70388945 16.2352941,4.70388945 C13.0689323,4.70388945 10.2065412,5.97704224 8.12940783,8.01159033 C6.06493992,10.0586203 4.77306429,12.8795275 4.77306429,16 C4.77306429,19.1079906 6.06493992,21.9288978 8.12940783,23.9759278 C10.2065412,26.0229578 13.0689323,27.2836287 16.2352941,27.2836287 C19.3889905,27.2836287 22.2513816,26.0229578 24.328515,23.9759278 C26.4056483,21.9288978 27.6848585,19.1079906 27.6848585,16 C27.6848585,12.8795275 26.4056483,10.0586203 24.328515,8.01159033 Z" id="Shape" fill-rule="nonzero"></path>
                        <path d="M16.2416237,0 C18.4316477,0 20.5330581,0.436647173 22.444582,1.21013645 C24.4320605,2.02105263 26.2169935,3.20623782 27.7234262,4.69083821 C29.2171999,6.16296296 30.4198142,7.92202729 31.2426557,9.88070175 C32.0401789,11.7645224 32.4705882,13.8354776 32.4705882,16.0062378 C32.4705882,18.1645224 32.0401789,20.2354776 31.2426557,22.1192982 C30.4198142,24.0779727 29.2171999,25.837037 27.7234262,27.3216374 C26.2169935,28.7937622 24.4320605,29.9789474 22.444582,30.7898635 C20.5330581,31.5758285 18.4316477,32 16.2416237,32 C14.0389405,32 11.9375301,31.5758285 10.0260062,30.7898635 C8.03852769,29.9789474 6.25359477,28.7937622 4.75982112,27.3216374 C3.25338837,25.837037 2.05077399,24.0779727 1.22793258,22.1192982 C0.443068455,20.2354776 0,18.1645224 0,16.0062378 C0,13.8354776 0.443068455,11.7645224 1.22793258,9.88070175 C2.05077399,7.92202729 3.25338837,6.16296296 4.75982112,4.69083821 C6.25359477,3.20623782 8.03852769,2.02105263 10.0260062,1.21013645 C11.9375301,0.436647173 14.0389405,0 16.2416237,0 Z M26.7486756,5.63898635 C25.3814929,4.29161793 23.7358101,3.20623782 21.925559,2.45769981 C20.1659443,1.74658869 18.2544204,1.34736842 16.2416237,1.34736842 C14.228827,1.34736842 12.304644,1.74658869 10.5576883,2.45769981 C8.73477812,3.20623782 7.10175439,4.29161793 5.72191262,5.63898635 C4.35472996,6.99883041 3.25338837,8.60818713 2.49384245,10.4046784 C1.77227382,12.1263158 1.36718266,14.0226121 1.36718266,16.0062378 C1.36718266,17.9898635 1.77227382,19.8736842 2.49384245,21.6077973 C3.25338837,23.3918129 4.35472996,25.0136452 5.72191262,26.3610136 C7.10175439,27.7083821 8.73477812,28.8062378 10.5576883,29.5423002 C12.304644,30.2534113 14.228827,30.6526316 16.2416237,30.6526316 C18.2544204,30.6526316 20.1659443,30.2534113 21.925559,29.5423002 C23.7358101,28.8062378 25.3814929,27.7083821 26.7486756,26.3610136 C28.1158583,25.0136452 29.229859,23.3918129 29.9767458,21.6077973 C30.6983144,19.8736842 31.1034056,17.9898635 31.1034056,16.0062378 C31.1034056,14.0226121 30.6983144,12.1263158 29.9767458,10.4046784 C29.229859,8.60818713 28.1158583,6.99883041 26.7486756,5.63898635 Z" id="Shape" fill-rule="nonzero"></path>
                    </g>
                    <path d="M40.5882353,7.32114119 L42.8015339,7.32114119 L42.8015339,23.8146793 L40.5882353,23.8146793 L40.5882353,7.32114119 Z M47.1016569,8.38364627 C47.4684321,8.38364627 47.7719702,8.50719337 48.037566,8.75428757 C48.2905144,8.98902707 48.4169886,9.29789482 48.4169886,9.64382671 C48.4169886,10.0021133 48.2905144,10.2986264 48.037566,10.5457206 C47.7719702,10.8051695 47.4684321,10.9287166 47.1016569,10.9287166 C46.772824,10.9287166 46.4692859,10.7928148 46.2163375,10.5333658 C45.9507416,10.2862716 45.8242674,9.9897586 45.8242674,9.64382671 C45.8242674,9.32260424 45.9507416,9.0260912 46.2163375,8.76664228 C46.4692859,8.51954808 46.772824,8.38364627 47.1016569,8.38364627 Z M46.0139787,12.9548891 L48.2146299,12.9548891 L48.2146299,23.8146793 L46.0139787,23.8146793 L46.0139787,12.9548891 Z M51.6420809,12.9548891 L51.6420809,12.3124441 C51.6420809,10.5580753 52.0215035,9.24847598 52.7803487,8.39600098 C53.5518414,7.54352597 54.4624557,7.11111111 55.524839,7.11111111 C55.9801462,7.11111111 56.5366327,7.18523937 57.1563563,7.32114119 L57.1563563,9.42144192 C56.8022285,9.29789482 56.4607481,9.23612127 56.1319152,9.23612127 C55.2718906,9.23612127 54.6774618,9.45850606 54.3486289,9.90327562 C54.0071485,10.3603999 53.8427321,11.1511014 53.8427321,12.3124441 L53.8427321,12.9548891 L55.8157297,12.9548891 L55.8157297,14.8945786 L53.8427321,14.8945786 L53.8427321,23.8146793 L51.6420809,23.8146793 L51.6420809,14.8945786 L50.0485059,14.8945786 L50.0485059,12.9548891 L51.6420809,12.9548891 Z M66.8063382,18.5639275 L58.9902323,18.5639275 C59.0408219,19.6140779 59.4075971,20.4418435 60.065263,21.0472243 C60.7102815,21.6649598 61.5576586,21.9738275 62.5947471,21.9738275 C64.0492005,21.9738275 65.3898271,21.529058 66.6166269,20.6518735 L66.6166269,22.7521743 C65.9336662,23.1845891 65.2633529,23.5058116 64.605687,23.6911322 C63.9353737,23.8764529 63.1512336,23.9752906 62.2659142,23.9752906 C61.0391144,23.9752906 60.0526156,23.7281964 59.2937703,23.234008 C58.5349251,22.7398196 57.9278489,22.0726652 57.4725418,21.2325449 C57.0172346,20.3924246 56.7895811,19.4287572 56.7895811,18.3168333 C56.7895811,16.6736568 57.2701831,15.3269934 58.231387,14.2891978 C59.192591,13.2514021 60.4320382,12.744859 61.9623761,12.744859 C63.4294769,12.744859 64.6183344,13.2390474 65.4910064,14.2521336 C66.3636785,15.2528652 66.8063382,16.6118833 66.8063382,18.3044786 L66.8063382,18.5639275 Z M59.0408219,17.2790376 L64.6309818,17.2790376 C64.5803922,16.4265626 64.3147963,15.771763 63.8468418,15.302284 C63.3788872,14.832805 62.7591636,14.5980655 61.9623761,14.5980655 C61.1655886,14.5980655 60.5205701,14.832805 60.0273207,15.302284 C59.5214239,15.771763 59.192591,16.4265626 59.0408219,17.2790376 Z M68.6528616,23.0363326 L68.6528616,20.7260018 C69.2599378,21.1460619 69.8923088,21.4919938 70.5499747,21.7514427 C71.1949931,22.0108917 71.7388322,22.1467935 72.1814919,22.1467935 C72.6494465,22.1467935 73.0415165,22.0356011 73.3703495,21.8132163 C73.6991824,21.6031862 73.8635989,21.3313826 73.8635989,21.0225148 C73.8635989,20.7136471 73.7624195,20.4541982 73.5474134,20.2441681 C73.3324072,20.034138 72.8644526,19.7252703 72.1561971,19.3422742 C70.739686,18.5639275 69.8164243,17.9091279 69.3737646,17.3531659 C68.9311048,16.8095586 68.7160987,16.2165326 68.7160987,15.5740876 C68.7160987,14.7339673 69.0449316,14.0544583 69.7152449,13.5232057 C70.3855582,13.0043079 71.2329354,12.744859 72.2826713,12.744859 C73.3703495,12.744859 74.4833225,13.041372 75.6215903,13.6343981 L75.6215903,15.7594083 C74.318906,14.9810615 73.2565227,14.5980655 72.4217929,14.5980655 C72.004428,14.5980655 71.6503003,14.6969032 71.3973519,14.8698691 C71.131756,15.0428351 71.0052818,15.2775746 71.0052818,15.5740876 C71.0052818,15.8335365 71.1191086,16.068276 71.3594096,16.2906608 C71.5870632,16.5254003 72.0170755,16.7972039 72.6115042,17.1184264 L73.3956443,17.5508413 C75.2421677,18.5762822 76.1780768,19.7129155 76.1780768,20.9483866 C76.1780768,21.8502804 75.8113016,22.5792083 75.1030461,23.147525 C74.3947905,23.7158417 73.4715288,24 72.3585558,24 C71.6882425,24 71.1064612,23.9382264 70.5879169,23.7899699 C70.0820201,23.6540681 69.4243542,23.3946192 68.6528616,23.0363326 Z M87.0422111,21.2819637 L87.0422111,23.3946192 C85.9418855,23.8023246 84.8668548,24 83.8044715,24 C82.0591274,24 80.6805586,23.4934569 79.6434701,22.4927254 C78.6063816,21.4796391 78.0878373,20.1329757 78.0878373,18.4403804 C78.0878373,16.7354304 78.5937342,15.3517028 79.6055278,14.3139072 C80.604674,13.2637568 81.9326532,12.744859 83.5768179,12.744859 C84.1459518,12.744859 84.6644961,12.7942778 85.1198032,12.8931155 C85.5751103,13.0043079 86.1315968,13.2019833 86.8019101,13.4984963 L86.8019101,15.7841177 C85.6889371,15.0922539 84.6644961,14.746322 83.7032921,14.746322 C82.7167933,14.746322 81.9073584,15.0922539 81.2623399,15.771763 C80.6299689,16.451272 80.3137834,17.3161018 80.3137834,18.3662521 C80.3137834,19.4781761 80.6552637,20.3677152 81.3508719,21.0101601 C82.0338326,21.6649598 82.9570943,21.9985369 84.1333044,21.9985369 C84.9806816,21.9985369 85.954533,21.7514427 87.0422111,21.2819637 Z M90.6720208,8.38364627 C91.038796,8.38364627 91.3549815,8.50719337 91.60793,8.75428757 C91.8735258,8.98902707 92,9.29789482 92,9.64382671 C92,10.0021133 91.8735258,10.2986264 91.60793,10.5457206 C91.3549815,10.8051695 91.038796,10.9287166 90.6720208,10.9287166 C90.3431879,10.9287166 90.0522972,10.7928148 89.7867014,10.5333658 C89.533753,10.2862716 89.4072788,9.9897586 89.4072788,9.64382671 C89.4072788,9.32260424 89.533753,9.0260912 89.7867014,8.76664228 C90.0522972,8.51954808 90.3431879,8.38364627 90.6720208,8.38364627 Z M89.5969901,12.9548891 L91.7976413,12.9548891 L91.7976413,23.8146793 L89.5969901,23.8146793 L89.5969901,12.9548891 Z" id="Shape" fill-rule="nonzero"></path>
                </g>
            </g>
        </g>
    </g>
</svg>