<svg version="1.1" viewBox="0 0 849 586" xmlns="http://www.w3.org/2000/svg" xmlns:xlink="http://www.w3.org/1999/xlink">
    <defs>
        <path id="a" d="m28.422 0h777.85c15.697 0 28.422 12.727 28.422 28.422v514.39c0 15.697-12.728 28.422-28.422 28.422h-777.85c-15.697 0-28.422-12.727-28.422-28.422v-514.39c0-15.697 12.728-28.422 28.422-28.422z"/>
        <filter id="c" x="-3.1%" y="-3.7%" width="106.2%" height="109.1%">
            <feOffset dx="0" dy="5" in="SourceAlpha" result="shadowOffsetOuter1"/>
            <feGaussianBlur in="shadowOffsetOuter1" result="shadowBlurOuter1" stdDeviation="7.5"/>
            <feComposite in="shadowBlurOuter1" in2="SourceAlpha" operator="out" result="shadowBlurOuter1"/>
            <feColorMatrix in="shadowBlurOuter1" result="shadowMatrixOuter1" values="0 0 0 0 0   0 0 0 0 0   0 0 0 0 0  0 0 0 0.07 0"/>
            <feMorphology in="SourceAlpha" operator="dilate" radius="0.5" result="shadowSpreadOuter2"/>
            <feOffset dx="0" dy="0" in="shadowSpreadOuter2" result="shadowOffsetOuter2"/>
            <feComposite in="shadowOffsetOuter2" in2="SourceAlpha" operator="out" result="shadowOffsetOuter2"/>
            <feColorMatrix in="shadowOffsetOuter2" result="shadowMatrixOuter2" values="0 0 0 0 0   0 0 0 0 0   0 0 0 0 0  0 0 0 0.03 0"/>
            <feMerge>
                <feMergeNode in="shadowMatrixOuter1"/>
                <feMergeNode in="shadowMatrixOuter2"/>
            </feMerge>
        </filter>
        <linearGradient id="b" x1="50%" x2="50%" y2="100%">
            <stop stop-color="#F3F4F6" offset="0"/>
            <stop stop-color="#fff" offset="1"/>
        </linearGradient>
    </defs>
    <g fill="none" fill-rule="evenodd">
        <g transform="translate(4.856 6.324)" fill-rule="nonzero">
            <g transform="translate(0 2)" fill="#fff">
                <path d="m28.422 0h777.85c15.697 0 28.422 12.727 28.422 28.422v514.39c0 15.697-12.728 28.422-28.422 28.422h-777.85c-15.697 0-28.422-12.727-28.422-28.422v-514.39c0-15.697 12.728-28.422 28.422-28.422z"/>
            </g>
            <g transform="translate(1)">
                <use fill="black" filter="url(#c)" xlink:href="#a"/>
                <use fill="#FFFFFF" fill-rule="evenodd" xlink:href="#a"/>
                <path d="m28.422 0.5c-15.419 0-27.922 12.502-27.922 27.922v514.39c0 15.42 12.502 27.922 27.922 27.922h777.85c15.419 0 27.922-12.502 27.922-27.922v-514.39c0-15.42-12.502-27.922-27.922-27.922h-777.85z" stroke="#E2DEDE"/>
            </g>
            <path d="m636.51 116.32c1.0989 0 1.9897-0.8908 1.9897-1.9897 0-1.0989-0.8908-1.9897-1.9897-1.9897-1.0989 0-1.9897 0.8908-1.9897 1.9897 0 1.0989 0.8908 1.9897 1.9897 1.9897z" fill="url(#b)" style="mix-blend-mode:multiply"/>
        </g>
        <path d="m77.695 68.346h682.1c1.6569 0 3 1.3431 3 3v50.204c0 1.6569-1.3431 3-3 3h-682.1c-1.6569 0-3-1.3431-3-3v-50.204c0-1.6569 1.3431-3 3-3z" fill="#3F46AD" fill-rule="nonzero" opacity=".8"/>
        <path d="m77.695 294.77h682.1c1.6569 0 3 1.3431 3 3v26.117c0 1.6569-1.3431 3-3 3h-682.1c-1.6569 0-3-1.3431-3-3v-26.117c0-1.6569 1.3431-3 3-3z" fill="#263F6F" fill-rule="nonzero" opacity=".3"/>
        <polygon points="74.695 359 762.8 359 762.8 359.81 74.695 359.81" fill="#DFE4EE" fill-rule="nonzero" opacity=".5"/>
        <polygon points="74.695 391.12 762.8 391.12 762.8 391.92 74.695 391.92" fill="#DFE4EE" fill-rule="nonzero" opacity=".5"/>
        <polygon points="74.695 423.24 762.8 423.24 762.8 424.04 74.695 424.04" fill="#DFE4EE" fill-rule="nonzero" opacity=".5"/>
        <polygon points="74.695 455.35 762.8 455.35 762.8 456.16 74.695 456.16" fill="#DFE4EE" fill-rule="nonzero" opacity=".5"/>
        <polygon points="74.695 487.47 762.8 487.47 762.8 488.27 74.695 488.27" fill="#DFE4EE" fill-rule="nonzero" opacity=".5"/>
        <polygon points="74.695 519.59 762.8 519.59 762.8 520.39 74.695 520.39" fill="#DFE4EE" fill-rule="nonzero" opacity=".5"/>
        <g transform="translate(88.856 81.324)" stroke="#fff" stroke-width="2.0829">
            <circle cx="14.025" cy="14.257" r="8.5806"/>
            <circle cx="14" cy="14" r="14"/>
        </g>
        <g transform="translate(89.856 168.32)" stroke="#656BBD" stroke-width="1.8329">
            <circle cx="11.999" cy="12.231" r="7.3548"/>
            <circle cx="12" cy="12" r="12"/>
        </g>
        <path d="m88.936 225.72h27.723c1.6569 0 3 1.3431 3 3v10.861c0 1.6569-1.3431 3-3 3h-27.723c-1.6569 0-3-1.3431-3-3v-10.861c0-1.6569 1.3431-3 3-3zm73.869 0h27.723c1.6569 0 3 1.3431 3 3v10.861c0 1.6569-1.3431 3-3 3h-27.723c-1.6569 0-3-1.3431-3-3v-10.861c0-1.6569 1.3431-3 3-3zm-36.934 0h27.723c1.6569 0 3 1.3431 3 3v10.861c0 1.6569-1.3431 3-3 3h-27.723c-1.6569 0-3-1.3431-3-3v-10.861c0-1.6569 1.3431-3 3-3z" fill="#DFE4EE" fill-rule="nonzero"/>
        <path d="m321.99 81.996h193.62" opacity=".4" stroke="#fff" stroke-linecap="round" stroke-width="6"/>
        <path d="m329.22 342.94h11.247" stroke="#DFE4EE" stroke-linecap="round" stroke-width="6"/>
        <path d="m77.907 342.94h32.925" opacity=".3" stroke="#263F6F" stroke-linecap="round" stroke-width="6"/>
        <path d="m124.48 342.94h31.32" stroke="#DFE4EE" stroke-linecap="round" stroke-width="6"/>
        <path d="m77.907 375.06h32.925" opacity=".3" stroke="#263F6F" stroke-linecap="round" stroke-width="6"/>
        <path d="m124.48 375.06h31.32" stroke="#DFE4EE" stroke-linecap="round" stroke-width="6"/>
        <path d="m77.907 407.18h32.925" opacity=".3" stroke="#263F6F" stroke-linecap="round" stroke-width="6"/>
        <path d="m124.48 407.18h31.32" stroke="#DFE4EE" stroke-linecap="round" stroke-width="6"/>
        <path d="m77.907 439.29h32.925" opacity=".3" stroke="#263F6F" stroke-linecap="round" stroke-width="6"/>
        <path d="m124.48 439.29h31.32" stroke="#DFE4EE" stroke-linecap="round" stroke-width="6"/>
        <path d="m77.907 471.41h32.925" opacity=".3" stroke="#263F6F" stroke-linecap="round" stroke-width="6"/>
        <path d="m124.48 471.41h31.32" stroke="#DFE4EE" stroke-linecap="round" stroke-width="6"/>
        <path d="m77.907 503.53h32.925" opacity=".3" stroke="#263F6F" stroke-linecap="round" stroke-width="6"/>
        <path d="m124.48 503.53h31.32m122.04-160.58h29.714m-130.88 0h79.495m358.9 0h29.714" stroke="#DFE4EE" stroke-linecap="round" stroke-width="6"/>
        <path d="m664.84 342.94h29.714" opacity=".3" stroke="#263F6F" stroke-linecap="round" stroke-width="6"/>
        <path d="m473.75 342.94h11.247" stroke="#DFE4EE" stroke-linecap="round" stroke-width="6"/>
        <path d="m149.37 175.94h43.363" opacity=".3" stroke="#263F6F" stroke-linecap="round" stroke-width="6"/>
        <path d="m165.43 186.38h27.305" stroke="#DFE4EE" stroke-linecap="round" stroke-width="6"/>
        <g transform="translate(318.78 94.039)" fill="#fff" fill-rule="nonzero">
            <circle cx="10.149" cy="10.149" r="10.149"/>
            <circle cx="40.221" cy="10.149" r="10.149" opacity=".4"/>
            <circle cx="70.293" cy="10.149" r="10.149" opacity=".4"/>
            <circle cx="100.36" cy="10.149" r="10.149" opacity=".4"/>
            <circle cx="130.44" cy="10.149" r="10.149" opacity=".4"/>
            <circle cx="160.51" cy="10.149" r="10.149" opacity=".4"/>
            <circle cx="190.58" cy="10.149" r="10.149" opacity=".4"/>
        </g>
        <circle cx="746.74" cy="84.404" r="6.423" fill="#fff" fill-rule="nonzero" opacity=".4"/>
        <circle cx="746.74" cy="342.94" r="6.423" fill="#263F6F" fill-rule="nonzero" opacity=".3"/>
        <path d="m329.22 375.06h123.66" opacity=".3" stroke="#263F6F" stroke-linecap="round" stroke-width="6"/>
        <path d="m277.83 375.06h29.714m-130.88 0h55.407m382.99 0h29.714m20.067 0h29.714m-220.81 0h11.247" stroke="#DFE4EE" stroke-linecap="round" stroke-width="6"/>
        <circle cx="746.74" cy="375.06" r="6.423" fill="#263F6F" fill-rule="nonzero" opacity=".3"/>
        <path d="m329.22 407.18h11.247m-62.633 0h29.714m-130.88 0h79.495" stroke="#DFE4EE" stroke-linecap="round" stroke-width="6"/>
        <path d="m615.06 407.18h29.714" opacity=".3" stroke="#263F6F" stroke-linecap="round" stroke-width="6"/>
        <path d="m664.84 407.18h29.714m-220.81 0h11.247" stroke="#DFE4EE" stroke-linecap="round" stroke-width="6"/>
        <circle cx="746.74" cy="407.18" r="6.423" fill="#263F6F" fill-rule="nonzero" opacity=".3"/>
        <path d="m329.22 439.29h11.247m-62.633 0h29.714m-130.88 0h31.32m407.07 0h29.714" stroke="#DFE4EE" stroke-linecap="round" stroke-width="6"/>
        <path d="m664.84 439.29h29.714m-220.81 0h123.66" opacity=".3" stroke="#263F6F" stroke-linecap="round" stroke-width="6"/>
        <circle cx="746.74" cy="439.3" r="6.423" fill="#263F6F" fill-rule="nonzero" opacity=".3"/>
        <path d="m329.22 471.41h123.66" opacity=".3" stroke="#263F6F" stroke-linecap="round" stroke-width="6"/>
        <path d="m277.83 471.41h29.714m-130.88 0h79.495m358.9 0h29.714m20.067 0h29.714m-220.81 0h11.247" stroke="#DFE4EE" stroke-linecap="round" stroke-width="6"/>
        <circle cx="746.74" cy="471.41" r="6.423" fill="#263F6F" fill-rule="nonzero" opacity=".3"/>
        <path d="m329.22 503.53h123.66" opacity=".3" stroke="#263F6F" stroke-linecap="round" stroke-width="6"/>
        <path d="m277.83 503.53h29.714m-130.88 0h79.495m358.9 0h29.714" stroke="#DFE4EE" stroke-linecap="round" stroke-width="6"/>
        <path d="m664.84 503.53h29.714" opacity=".3" stroke="#263F6F" stroke-linecap="round" stroke-width="6"/>
        <path d="m473.75 503.53h11.247" stroke="#DFE4EE" stroke-linecap="round" stroke-width="6"/>
        <circle cx="746.74" cy="503.53" r="6.423" fill="#263F6F" fill-rule="nonzero" opacity=".3"/>
        <circle cx="721.85" cy="84.404" r="6.423" fill="#fff" fill-rule="nonzero" opacity=".4"/>
        <circle cx="696.16" cy="84.404" r="6.423" fill="#fff" fill-rule="nonzero" opacity=".4"/>
        <circle cx="671.67" cy="84.003" r="6.022" fill="#fff" fill-rule="nonzero" opacity=".4"/>
        <path d="m88.892 149.14c-8.0081 0-14.5 6.4919-14.5 14.5v75.985c0 8.0081 6.4919 14.5 14.5 14.5h101.68c8.0081 0 14.5-6.4919 14.5-14.5v-75.985c0-8.0081-6.4919-14.5-14.5-14.5h-101.68z" opacity=".5" stroke="#DFE4EE"/>
        <path d="m227.04 225.72h27.723c1.6569 0 3 1.3431 3 3v10.861c0 1.6569-1.3431 3-3 3h-27.723c-1.6569 0-3-1.3431-3-3v-10.861c0-1.6569 1.3431-3 3-3zm73.869 0h27.723c1.6569 0 3 1.3431 3 3v10.861c0 1.6569-1.3431 3-3 3h-27.723c-1.6569 0-3-1.3431-3-3v-10.861c0-1.6569 1.3431-3 3-3zm-36.934 0h27.723c1.6569 0 3 1.3431 3 3v10.861c0 1.6569-1.3431 3-3 3h-27.723c-1.6569 0-3-1.3431-3-3v-10.861c0-1.6569 1.3431-3 3-3z" fill="#DFE4EE" fill-rule="nonzero"/>
        <path d="m287.47 175.94h43.363" opacity=".3" stroke="#263F6F" stroke-linecap="round" stroke-width="6"/>
        <path d="m303.53 186.38h27.305" stroke="#DFE4EE" stroke-linecap="round" stroke-width="6"/>
        <path d="m226.99 149.14c-8.0081 0-14.5 6.4919-14.5 14.5v75.985c0 8.0081 6.4919 14.5 14.5 14.5h101.68c8.0081 0 14.5-6.4919 14.5-14.5v-75.985c0-8.0081-6.4919-14.5-14.5-14.5h-101.68z" opacity=".5" stroke="#DFE4EE"/>
        <path d="m365.94 225.72h27.723c1.6569 0 3 1.3431 3 3v10.861c0 1.6569-1.3431 3-3 3h-27.723c-1.6569 0-3-1.3431-3-3v-10.861c0-1.6569 1.3431-3 3-3zm73.869 0h27.723c1.6569 0 3 1.3431 3 3v10.861c0 1.6569-1.3431 3-3 3h-27.723c-1.6569 0-3-1.3431-3-3v-10.861c0-1.6569 1.3431-3 3-3zm-36.934 0h27.723c1.6569 0 3 1.3431 3 3v10.861c0 1.6569-1.3431 3-3 3h-27.723c-1.6569 0-3-1.3431-3-3v-10.861c0-1.6569 1.3431-3 3-3z" fill="#DFE4EE" fill-rule="nonzero"/>
        <path d="m426.37 175.94h43.363" opacity=".3" stroke="#263F6F" stroke-linecap="round" stroke-width="6"/>
        <path d="m442.43 186.38h27.305" stroke="#DFE4EE" stroke-linecap="round" stroke-width="6"/>
        <path d="m365.9 149.14c-8.0081 0-14.5 6.4919-14.5 14.5v75.985c0 8.0081 6.4919 14.5 14.5 14.5h101.68c8.0081 0 14.5-6.4919 14.5-14.5v-75.985c0-8.0081-6.4919-14.5-14.5-14.5h-101.68z" opacity=".5" stroke="#DFE4EE"/>
        <path d="m504.85 225.72h27.723c1.6569 0 3 1.3431 3 3v10.861c0 1.6569-1.3431 3-3 3h-27.723c-1.6569 0-3-1.3431-3-3v-10.861c0-1.6569 1.3431-3 3-3zm73.869 0h27.723c1.6569 0 3 1.3431 3 3v10.861c0 1.6569-1.3431 3-3 3h-27.723c-1.6569 0-3-1.3431-3-3v-10.861c0-1.6569 1.3431-3 3-3zm-36.934 0h27.723c1.6569 0 3 1.3431 3 3v10.861c0 1.6569-1.3431 3-3 3h-27.723c-1.6569 0-3-1.3431-3-3v-10.861c0-1.6569 1.3431-3 3-3z" fill="#DFE4EE" fill-rule="nonzero"/>
        <path d="m565.28 175.94h43.363" opacity=".3" stroke="#263F6F" stroke-linecap="round" stroke-width="6"/>
        <path d="m581.34 186.38h27.305" stroke="#DFE4EE" stroke-linecap="round" stroke-width="6"/>
        <path d="m504.8 149.14c-8.0081 0-14.5 6.4919-14.5 14.5v75.985c0 8.0081 6.4919 14.5 14.5 14.5h101.68c8.0081 0 14.5-6.4919 14.5-14.5v-75.985c0-8.0081-6.4919-14.5-14.5-14.5h-101.68z" opacity=".5" stroke="#DFE4EE"/>
        <path d="m643.75 225.72h27.723c1.6569 0 3 1.3431 3 3v10.861c0 1.6569-1.3431 3-3 3h-27.723c-1.6569 0-3-1.3431-3-3v-10.861c0-1.6569 1.3431-3 3-3zm73.869 0h27.723c1.6569 0 3 1.3431 3 3v10.861c0 1.6569-1.3431 3-3 3h-27.723c-1.6569 0-3-1.3431-3-3v-10.861c0-1.6569 1.3431-3 3-3zm-36.934 0h27.723c1.6569 0 3 1.3431 3 3v10.861c0 1.6569-1.3431 3-3 3h-27.723c-1.6569 0-3-1.3431-3-3v-10.861c0-1.6569 1.3431-3 3-3z" fill="#4F89DC" fill-rule="nonzero"/>
        <path d="m704.18 175.94h43.363m-27.305 10.438h27.305" stroke="#DFE4EE" stroke-linecap="round" stroke-width="6"/>
        <path d="m643.71 149.14c-8.0081 0-14.5 6.4919-14.5 14.5v75.985c0 8.0081 6.4919 14.5 14.5 14.5h101.68c8.0081 0 14.5-6.4919 14.5-14.5v-75.985c0-8.0081-6.4919-14.5-14.5-14.5h-101.68z" opacity=".5" stroke="#DFE4EE"/>
        <path d="m643.75 225.72h27.723c1.6569 0 3 1.3431 3 3v10.861c0 1.6569-1.3431 3-3 3h-27.723c-1.6569 0-3-1.3431-3-3v-10.861c0-1.6569 1.3431-3 3-3zm73.869 0h27.723c1.6569 0 3 1.3431 3 3v10.861c0 1.6569-1.3431 3-3 3h-27.723c-1.6569 0-3-1.3431-3-3v-10.861c0-1.6569 1.3431-3 3-3zm-36.934 0h27.723c1.6569 0 3 1.3431 3 3v10.861c0 1.6569-1.3431 3-3 3h-27.723c-1.6569 0-3-1.3431-3-3v-10.861c0-1.6569 1.3431-3 3-3z" fill="#DFE4EE" fill-rule="nonzero"/>
        <path d="m704.18 175.94h43.363" opacity=".2" stroke="#263F6F" stroke-linecap="round" stroke-width="6"/>
        <path d="m720.24 186.38h27.305" opacity=".4" stroke="#DFE4EE" stroke-linecap="round" stroke-width="6"/>
        <path d="m643.71 149.14c-8.0081 0-14.5 6.4919-14.5 14.5v75.985c0 8.0081 6.4919 14.5 14.5 14.5h101.68c8.0081 0 14.5-6.4919 14.5-14.5v-75.985c0-8.0081-6.4919-14.5-14.5-14.5h-101.68z" opacity=".5" stroke="#DFE4EE"/>
        <g transform="translate(224.04 165.5)" fill-rule="nonzero">
            <circle cx="14.453" cy="14.453" r="14.453" fill="#F5A623"/>
            <path transform="translate(14.427 14.227) rotate(10) translate(-14.427 -14.227)" d="m17.967 13.65c0.83188-0.42342 1.3524-1.1691 1.2308-2.4114-0.16373-1.6977-1.6309-2.267-3.483-2.4292l-3.572e-4 -2.3549h-1.435l-4.018e-4 2.293c-0.37756 0-0.76245 0.007412-1.1456 0.015092l-3.126e-4 -2.3078-1.4337-1.3395e-4 -2.679e-4 2.3543c-0.31072 0.0063404-0.61586 0.012368-0.91382 0.012368v-0.0069655l-1.9794-8.0371e-4 2.6791e-4 1.5307s1.0597-0.019914 1.0423-5.805e-4c0.58104 4.019e-4 0.77076 0.33751 0.82532 0.6285l4.465e-4 2.6827v3.7684c-0.025585 0.18262-0.13324 0.47441-0.53951 0.47495 0.018485 0.016253-1.0439-1.786e-4 -1.0439-1.786e-4l-0.28465 1.7117h1.8671c0.34792 4.019e-4 0.68976 0.0058046 1.0251 0.0084836l0.0012502 2.3816 1.4334 4.018e-4 -4.018e-4 -2.3566c0.39435 0.0080371 0.775 0.01152 1.1468 0.011029l-4.019e-4 2.3456h1.435l8.037e-4 -2.3776c2.4121-0.13842 4.1008-0.74553 4.3107-3.0088 0.16923-1.8221-0.68914-2.6355-2.0586-2.9639zm-4.7993-3.2024c0.80933 0 3.3547-0.2575 3.355 1.4317-3.572e-4 1.6194-2.5449 1.4302-3.355 1.4302v-2.8619zm-6.251e-4 7.4623l6.251e-4 -3.1555c0.9724-2.679e-4 4.0223-0.27956 4.0227 1.5771 4.018e-4 1.7805-3.0503 1.5778-4.0234 1.5785z" fill="#fff"/>
        </g>
        <g transform="translate(503.46 165.5)" fill-rule="nonzero">
            <circle cx="14.453" cy="14.453" r="14.453" fill="#35980A"/>
            <path d="m19.1 15.885c-0.088836-0.27574-0.19662-0.51572-0.32321-0.71952-0.12651-0.204-0.30771-0.40298-0.54395-0.59762-0.23595-0.19454-0.44821-0.35121-0.63642-0.47031-0.1881-0.1192-0.44648-0.25247-0.77501-0.39998-0.32824-0.14748-0.58831-0.25722-0.77975-0.32939-0.19169-0.072074-0.46899-0.17088-0.8317-0.29634-0.32159-0.11284-0.56103-0.19912-0.71857-0.25867-0.15736-0.059617-0.3643-0.14425-0.62092-0.25409-0.25651-0.10968-0.44814-0.20696-0.57476-0.29159-0.12659-0.08463-0.26169-0.18811-0.40543-0.31041-0.14373-0.1223-0.24465-0.25247-0.30286-0.39046-0.058062-0.13802-0.087183-0.28859-0.087183-0.45169 0-0.42645 0.20521-0.77469 0.61578-1.0443 0.4106-0.26964 0.941-0.40453 1.5911-0.40453 0.28725 0 0.58012 0.036021 0.87758 0.10823 0.29746 0.072206 0.5524 0.15354 0.76455 0.24456 0.21233 0.091024 0.4124 0.19141 0.60064 0.30112 0.18821 0.10981 0.32159 0.19286 0.40036 0.24931 0.078698 0.056486 0.12856 0.094088 0.14888 0.11294 0.089088 0.062715 0.18123 0.08463 0.27704 0.065878 0.10261-0.0062616 0.18138-0.056519 0.23624-0.15051l0.83156-1.3737c0.082078-0.1254 0.065108-0.2446-0.051303-0.35757-0.041129-0.037635-0.092252-0.081499-0.15427-0.13172-0.061405-0.050224-0.19489-0.14115-0.40036-0.27294-0.20525-0.13169-0.4225-0.24931-0.65159-0.35282-0.22934-0.10341-0.52709-0.20854-0.89322-0.31512-0.36592-0.10674-0.74409-0.17882-1.1342-0.21642v-1.6561c0-0.087761-0.030739-0.15993-0.092144-0.21642-0.061549-0.056354-0.14028-0.084663-0.23624-0.084663h-1.3858c-0.088944 0-0.16592 0.029759-0.23092 0.089376-0.065001 0.059617-0.097501 0.13014-0.097501 0.21171v1.6936c-1.0744 0.18811-1.9469 0.60839-2.6175 1.2608-0.67053 0.65239-1.0059 1.4113-1.0059 2.277 0 0.25715 0.029193 0.50178 0.087362 0.73376 0.058098 0.23217 0.13 0.44075 0.21557 0.62576 0.085493 0.18514 0.20701 0.36699 0.36437 0.54581 0.15736 0.17875 0.30624 0.33246 0.44648 0.46098 0.14032 0.12849 0.32338 0.26183 0.54913 0.39979 0.22588 0.13808 0.4192 0.24951 0.58004 0.33414 0.16088 0.084366 0.37469 0.18192 0.64148 0.29143 0.26687 0.10984 0.47737 0.19286 0.63135 0.24944 0.15398 0.056387 0.36437 0.13489 0.63135 0.23504 0.36947 0.13172 0.64325 0.23369 0.82114 0.30586 0.17803 0.072173 0.40377 0.17252 0.67765 0.30112 0.27363 0.12846 0.4737 0.24611 0.60039 0.35279 0.12659 0.10668 0.24116 0.2384 0.34388 0.39517 0.10271 0.15677 0.15416 0.323 0.15416 0.49872 0 0.49555-0.21042 0.8781-0.63138 1.1476-0.42078 0.26981-0.9085 0.40466-1.4627 0.40466-0.25296 0-0.50634-0.024947-0.75944-0.075106-0.88959-0.1633-1.721-0.55534-2.4942-1.1763l-0.020528-0.018818c-0.061621-0.068811-0.14377-0.097087-0.2463-0.084465-0.10951 0.012523-0.18824 0.050191-0.23609 0.11304l-1.0573 1.2701c-0.10268 0.12543-0.095739 0.25399 0.020564 0.38571 0.034262 0.037668 0.094121 0.094253 0.17961 0.16939 0.085709 0.075436 0.24483 0.19286 0.47737 0.35312 0.23261 0.16003 0.48581 0.31038 0.75959 0.45169 0.27374 0.14108 0.62096 0.28058 1.0419 0.41864 0.42092 0.13782 0.85705 0.23501 1.3087 0.29143v1.6466c0 0.081664 0.032536 0.15216 0.097501 0.21181 0.065036 0.059683 0.14197 0.089343 0.23092 0.089343h1.3858c0.095955 0 0.17469-0.028177 0.2362-0.084564 0.061513-0.056387 0.092144-0.12856 0.092144-0.21655v-1.6466c1.0882-0.16306 1.9727-0.59119 2.6534-1.2843 0.68085-0.69316 1.0214-1.5196 1.0214-2.4792-3.595e-4 -0.31357-0.04476-0.60839-0.13457-0.88456z" fill="#fff"/>
        </g>
        <g transform="translate(641.56 165.5)" fill-rule="nonzero">
            <circle cx="14.453" cy="14.453" r="14.453" fill="#F58823"/>
            <path d="m19.049 17.918c-0.22749-0.22749-0.56873-0.17062-0.79623 0.056874l-0.056874 0.056873c-0.51186 0.56873-1.5356 1.6493-3.2418 1.6493-1.1375 0-2.1612-0.45499-2.9574-1.1943-0.17062-0.17062-0.056873-0.51186 0.22749-0.51186h1.5925c0.34124 0 0.56873-0.22749 0.56873-0.56873v-1.1375c0-0.34124-0.22749-0.56873-0.56873-0.56873h-3.0712c-0.11375 0-0.28437-0.11375-0.28437-0.22749-0.056874-0.28437-0.056874-0.56873-0.056874-0.90998s0-0.62561 0.056874-0.90998c0-0.11375 0.17062-0.22749 0.28437-0.22749h3.0712c0.34124 0 0.56873-0.22749 0.56873-0.56873v-1.1375c0-0.34124-0.22749-0.56873-0.56873-0.56873h-1.5925c-0.22749 0-0.39811-0.34124-0.22749-0.51186 0.79623-0.73936 1.82-1.1943 2.9574-1.1943 1.7062 0 2.7299 1.1375 3.2418 1.6493l0.056874 0.056873c0.22749 0.22749 0.56873 0.22749 0.79623 0.056874l0.8531-0.73936c0.11375-0.11375 0.17062-0.22749 0.17062-0.39811 0-0.17062-0.056874-0.28437-0.17062-0.39811-0.62561-0.62561-2.2181-2.4456-4.948-2.4456-2.5593 0-4.8342 1.5356-5.9717 3.8105-0.056873 0.11375-0.17062 0.17062-0.22749 0.17062h-1.7631c-0.34124 0-0.56873 0.22749-0.56873 0.56873v1.1375c0 0.34124 0.22749 0.56873 0.56873 0.56873h0.90998c0.17062 0 0.28437 0.17062 0.28437 0.34124-0.056873 0.28437-0.056873 0.56873-0.056873 0.79623s0 0.56873 0.056873 0.79623c0 0.17062-0.11375 0.34124-0.28437 0.34124h-0.90998c-0.34124 0-0.56873 0.22749-0.56873 0.56873v1.1375c0 0.34124 0.22749 0.56873 0.56873 0.56873h1.7631c0.11375 0 0.22749 0.056874 0.22749 0.17062 1.1375 2.2749 3.4124 3.8105 5.9717 3.8105 2.7299 0 4.3224-1.7631 4.948-2.4456 0.11375-0.11375 0.17062-0.22749 0.17062-0.39811 0-0.17062-0.056874-0.34124-0.17062-0.39811l-0.8531-0.8531z" fill="#fff"/>
        </g>
        <path d="m373.71 187.94l-9.8558-5.8212 9.8538 13.891 9.8639-13.891-9.8639 5.8212h0.002007zm0.14854-24.047l-9.8558 16.355 9.8558 5.8272 9.8558-5.8252-9.8538-16.357h-0.002008z" fill="#4A4A4A" fill-rule="nonzero"/>
    </g>
</svg>
