<?xml version="1.0" encoding="UTF-8"?>
<svg width="849px" height="586px" viewBox="0 0 849 586" version="1.1" xmlns="http://www.w3.org/2000/svg" xmlns:xlink="http://www.w3.org/1999/xlink">
    <!-- Generator: Sketch 47.1 (45422) - http://www.bohemiancoding.com/sketch -->
    <title>Slice 1</title>
    <desc>Created with Sketch.</desc>
    <defs>
        <path d="M28.4224329,0 L806.27244,0 C821.969716,0 834.694873,12.7266141 834.694873,28.4224318 L834.694873,542.815791 C834.694873,558.513067 821.96711,571.238223 806.27244,571.238223 L28.4224329,571.238223 C12.7251567,571.238223 0,558.511609 0,542.815791 L0,28.4224318 C0,12.7251562 12.7277631,0 28.4224329,0 Z" id="path-1"></path>
        <filter x="-3.1%" y="-3.7%" width="106.2%" height="109.1%" filterUnits="objectBoundingBox" id="filter-2">
            <feOffset dx="0" dy="5" in="SourceAlpha" result="shadowOffsetOuter1"></feOffset>
            <feGaussianBlur stdDeviation="7.5" in="shadowOffsetOuter1" result="shadowBlurOuter1"></feGaussianBlur>
            <feComposite in="shadowBlurOuter1" in2="SourceAlpha" operator="out" result="shadowBlurOuter1"></feComposite>
            <feColorMatrix values="0 0 0 0 0   0 0 0 0 0   0 0 0 0 0  0 0 0 0.07 0" type="matrix" in="shadowBlurOuter1" result="shadowMatrixOuter1"></feColorMatrix>
            <feMorphology radius="0.5" operator="dilate" in="SourceAlpha" result="shadowSpreadOuter2"></feMorphology>
            <feOffset dx="0" dy="0" in="shadowSpreadOuter2" result="shadowOffsetOuter2"></feOffset>
            <feComposite in="shadowOffsetOuter2" in2="SourceAlpha" operator="out" result="shadowOffsetOuter2"></feComposite>
            <feColorMatrix values="0 0 0 0 0   0 0 0 0 0   0 0 0 0 0  0 0 0 0.03 0" type="matrix" in="shadowOffsetOuter2" result="shadowMatrixOuter2"></feColorMatrix>
            <feMerge>
                <feMergeNode in="shadowMatrixOuter1"></feMergeNode>
                <feMergeNode in="shadowMatrixOuter2"></feMergeNode>
            </feMerge>
        </filter>
        <linearGradient x1="50%" y1="0%" x2="50%" y2="100%" id="linearGradient-3">
            <stop stop-color="#F3F4F6" offset="0%"></stop>
            <stop stop-color="#FFFFFF" offset="100%"></stop>
        </linearGradient>
    </defs>
    <g id="Page-1" stroke="none" stroke-width="1" fill="none" fill-rule="evenodd">
        <g id="Group" transform="translate(4.856000, 6.324000)" fill-rule="nonzero">
            <g id="home_client-h-link" transform="translate(0.000000, 2.000000)" fill="#FFFFFF">
                <path d="M28.4224329,0 L806.27244,0 C821.969716,0 834.694873,12.7266141 834.694873,28.4224318 L834.694873,542.815791 C834.694873,558.513067 821.96711,571.238223 806.27244,571.238223 L28.4224329,571.238223 C12.7251567,571.238223 0,558.511609 0,542.815791 L0,28.4224318 C0,12.7251562 12.7277631,0 28.4224329,0 Z" id="home_client-h"></path>
            </g>
            <g id="home_client-h-link" transform="translate(1.000000, 0.000000)">
                <g id="home_client-h">
                    <use fill="black" fill-opacity="1" filter="url(#filter-2)" xlink:href="#path-1"></use>
                    <use fill="#FFFFFF" fill-rule="evenodd" xlink:href="#path-1"></use>
                    <path stroke="#E2DEDE" stroke-width="1" d="M28.4224329,0.5 C13.0029982,0.5 0.5,13.0022058 0.5,28.4224318 L0.5,542.815791 C0.5,558.235974 13.0018065,570.738223 28.4224329,570.738223 L806.27244,570.738223 C821.691875,570.738223 834.194873,558.236017 834.194873,542.815791 L834.194873,28.4224318 C834.194873,13.0022491 821.693066,0.5 806.27244,0.5 L28.4224329,0.5 Z"></path>
                </g>
            </g>
            <path d="M636.513642,116.323593 C637.612496,116.323593 638.503294,115.432795 638.503294,114.333941 C638.503294,113.235086 637.612496,112.344288 636.513642,112.344288 C635.414787,112.344288 634.523989,113.235086 634.523989,114.333941 C634.523989,115.432795 635.414787,116.323593 636.513642,116.323593 Z" id="Shape" fill="url(#linearGradient-3)" style="mix-blend-mode: multiply;"></path>
        </g>
        <path d="M77.6954161,68.3458978 L759.797606,68.3458978 L759.797606,68.3458978 C761.45446,68.3458978 762.797606,69.6890436 762.797606,71.3458978 L762.797606,121.550277 L762.797606,121.550277 C762.797606,123.207132 761.45446,124.550277 759.797606,124.550277 L77.6954161,124.550277 L77.6954161,124.550277 C76.0385618,124.550277 74.6954161,123.207132 74.6954161,121.550277 L74.6954161,71.3458978 L74.6954161,71.3458978 C74.6954161,69.6890436 76.0385618,68.3458978 77.6954161,68.3458978 Z" id="Shape" fill="#3F46AD" fill-rule="nonzero" opacity="0.8"></path>
        <path d="M77.6954161,294.769255 L759.797606,294.769255 L759.797606,294.769255 C761.45446,294.769255 762.797606,296.112401 762.797606,297.769255 L762.797606,323.886044 L762.797606,323.886044 C762.797606,325.542898 761.45446,326.886044 759.797606,326.886044 L77.6954161,326.886044 L77.6954161,326.886044 C76.0385618,326.886044 74.6954161,325.542898 74.6954161,323.886044 L74.6954161,297.769255 L74.6954161,297.769255 C74.6954161,296.112401 76.0385618,294.769255 77.6954161,294.769255 Z" id="Shape" fill="#263F6F" fill-rule="nonzero" opacity="0.3"></path>
        <polygon id="Shape" fill="#DFE4EE" fill-rule="nonzero" opacity="0.5" points="74.695 359.003 762.798 359.003 762.798 359.806 74.695 359.806"></polygon>
        <polygon id="Shape" fill="#DFE4EE" fill-rule="nonzero" opacity="0.5" points="74.695 391.12 762.798 391.12 762.798 391.923 74.695 391.923"></polygon>
        <polygon id="Shape" fill="#DFE4EE" fill-rule="nonzero" opacity="0.5" points="74.695 423.236 762.798 423.236 762.798 424.039 74.695 424.039"></polygon>
        <polygon id="Shape" fill="#DFE4EE" fill-rule="nonzero" opacity="0.5" points="74.695 455.353 762.798 455.353 762.798 456.156 74.695 456.156"></polygon>
        <polygon id="Shape" fill="#DFE4EE" fill-rule="nonzero" opacity="0.5" points="74.695 487.47 762.798 487.47 762.798 488.273 74.695 488.273"></polygon>
        <polygon id="Shape" fill="#DFE4EE" fill-rule="nonzero" opacity="0.5" points="74.695 519.587 762.798 519.587 762.798 520.39 74.695 520.39"></polygon>
        <g id="Group-53" transform="translate(89.856000, 168.324000)" stroke-width="1.83291429" stroke="#656BBD">
            <circle id="Oval-3" cx="11.9988387" cy="12.2307899" r="7.35483871"></circle>
            <circle id="Oval-3" cx="12" cy="12" r="12"></circle>
        </g>
        <path d="M88.936292,225.718161 L116.65892,225.718161 L116.65892,225.718161 C118.315774,225.718161 119.65892,227.061306 119.65892,228.718161 L119.65892,239.579474 L119.65892,239.579474 C119.65892,241.236329 118.315774,242.579474 116.65892,242.579474 L88.936292,242.579474 L88.936292,242.579474 C87.2794377,242.579474 85.936292,241.236329 85.936292,239.579474 L85.936292,228.718161 L85.936292,228.718161 C85.936292,227.061306 87.2794377,225.718161 88.936292,225.718161 Z M162.804905,225.718161 L190.527533,225.718161 L190.527533,225.718161 C192.184387,225.718161 193.527533,227.061306 193.527533,228.718161 L193.527533,239.579474 L193.527533,239.579474 C193.527533,241.236329 192.184387,242.579474 190.527533,242.579474 L162.804905,242.579474 L162.804905,242.579474 C161.148051,242.579474 159.804905,241.236329 159.804905,239.579474 L159.804905,228.718161 L159.804905,228.718161 C159.804905,227.061306 161.148051,225.718161 162.804905,225.718161 Z M125.870599,225.718161 L153.593226,225.718161 L153.593226,225.718161 C155.250081,225.718161 156.593226,227.061306 156.593226,228.718161 L156.593226,239.579474 L156.593226,239.579474 C156.593226,241.236329 155.250081,242.579474 153.593226,242.579474 L125.870599,242.579474 L125.870599,242.579474 C124.213744,242.579474 122.870599,241.236329 122.870599,239.579474 L122.870599,228.718161 L122.870599,228.718161 C122.870599,227.061306 124.213744,225.718161 125.870599,225.718161 Z" id="Shape" fill="#DFE4EE" fill-rule="nonzero"></path>
        <path d="M321.994686,81.9955328 L515.617519,81.9955328" id="Shape" stroke="#FFFFFF" stroke-width="6" opacity="0.4" stroke-linecap="round"></path>
        <path d="M329.220964,342.944438 L340.467534,342.944438" id="Shape" stroke="#DFE4EE" stroke-width="6" stroke-linecap="round"></path>
        <path d="M77.9070949,342.944438 L110.832497,342.944438" id="Shape" stroke="#263F6F" stroke-width="6" opacity="0.3" stroke-linecap="round"></path>
        <path d="M124.476438,342.944438 L155.796001,342.944438" id="Shape" stroke="#DFE4EE" stroke-width="6" stroke-linecap="round"></path>
        <path d="M77.9070949,375.061226 L110.832497,375.061226" id="Shape" stroke="#263F6F" stroke-width="6" opacity="0.3" stroke-linecap="round"></path>
        <path d="M124.476438,375.061226 L155.796001,375.061226" id="Shape" stroke="#DFE4EE" stroke-width="6" stroke-linecap="round"></path>
        <path d="M77.9070949,407.178015 L110.832497,407.178015" id="Shape" stroke="#263F6F" stroke-width="6" opacity="0.3" stroke-linecap="round"></path>
        <path d="M124.476438,407.178015 L155.796001,407.178015" id="Shape" stroke="#DFE4EE" stroke-width="6" stroke-linecap="round"></path>
        <path d="M77.9070949,439.294803 L110.832497,439.294803" id="Shape" stroke="#263F6F" stroke-width="6" opacity="0.3" stroke-linecap="round"></path>
        <path d="M124.476438,439.294803 L155.796001,439.294803" id="Shape" stroke="#DFE4EE" stroke-width="6" stroke-linecap="round"></path>
        <path d="M77.9070949,471.411591 L110.832497,471.411591" id="Shape" stroke="#263F6F" stroke-width="6" opacity="0.3" stroke-linecap="round"></path>
        <path d="M124.476438,471.411591 L155.796001,471.411591" id="Shape" stroke="#DFE4EE" stroke-width="6" stroke-linecap="round"></path>
        <path d="M77.9070949,503.52838 L110.832497,503.52838" id="Shape" stroke="#263F6F" stroke-width="6" opacity="0.3" stroke-linecap="round"></path>
        <path d="M124.476438,503.52838 L155.796001,503.52838 M277.834102,342.944438 L307.547826,342.944438 M176.666219,342.944438 L256.160964,342.944438 M615.06038,342.944438 L644.774103,342.944438" id="Shape" stroke="#DFE4EE" stroke-width="6" stroke-linecap="round"></path>
        <path d="M664.841401,342.944438 L694.555125,342.944438" id="Shape" stroke="#263F6F" stroke-width="6" opacity="0.3" stroke-linecap="round"></path>
        <path d="M473.746511,342.944438 L484.993081,342.944438" id="Shape" stroke="#DFE4EE" stroke-width="6" stroke-linecap="round"></path>
        <path d="M149.366949,175.937139 L192.730308,175.937139" id="Shape" stroke="#263F6F" stroke-width="6" opacity="0.3" stroke-linecap="round"></path>
        <path d="M165.425343,186.375095 L192.730308,186.375095" id="Shape" stroke="#DFE4EE" stroke-width="6" stroke-linecap="round"></path>
        <g id="Group" transform="translate(318.783000, 94.039000)" fill-rule="nonzero" fill="#FFFFFF">
            <circle id="Oval" cx="10.149" cy="10.149" r="10.149"></circle>
            <circle id="Oval" opacity="0.4" cx="40.221" cy="10.149" r="10.149"></circle>
            <circle id="Oval" opacity="0.4" cx="70.293" cy="10.149" r="10.149"></circle>
            <circle id="Oval" opacity="0.4" cx="100.365" cy="10.149" r="10.149"></circle>
            <circle id="Oval" opacity="0.4" cx="130.437" cy="10.149" r="10.149"></circle>
            <circle id="Oval" opacity="0.4" cx="160.509" cy="10.149" r="10.149"></circle>
            <circle id="Oval" opacity="0.4" cx="190.581" cy="10.149" r="10.149"></circle>
        </g>
        <circle id="Oval" fill="#FFFFFF" fill-rule="nonzero" opacity="0.4" cx="746.739" cy="84.404" r="6.423"></circle>
        <circle id="Oval" fill="#263F6F" fill-rule="nonzero" opacity="0.3" cx="746.739" cy="342.944" r="6.423"></circle>
        <path d="M329.220964,375.061226 L452.876293,375.061226" id="Shape" stroke="#263F6F" stroke-width="6" opacity="0.3" stroke-linecap="round"></path>
        <path d="M277.834102,375.061226 L307.547826,375.061226 M176.666219,375.061226 L232.073373,375.061226 M615.06038,375.061226 L644.774103,375.061226 M664.841401,375.061226 L694.555125,375.061226 M473.746511,375.061226 L484.993081,375.061226" id="Shape" stroke="#DFE4EE" stroke-width="6" stroke-linecap="round"></path>
        <circle id="Oval" fill="#263F6F" fill-rule="nonzero" opacity="0.3" cx="746.739" cy="375.061" r="6.423"></circle>
        <path d="M329.220964,407.178015 L340.467534,407.178015 M277.834102,407.178015 L307.547826,407.178015 M176.666219,407.178015 L256.160964,407.178015" id="Shape" stroke="#DFE4EE" stroke-width="6" stroke-linecap="round"></path>
        <path d="M615.06038,407.178015 L644.774103,407.178015" id="Shape" stroke="#263F6F" stroke-width="6" opacity="0.3" stroke-linecap="round"></path>
        <path d="M664.841401,407.178015 L694.555125,407.178015 M473.746511,407.178015 L484.993081,407.178015" id="Shape" stroke="#DFE4EE" stroke-width="6" stroke-linecap="round"></path>
        <circle id="Oval" fill="#263F6F" fill-rule="nonzero" opacity="0.3" cx="746.739" cy="407.178" r="6.423"></circle>
        <path d="M329.220964,439.294803 L340.467534,439.294803 M277.834102,439.294803 L307.547826,439.294803 M176.666219,439.294803 L207.985782,439.294803 M615.06038,439.294803 L644.774103,439.294803" id="Shape" stroke="#DFE4EE" stroke-width="6" stroke-linecap="round"></path>
        <path d="M664.841401,439.294803 L694.555125,439.294803 M473.746511,439.294803 L597.40184,439.294803" id="Shape" stroke="#263F6F" stroke-width="6" opacity="0.3" stroke-linecap="round"></path>
        <circle id="Oval" fill="#263F6F" fill-rule="nonzero" opacity="0.3" cx="746.739" cy="439.295" r="6.423"></circle>
        <path d="M329.220964,471.411591 L452.876293,471.411591" id="Shape" stroke="#263F6F" stroke-width="6" opacity="0.3" stroke-linecap="round"></path>
        <path d="M277.834102,471.411591 L307.547826,471.411591 M176.666219,471.411591 L256.160964,471.411591 M615.06038,471.411591 L644.774103,471.411591 M664.841401,471.411591 L694.555125,471.411591 M473.746511,471.411591 L484.993081,471.411591" id="Shape" stroke="#DFE4EE" stroke-width="6" stroke-linecap="round"></path>
        <circle id="Oval" fill="#263F6F" fill-rule="nonzero" opacity="0.3" cx="746.739" cy="471.412" r="6.423"></circle>
        <path d="M329.220964,503.52838 L452.876293,503.52838" id="Shape" stroke="#263F6F" stroke-width="6" opacity="0.3" stroke-linecap="round"></path>
        <path d="M277.834102,503.52838 L307.547826,503.52838 M176.666219,503.52838 L256.160964,503.52838 M615.06038,503.52838 L644.774103,503.52838" id="Shape" stroke="#DFE4EE" stroke-width="6" stroke-linecap="round"></path>
        <path d="M664.841401,503.52838 L694.555125,503.52838" id="Shape" stroke="#263F6F" stroke-width="6" opacity="0.3" stroke-linecap="round"></path>
        <path d="M473.746511,503.52838 L484.993081,503.52838" id="Shape" stroke="#DFE4EE" stroke-width="6" stroke-linecap="round"></path>
        <circle id="Oval" fill="#263F6F" fill-rule="nonzero" opacity="0.3" cx="746.739" cy="503.528" r="6.423"></circle>
        <circle id="Oval" fill="#FFFFFF" fill-rule="nonzero" opacity="0.4" cx="721.849" cy="84.404" r="6.423"></circle>
        <circle id="Oval" fill="#FFFFFF" fill-rule="nonzero" opacity="0.4" cx="696.155" cy="84.404" r="6.423"></circle>
        <circle id="Oval" fill="#FFFFFF" fill-rule="nonzero" opacity="0.4" cx="671.666" cy="84.003" r="6.022"></circle>
        <path d="M88.8924964,149.137869 C80.8843675,149.137869 74.3924964,155.62974 74.3924964,163.637869 L74.3924964,239.622613 C74.3924964,247.630742 80.8843675,254.122613 88.8924964,254.122613 L190.571328,254.122613 C198.579457,254.122613 205.071328,247.630742 205.071328,239.622613 L205.071328,163.637869 C205.071328,155.62974 198.579457,149.137869 190.571328,149.137869 L88.8924964,149.137869 Z" id="Shape" stroke="#DFE4EE" opacity="0.5"></path>
        <path d="M227.038482,225.718161 L254.761109,225.718161 L254.761109,225.718161 C256.417964,225.718161 257.761109,227.061306 257.761109,228.718161 L257.761109,239.579474 L257.761109,239.579474 C257.761109,241.236329 256.417964,242.579474 254.761109,242.579474 L227.038482,242.579474 L227.038482,242.579474 C225.381628,242.579474 224.038482,241.236329 224.038482,239.579474 L224.038482,228.718161 L224.038482,228.718161 C224.038482,227.061306 225.381628,225.718161 227.038482,225.718161 Z M300.907095,225.718161 L328.629723,225.718161 L328.629723,225.718161 C330.286577,225.718161 331.629723,227.061306 331.629723,228.718161 L331.629723,239.579474 L331.629723,239.579474 C331.629723,241.236329 330.286577,242.579474 328.629723,242.579474 L300.907095,242.579474 L300.907095,242.579474 C299.250241,242.579474 297.907095,241.236329 297.907095,239.579474 L297.907095,228.718161 L297.907095,228.718161 C297.907095,227.061306 299.250241,225.718161 300.907095,225.718161 Z M263.972788,225.718161 L291.695416,225.718161 L291.695416,225.718161 C293.35227,225.718161 294.695416,227.061306 294.695416,228.718161 L294.695416,239.579474 L294.695416,239.579474 C294.695416,241.236329 293.35227,242.579474 291.695416,242.579474 L263.972788,242.579474 L263.972788,242.579474 C262.315934,242.579474 260.972788,241.236329 260.972788,239.579474 L260.972788,228.718161 L260.972788,228.718161 C260.972788,227.061306 262.315934,225.718161 263.972788,225.718161 Z" id="Shape" fill="#DFE4EE" fill-rule="nonzero"></path>
        <path d="M287.469139,175.937139 L330.832497,175.937139" id="Shape" stroke="#263F6F" stroke-width="6" opacity="0.3" stroke-linecap="round"></path>
        <path d="M303.527533,186.375095 L330.832497,186.375095" id="Shape" stroke="#DFE4EE" stroke-width="6" stroke-linecap="round"></path>
        <path d="M226.994686,149.137869 C218.986557,149.137869 212.494686,155.62974 212.494686,163.637869 L212.494686,239.622613 C212.494686,247.630742 218.986557,254.122613 226.994686,254.122613 L328.673518,254.122613 C336.681647,254.122613 343.173518,247.630742 343.173518,239.622613 L343.173518,163.637869 C343.173518,155.62974 336.681647,149.137869 328.673518,149.137869 L226.994686,149.137869 Z" id="Shape" stroke="#DFE4EE" opacity="0.5"></path>
        <path d="M365.943591,225.718161 L393.666219,225.718161 L393.666219,225.718161 C395.323073,225.718161 396.666219,227.061306 396.666219,228.718161 L396.666219,239.579474 L396.666219,239.579474 C396.666219,241.236329 395.323073,242.579474 393.666219,242.579474 L365.943591,242.579474 L365.943591,242.579474 C364.286737,242.579474 362.943591,241.236329 362.943591,239.579474 L362.943591,228.718161 L362.943591,228.718161 C362.943591,227.061306 364.286737,225.718161 365.943591,225.718161 Z M439.812204,225.718161 L467.534832,225.718161 L467.534832,225.718161 C469.191686,225.718161 470.534832,227.061306 470.534832,228.718161 L470.534832,239.579474 L470.534832,239.579474 C470.534832,241.236329 469.191686,242.579474 467.534832,242.579474 L439.812204,242.579474 L439.812204,242.579474 C438.15535,242.579474 436.812204,241.236329 436.812204,239.579474 L436.812204,228.718161 L436.812204,228.718161 C436.812204,227.061306 438.15535,225.718161 439.812204,225.718161 Z M402.877898,225.718161 L430.600526,225.718161 L430.600526,225.718161 C432.25738,225.718161 433.600526,227.061306 433.600526,228.718161 L433.600526,239.579474 L433.600526,239.579474 C433.600526,241.236329 432.25738,242.579474 430.600526,242.579474 L402.877898,242.579474 L402.877898,242.579474 C401.221044,242.579474 399.877898,241.236329 399.877898,239.579474 L399.877898,228.718161 L399.877898,228.718161 C399.877898,227.061306 401.221044,225.718161 402.877898,225.718161 Z" id="Shape" fill="#DFE4EE" fill-rule="nonzero"></path>
        <path d="M426.374248,175.937139 L469.737607,175.937139" id="Shape" stroke="#263F6F" stroke-width="6" opacity="0.3" stroke-linecap="round"></path>
        <path d="M442.432642,186.375095 L469.737607,186.375095" id="Shape" stroke="#DFE4EE" stroke-width="6" stroke-linecap="round"></path>
        <path d="M365.899796,149.137869 C357.891667,149.137869 351.399796,155.62974 351.399796,163.637869 L351.399796,239.622613 C351.399796,247.630742 357.891667,254.122613 365.899796,254.122613 L467.578628,254.122613 C475.586757,254.122613 482.078628,247.630742 482.078628,239.622613 L482.078628,163.637869 C482.078628,155.62974 475.586757,149.137869 467.578628,149.137869 L365.899796,149.137869 Z" id="Shape" stroke="#DFE4EE" opacity="0.5"></path>
        <path d="M504.848701,225.718161 L532.571328,225.718161 L532.571328,225.718161 C534.228183,225.718161 535.571328,227.061306 535.571328,228.718161 L535.571328,239.579474 L535.571328,239.579474 C535.571328,241.236329 534.228183,242.579474 532.571328,242.579474 L504.848701,242.579474 L504.848701,242.579474 C503.191846,242.579474 501.848701,241.236329 501.848701,239.579474 L501.848701,228.718161 L501.848701,228.718161 C501.848701,227.061306 503.191846,225.718161 504.848701,225.718161 Z M578.717314,225.718161 L606.439942,225.718161 L606.439942,225.718161 C608.096796,225.718161 609.439942,227.061306 609.439942,228.718161 L609.439942,239.579474 L609.439942,239.579474 C609.439942,241.236329 608.096796,242.579474 606.439942,242.579474 L578.717314,242.579474 L578.717314,242.579474 C577.06046,242.579474 575.717314,241.236329 575.717314,239.579474 L575.717314,228.718161 L575.717314,228.718161 C575.717314,227.061306 577.06046,225.718161 578.717314,225.718161 Z M541.783007,225.718161 L569.505635,225.718161 L569.505635,225.718161 C571.162489,225.718161 572.505635,227.061306 572.505635,228.718161 L572.505635,239.579474 L572.505635,239.579474 C572.505635,241.236329 571.162489,242.579474 569.505635,242.579474 L541.783007,242.579474 L541.783007,242.579474 C540.126153,242.579474 538.783007,241.236329 538.783007,239.579474 L538.783007,228.718161 L538.783007,228.718161 C538.783007,227.061306 540.126153,225.718161 541.783007,225.718161 Z" id="Shape" fill="#DFE4EE" fill-rule="nonzero"></path>
        <path d="M565.279358,175.937139 L608.642716,175.937139" id="Shape" stroke="#263F6F" stroke-width="6" opacity="0.3" stroke-linecap="round"></path>
        <path d="M581.337752,186.375095 L608.642716,186.375095" id="Shape" stroke="#DFE4EE" stroke-width="6" stroke-linecap="round"></path>
        <path d="M504.804905,149.137869 C496.796776,149.137869 490.304905,155.62974 490.304905,163.637869 L490.304905,239.622613 C490.304905,247.630742 496.796776,254.122613 504.804905,254.122613 L606.483737,254.122613 C614.491866,254.122613 620.983737,247.630742 620.983737,239.622613 L620.983737,163.637869 C620.983737,155.62974 614.491866,149.137869 606.483737,149.137869 L504.804905,149.137869 Z" id="Shape" stroke="#DFE4EE" opacity="0.5"></path>
        <path d="M643.75381,225.718161 L671.476438,225.718161 L671.476438,225.718161 C673.133292,225.718161 674.476438,227.061306 674.476438,228.718161 L674.476438,239.579474 L674.476438,239.579474 C674.476438,241.236329 673.133292,242.579474 671.476438,242.579474 L643.75381,242.579474 L643.75381,242.579474 C642.096956,242.579474 640.75381,241.236329 640.75381,239.579474 L640.75381,228.718161 L640.75381,228.718161 C640.75381,227.061306 642.096956,225.718161 643.75381,225.718161 Z M717.622423,225.718161 L745.345051,225.718161 L745.345051,225.718161 C747.001905,225.718161 748.345051,227.061306 748.345051,228.718161 L748.345051,239.579474 L748.345051,239.579474 C748.345051,241.236329 747.001905,242.579474 745.345051,242.579474 L717.622423,242.579474 L717.622423,242.579474 C715.965569,242.579474 714.622423,241.236329 714.622423,239.579474 L714.622423,228.718161 L714.622423,228.718161 C714.622423,227.061306 715.965569,225.718161 717.622423,225.718161 Z M680.688117,225.718161 L708.410745,225.718161 L708.410745,225.718161 C710.067599,225.718161 711.410745,227.061306 711.410745,228.718161 L711.410745,239.579474 L711.410745,239.579474 C711.410745,241.236329 710.067599,242.579474 708.410745,242.579474 L680.688117,242.579474 L680.688117,242.579474 C679.031263,242.579474 677.688117,241.236329 677.688117,239.579474 L677.688117,228.718161 L677.688117,228.718161 C677.688117,227.061306 679.031263,225.718161 680.688117,225.718161 Z" id="Shape" fill="#4F89DC" fill-rule="nonzero"></path>
        <path d="M704.184467,175.937139 L747.547826,175.937139 M720.242861,186.375095 L747.547826,186.375095" id="Shape" stroke="#DFE4EE" stroke-width="6" stroke-linecap="round"></path>
        <path d="M643.710015,149.137869 C635.701886,149.137869 629.210015,155.62974 629.210015,163.637869 L629.210015,239.622613 C629.210015,247.630742 635.701886,254.122613 643.710015,254.122613 L745.388847,254.122613 C753.396976,254.122613 759.888847,247.630742 759.888847,239.622613 L759.888847,163.637869 C759.888847,155.62974 753.396976,149.137869 745.388847,149.137869 L643.710015,149.137869 Z" id="Shape" stroke="#DFE4EE" opacity="0.5"></path>
        <path d="M643.75381,225.718161 L671.476438,225.718161 L671.476438,225.718161 C673.133292,225.718161 674.476438,227.061306 674.476438,228.718161 L674.476438,239.579474 L674.476438,239.579474 C674.476438,241.236329 673.133292,242.579474 671.476438,242.579474 L643.75381,242.579474 L643.75381,242.579474 C642.096956,242.579474 640.75381,241.236329 640.75381,239.579474 L640.75381,228.718161 L640.75381,228.718161 C640.75381,227.061306 642.096956,225.718161 643.75381,225.718161 Z M717.622423,225.718161 L745.345051,225.718161 L745.345051,225.718161 C747.001905,225.718161 748.345051,227.061306 748.345051,228.718161 L748.345051,239.579474 L748.345051,239.579474 C748.345051,241.236329 747.001905,242.579474 745.345051,242.579474 L717.622423,242.579474 L717.622423,242.579474 C715.965569,242.579474 714.622423,241.236329 714.622423,239.579474 L714.622423,228.718161 L714.622423,228.718161 C714.622423,227.061306 715.965569,225.718161 717.622423,225.718161 Z M680.688117,225.718161 L708.410745,225.718161 L708.410745,225.718161 C710.067599,225.718161 711.410745,227.061306 711.410745,228.718161 L711.410745,239.579474 L711.410745,239.579474 C711.410745,241.236329 710.067599,242.579474 708.410745,242.579474 L680.688117,242.579474 L680.688117,242.579474 C679.031263,242.579474 677.688117,241.236329 677.688117,239.579474 L677.688117,228.718161 L677.688117,228.718161 C677.688117,227.061306 679.031263,225.718161 680.688117,225.718161 Z" id="Shape" fill="#DFE4EE" fill-rule="nonzero"></path>
        <path d="M704.184467,175.937139 L747.547826,175.937139" id="Shape" stroke="#263F6F" stroke-width="6" opacity="0.2" stroke-linecap="round"></path>
        <path d="M720.242861,186.375095 L747.547826,186.375095" id="Shape" stroke="#DFE4EE" stroke-width="6" opacity="0.4" stroke-linecap="round"></path>
        <path d="M643.710015,149.137869 C635.701886,149.137869 629.210015,155.62974 629.210015,163.637869 L629.210015,239.622613 C629.210015,247.630742 635.701886,254.122613 643.710015,254.122613 L745.388847,254.122613 C753.396976,254.122613 759.888847,247.630742 759.888847,239.622613 L759.888847,163.637869 C759.888847,155.62974 753.396976,149.137869 745.388847,149.137869 L643.710015,149.137869 Z" id="Shape" stroke="#DFE4EE" opacity="0.5"></path>
        <g id="Group-2" transform="translate(227.000000, 165.000000)" fill-rule="nonzero">
            <g id="logo-celixir-non_responsive" transform="translate(0.856000, 0.500000)">
                <g id="Group">
                    <path d="M0.54375,18.30625 C-1.595,10.62125 2.9,2.6825 10.54875,0.54375 C18.1975,-1.595 26.1725,2.9 28.31125,10.54875 C30.45,18.1975 25.955,26.1725 18.30625,28.31125 C10.6575,30.45 2.6825,25.955 0.54375,18.30625 Z M18.01625,27.3325 C25.1575,25.33875 29.32625,17.94375 27.3325,10.8025 C25.33875,3.6975 17.94375,-0.47125 10.8025,1.5225 C3.66125,3.51625 -0.47125,10.91125 1.5225,18.01625 C3.51625,25.12125 10.91125,29.32625 18.01625,27.3325 Z" id="Shape" fill="#555759"></path>
                    <path d="M24.1425,5.945 C20.98875,2.32 15.91375,0.61625 10.9475,1.99375 C6.56125,3.22625 3.335,6.56125 2.1025,10.62125 C9.86,15.66 19.82875,9.53375 24.1425,5.945 Z" id="Shape" fill="#99252C"></path>
                    <path d="M1.595,13.08625 C1.45,14.645 1.55875,16.27625 1.99375,17.87125 C2.6825,20.40875 4.1325,22.5475 5.945,24.1425 C8.01125,17.00125 3.9875,14.68125 1.595,13.08625 Z" id="Shape" fill="#99252C"></path>
                    <path d="M15.47875,13.775 C15.47875,13.775 9.7875,17.94375 8.555,25.955 C11.34625,27.36875 14.645,27.80375 17.9075,26.8975 C24.75875,24.97625 28.7825,17.87125 26.86125,10.98375 C26.68,10.3675 26.4625,9.75125 26.20875,9.17125 C24.7225,9.53375 18.7775,11.165 15.47875,13.775 Z" id="Shape" fill="#99252C"></path>
                    <circle id="Oval" fill="#99252C" transform="translate(10.656463, 14.935044) rotate(-15.605389) translate(-10.656463, -14.935044) " cx="10.6564632" cy="14.9350435" r="1.3411981"></circle>
                    <circle id="Oval" fill="#99252C" transform="translate(7.363365, 15.117544) rotate(-15.605389) translate(-7.363365, -15.117544) " cx="7.36336463" cy="15.1175441" r="1.3411981"></circle>
                    <circle id="Oval" fill="#99252C" transform="translate(8.917630, 17.720374) rotate(-15.605389) translate(-8.917630, -17.720374) " cx="8.9176305" cy="17.7203739" r="1.3411981"></circle>
                </g>
            </g>
            <path d="M304.99475,5.366 C303.67775,4.05 301.91975,3.324 300.04475,3.324 C298.16975,3.324 296.41175,4.049 295.09575,5.366 L290.79175,9.67 L290.79075,9.67 L285.90275,14.559 C283.17375,17.288 283.17375,21.728 285.90275,24.458 C287.26775,25.823 289.05975,26.505 290.85275,26.505 C292.64475,26.505 294.43775,25.823 295.80175,24.458 L300.54375,19.716 L300.54475,19.715 L304.99375,15.266 C307.72375,12.536 307.72375,8.096 304.99475,5.366 Z M295.09475,23.751 C292.75475,26.091 288.94875,26.09 286.60975,23.751 C284.26975,21.412 284.26975,17.606 286.60975,15.266 L290.85175,11.023 L299.33675,19.509 L295.09475,23.751 Z M302.87375,8.195 C302.67875,8.389 302.36175,8.389 302.16675,8.195 C300.80275,6.829 298.58175,6.829 297.21675,8.195 L295.09675,10.316 C294.99875,10.414 294.87075,10.462 294.74275,10.462 C294.61475,10.462 294.48675,10.414 294.38875,10.316 C294.19375,10.121 294.19375,9.805 294.38875,9.608 L296.50875,7.487 C298.26375,5.733 301.11875,5.733 302.87275,7.487 C303.06875,7.683 303.06875,7.999 302.87375,8.195 Z" id="Shape" fill="#F58823"></path>
            <g id="medical-shield" transform="translate(422.856000, 4.324000)" fill="#000000">
                <path d="M20.73,0.574 C20.565,0.488 20.366,0.5 20.213,0.607 C18.445,1.841 16.987,2.392 15.486,2.392 C13.699,2.392 12.026,1.586 10.896,0.183 C10.706,-0.051 10.29,-0.051 10.1,0.184 C8.973,1.586 7.3,2.392 5.513,2.392 C4.01,2.392 2.552,1.842 0.786,0.607 C0.633,0.5 0.435,0.488 0.269,0.574 C0.104,0.66 0,0.831 0,1.019 L0.018,15.963 C0.018,15.963 1.644,21.534 10.366,23.979 C10.41,23.991 10.455,23.998 10.501,23.998 C10.546,23.998 10.592,23.991 10.636,23.979 C19.358,21.534 20.983,15.963 20.983,15.963 L21,1.019 C21,0.831 20.896,0.66 20.73,0.574 Z M15,12.497 L12.5,12.497 C12.224,12.497 12,12.722 12,12.997 L12,15.497 L9,15.497 L9,12.997 C9,12.722 8.776,12.497 8.5,12.497 L6,12.497 L6,9.497 L8.5,9.497 C8.776,9.497 9,9.273 9,8.997 L9,6.497 L12,6.497 L12,8.997 C12,9.273 12.224,9.497 12.5,9.497 L15,9.497 L15,12.497 Z" id="Shape"></path>
            </g>
            <path d="M163.16701,15.65 L157.70801,12.5 L163.16701,9.347 C163.40601,9.21 163.48801,8.904 163.35001,8.665 L160.85001,4.334 C160.78401,4.219 160.67401,4.135 160.54601,4.101 C160.41801,4.066 160.28101,4.084 160.16701,4.15 L154.70801,7.303 L154.70801,1 C154.70801,0.724 154.48301,0.5 154.20801,0.5 L149.20801,0.5 C148.93201,0.5 148.70801,0.724 148.70801,1 L148.70801,7.301 L143.25001,4.151 C143.13501,4.084 142.99801,4.066 142.87101,4.101 C142.74301,4.135 142.63401,4.219 142.56701,4.334 L140.06701,8.665 C139.92901,8.904 140.01101,9.209 140.25001,9.347 L145.70801,12.5 L140.25001,15.65 C140.01101,15.789 139.92901,16.094 140.06701,16.334 L142.56701,20.665 C142.63301,20.779 142.74301,20.863 142.87101,20.897 C142.99801,20.93 143.13501,20.913 143.25001,20.847 L148.70801,17.696 L148.70801,24 C148.70801,24.276 148.93201,24.5 149.20801,24.5 L154.20801,24.5 C154.48301,24.5 154.70801,24.276 154.70801,24 L154.70801,17.696 L160.16701,20.847 C160.28101,20.913 160.41801,20.93 160.54601,20.897 C160.67401,20.863 160.78301,20.779 160.85001,20.665 L163.35001,16.334 C163.41601,16.219 163.43401,16.082 163.40001,15.954 C163.36501,15.827 163.28101,15.717 163.16701,15.65 Z" id="Shape" fill="#FF0000"></path>
        </g>
        <g id="Group-61" transform="translate(89.000000, 80.000000)">
            <g id="Group-53" transform="translate(-0.000000, 1.000000)" stroke-width="2.08285714" stroke="#FFFFFF">
                <circle id="Oval-3" cx="14.024633" cy="14.2566452" r="8.58064516"></circle>
                <circle id="Oval-3" cx="14" cy="14" r="14"></circle>
            </g>
            <g id="Lifesci" transform="translate(34.144000, 0.676000)" font-size="20.736" font-family="GillSans, Gill Sans" line-spacing="27.216" fill="#FFFFFF" font-weight="normal">
                <text>
                    <tspan x="0.60375" y="19">Lifesci</tspan>
                </text>
            </g>
        </g>
    </g>
</svg>