<?xml version="1.0" encoding="UTF-8" standalone="no"?>
<svg width="64px" height="64px" viewBox="0 0 64 64" version="1.1" xmlns="http://www.w3.org/2000/svg" xmlns:xlink="http://www.w3.org/1999/xlink">
    <!-- Generator: Sketch 46.2 (44496) - http://www.bohemiancoding.com/sketch -->
    <title>docs-arrow (1)</title>
    <desc>Created with Sketch.</desc>
    <defs></defs>
    <g id="Page-1" stroke="none" stroke-width="1" fill="none" fill-rule="evenodd">
        <g id="docs-arrow-(1)" fill-rule="nonzero">
            <path d="M32,0 C14.4,0 0,14.4 0,32 C0,49.6 14.4,64 32,64 C49.6,64 64,49.6 64,32 C64,14.4 49.6,0 32,0 Z" id="Shape" fill="#888EE8"></path>
            <path d="M27.52,37.5712 L22.0736,32.144 C19.5136,30.032 15.6672,32.4448 17.5904,35.4624 L24.3168,45.4144 C25.2768,46.6176 27.8368,48.1248 30.4032,45.4144 C31.3632,44.2048 48.3072,23.4304 48.3072,23.4304 C50.5472,20.7168 47.3472,18.6048 45.1072,20.4128 L27.52,37.5712 Z" id="Shape" fill="#3F46AD"></path>
        </g>
    </g>
</svg>