<svg width="115px" height="36px" viewBox="0 0 115 36" version="1.1" xmlns="http://www.w3.org/2000/svg" xmlns:xlink="http://www.w3.org/1999/xlink">
    <g id="Page-1" stroke="none" stroke-width="1" fill="none" fill-rule="evenodd">
        <g id="logo" fill-rule="nonzero">
            <g id="Group">
                <g>
                    <g id="d-link" fill="#000000">
                        <circle id="d" cx="18" cy="18" r="18"></circle>
                    </g>
                    <g id="d-link" fill="#57A7ED">
                        <circle id="d" cx="18" cy="18" r="18"></circle>
                    </g>
                    <path d="M23.38,14.724 C24.582,11.47 24.768,8.907 23.654,8.264 C22.494,7.594 20.234,9.187 17.919,12.072 C15.456,9.312 13.116,7.839 11.992,8.569 C10.932,9.258 11.222,11.734 12.535,14.845 C9.307,15.445 7.149,16.533 7.149,17.775 C7.149,19.065 9.472,20.188 12.904,20.772 C11.578,24.199 11.334,26.932 12.49,27.6 C13.65,28.27 15.91,26.677 18.226,23.792 C20.689,26.552 23.028,28.024 24.152,27.294 C25.237,26.59 24.908,24.016 23.518,20.806 C27.061,20.232 29.476,19.09 29.476,17.776 C29.476,16.444 26.998,15.29 23.38,14.724 Z" id="Shape" fill="#FFFFFF" opacity="0.65"></path>
                    <path d="M23.38,14.724 C24.582,11.47 24.768,8.907 23.654,8.264 C22.494,7.594 20.234,9.187 17.919,12.072 C15.456,9.312 13.116,7.839 11.992,8.569 C10.932,9.258 11.222,11.734 12.535,14.845 C9.307,15.445 7.149,16.533 7.149,17.775 C7.149,19.065 9.472,20.188 12.904,20.772 C11.578,24.199 11.334,26.932 12.49,27.6 C13.65,28.27 15.91,26.677 18.226,23.792 C20.689,26.552 23.028,28.024 24.152,27.294 C25.237,26.59 24.908,24.016 23.518,20.806 C27.061,20.232 29.476,19.09 29.476,17.776 C29.476,16.444 26.998,15.29 23.38,14.724 Z M16.222,14.411 C16.7510189,13.6053909 17.3173,12.8248773 17.919,12.072 C18.5760305,12.8116199 19.1974034,13.5821623 19.781,14.381 C18.594885,14.3330991 17.407139,14.343111 16.222,14.411 L16.222,14.411 Z M16.111,21.133 C17.4445394,21.2149644 18.7816072,21.2226429 20.116,21.156 C19.531786,22.0666084 18.9009463,22.9464462 18.226,23.792 C17.473836,22.9442281 16.7678162,22.0566126 16.111,21.133 L16.111,21.133 Z M23.38,14.723 C23.016,15.707 22.56,16.753 22.019,17.828 C22.57259,18.7925933 23.0730042,19.7867449 23.518,20.806 C22.3912832,20.9850166 21.2555642,21.1018601 20.116,21.156 C20.8085101,20.0809606 21.4437291,18.9700785 22.019,17.828 C21.339053,16.6374393 20.5918428,15.4865753 19.781,14.381 C21.061,14.432 22.274,14.551 23.38,14.724 L23.38,14.723 Z M12.904,20.773 C13.2669613,19.8411694 13.6747709,18.9274357 14.126,18.035 C13.5335022,17.0039812 13.0025731,15.9387838 12.536,14.845 C13.7544541,14.6238767 14.9855084,14.4789289 16.222,14.411 C15.4537446,15.577392 14.753899,16.7874305 14.126,18.035 C14.7345841,19.1007319 15.3971108,20.1347409 16.111,21.133 C15.0363599,21.0701024 13.9658393,20.9499317 12.904,20.773 L12.904,20.773 Z" id="Shape" fill="#FFFFFF"></path>
                    <path d="M16.221,14.411 C15.4527446,15.577392 14.752899,16.7874305 14.125,18.035 C14.7335841,19.1007319 15.3961108,20.1347409 16.11,21.133 C17.4435394,21.2149644 18.7806072,21.2226429 20.115,21.156 C20.8075101,20.0809606 21.4427291,18.9700785 22.018,17.828 C21.338053,16.6374393 20.5908428,15.4865753 19.78,14.381 C18.593885,14.3330991 17.406139,14.343111 16.221,14.411 L16.221,14.411 Z" id="Shape" fill="#57A7ED"></path>
                </g>
                <path d="M48,26.431 L58.729,26.431 L58.729,24.342 L50.225,24.342 L50.225,9.786 L48,9.786 L48,26.431 L48,26.431 Z M60.976,26.431 L63.091,26.431 L63.091,13.941 L60.976,13.941 L60.976,26.431 Z M60.954,12.437 L63.113,12.437 L63.113,9.787 L60.953,9.787 L60.953,12.437 L60.954,12.437 Z M65.448,15.919 L67.761,15.919 L67.761,26.43 L69.898,26.43 L69.898,15.92 L73.071,15.92 L73.071,13.943 L69.898,13.943 L69.898,13.067 C69.898,11.809 70.295,10.91 71.925,10.91 L73.071,10.91 L73.071,9 L71.661,9 C68.599,9 67.761,10.595 67.761,13.066 L67.761,13.942 L65.448,13.942 L65.448,15.919 Z M80.143,26.679 C75.12,26.679 74.128,23.781 74.128,20.164 C74.128,16.57 75.208,13.65 80.098,13.65 C85.143,13.65 85.32,17.222 85.254,21.018 L76.199,21.018 C76.331,23.287 77.102,24.792 80.143,24.792 C82.125,24.792 83.095,24.275 84.042,23.556 L85.188,25.084 C83.888,26.117 82.456,26.679 80.143,26.679 L80.143,26.679 Z M80.033,15.582 C77.235,15.582 76.397,16.974 76.221,19.086 L83.227,19.086 C83.117,17.109 82.94,15.582 80.032,15.582 L80.033,15.582 Z M92.083,26.656 C95.696,26.656 97.238,25.668 97.238,22.815 C97.238,20.007 95.322,19.603 92.303,19.041 C90.299,18.681 89.55,18.39 89.55,17.221 C89.55,16.256 90.122,15.671 92.26,15.671 C93.691,15.671 94.947,16.031 95.872,16.548 L96.886,14.751 C95.718,14.054 94.11,13.65 92.216,13.65 C88.712,13.65 87.413,14.953 87.413,17.222 C87.413,20.074 89.329,20.569 92.215,21.085 C94.396,21.467 95.167,21.715 95.167,22.905 C95.167,24.41 94.308,24.747 92.215,24.747 C90.893,24.747 89.307,24.41 87.897,23.489 L86.796,25.196 C88.448,26.319 90.343,26.656 92.083,26.656 L92.083,26.656 Z M104.971,26.656 C107.13,26.656 108.341,26.005 109.597,24.814 L108.165,23.421 C107.24,24.275 106.381,24.701 105.059,24.701 C101.997,24.701 101.159,22.995 101.159,20.209 C101.159,17.424 102.041,15.761 105.059,15.761 C106.623,15.761 107.482,16.413 108.055,17.019 L109.619,15.514 C108.672,14.436 107.24,13.65 105.059,13.65 C100.256,13.65 99.001,16.3 99.001,20.164 C99.001,24.028 100.278,26.656 104.971,26.656 Z M112.263,26.431 L114.378,26.431 L114.378,13.941 L112.263,13.941 L112.263,26.431 Z M112.241,12.437 L114.4,12.437 L114.4,9.787 L112.241,9.787 L112.241,12.437 Z" id="Shape" fill="#FFFFFF"></path>
            </g>
        </g>
    </g>
</svg>