<svg xmlns="http://www.w3.org/2000/svg" xmlns:xlink="http://www.w3.org/1999/xlink" width="121" height="41" viewBox="8 0 121 41">
    <defs>
        <filter id="a" width="175%" height="175%" x="-37.5%" y="-20.8%" filterUnits="objectBoundingBox">
            <feOffset dy="1" in="SourceAlpha" result="shadowOffsetOuter1"/>
            <feGaussianBlur in="shadowOffsetOuter1" result="shadowBlurOuter1" stdDeviation="1"/>
            <feColorMatrix in="shadowBlurOuter1" result="shadowMatrixOuter1" values="0 0 0 0 0 0 0 0 0 0 0 0 0 0 0 0 0 0 0.08 0"/>
            <feMerge>
                <feMergeNode in="shadowMatrixOuter1"/>
                <feMergeNode in="SourceGraphic"/>
            </feMerge>
        </filter>
        <filter id="b" width="172.2%" height="172.2%" x="-36.1%" y="-22.2%" filterUnits="objectBoundingBox">
            <feOffset dy="2" in="SourceAlpha" result="shadowOffsetOuter1"/>
            <feGaussianBlur in="shadowOffsetOuter1" result="shadowBlurOuter1" stdDeviation="2"/>
            <feColorMatrix in="shadowBlurOuter1" result="shadowMatrixOuter1" values="0 0 0 0 0.196078431 0 0 0 0 0.196078431 0 0 0 0 0.356862745 0 0 0 0.11 0"/>
            <feMerge>
                <feMergeNode in="shadowMatrixOuter1"/>
                <feMergeNode in="SourceGraphic"/>
            </feMerge>
        </filter>
        <circle id="d" cx="18" cy="18" r="18"/>
        <filter id="c" width="150%" height="150%" x="-25%" y="-16.7%" filterUnits="objectBoundingBox">
            <feOffset dy="2" in="SourceAlpha" result="shadowOffsetOuter1"/>
            <feGaussianBlur in="shadowOffsetOuter1" result="shadowBlurOuter1" stdDeviation="2"/>
            <feColorMatrix in="shadowBlurOuter1" result="shadowMatrixOuter1" values="0 0 0 0 0.196078431 0 0 0 0 0.196078431 0 0 0 0 0.364705882 0 0 0 0.11 0"/>
            <feOffset dy="1" in="SourceAlpha" result="shadowOffsetOuter2"/>
            <feGaussianBlur in="shadowOffsetOuter2" result="shadowBlurOuter2" stdDeviation="1"/>
            <feColorMatrix in="shadowBlurOuter2" result="shadowMatrixOuter2" values="0 0 0 0 0 0 0 0 0 0 0 0 0 0 0 0 0 0 0.08 0"/>
            <feMerge>
                <feMergeNode in="shadowMatrixOuter1"/>
                <feMergeNode in="shadowMatrixOuter2"/>
            </feMerge>
        </filter>
    </defs>
    <g fill="none" fill-rule="evenodd">
        <g filter="url(#b)" transform="translate(6 2)">
            <use fill="#000" filter="url(#c)" xlink:href="#d"/>
            <use fill="#57A7ED" xlink:href="#d"/>
            <path fill="#FFF" d="M23.38 14.724c1.202-3.254 1.388-5.817.274-6.46-1.16-.67-3.42.923-5.735 3.808-2.463-2.76-4.803-4.233-5.927-3.503-1.06.689-.77 3.165.543 6.276-3.228.6-5.386 1.688-5.386 2.93 0 1.29 2.323 2.413 5.755 2.997-1.326 3.427-1.57 6.16-.414 6.828 1.16.67 3.42-.923 5.736-3.808 2.463 2.76 4.802 4.232 5.926 3.502 1.085-.704.756-3.278-.634-6.488 3.543-.574 5.958-1.716 5.958-3.03 0-1.332-2.478-2.486-6.096-3.052z" opacity=".65"/>
            <path fill="#FFF" d="M23.38 14.724c1.202-3.254 1.388-5.817.274-6.46-1.16-.67-3.42.923-5.735 3.808-2.463-2.76-4.803-4.233-5.927-3.503-1.06.689-.77 3.165.543 6.276-3.228.6-5.386 1.688-5.386 2.93 0 1.29 2.323 2.413 5.755 2.997-1.326 3.427-1.57 6.16-.414 6.828 1.16.67 3.42-.923 5.736-3.808 2.463 2.76 4.802 4.232 5.926 3.502 1.085-.704.756-3.278-.634-6.488 3.543-.574 5.958-1.716 5.958-3.03 0-1.332-2.478-2.486-6.096-3.052zm-7.158-.313a31.016 31.016 0 0 1 1.697-2.339 31.107 31.107 0 0 1 1.862 2.309 36.487 36.487 0 0 0-3.559.03zm-.111 6.722a36.007 36.007 0 0 0 4.005.023 31.432 31.432 0 0 1-1.89 2.636 31.606 31.606 0 0 1-2.115-2.659zm7.269-6.41c-.364.984-.82 2.03-1.361 3.105a30.499 30.499 0 0 1 1.499 2.978 31.08 31.08 0 0 1-3.402.35 36.3 36.3 0 0 0 1.903-3.328 36.105 36.105 0 0 0-2.238-3.447c1.28.051 2.493.17 3.599.343zm-10.476 6.05a31.02 31.02 0 0 1 1.222-2.738 30.124 30.124 0 0 1-1.59-3.19 29.796 29.796 0 0 1 3.686-.434 36.062 36.062 0 0 0-2.096 3.624 36.105 36.105 0 0 0 1.985 3.098 30.274 30.274 0 0 1-3.207-.36z"/>
            <path fill="#57A7ED" d="M16.221 14.411a36.062 36.062 0 0 0-2.096 3.624 36.105 36.105 0 0 0 1.985 3.098 36.007 36.007 0 0 0 4.005.023 36.3 36.3 0 0 0 1.903-3.328 36.105 36.105 0 0 0-2.238-3.447 36.487 36.487 0 0 0-3.559.03z"/>
        </g>
        <path fill="#FFF" d="M54 28.431h10.729v-2.089h-8.504V11.786H54v16.645zm12.976 0h2.115v-12.49h-2.115v12.49zm-.022-13.994h2.159v-2.65h-2.16v2.65zm4.494 3.482h2.313V28.43h2.137V17.92h3.173v-1.977h-3.173v-.876c0-1.258.397-2.157 2.027-2.157h1.146V11h-1.41c-3.062 0-3.9 1.595-3.9 4.066v.876h-2.313v1.977zm14.695 10.76c-5.023 0-6.015-2.898-6.015-6.515 0-3.594 1.08-6.514 5.97-6.514 5.045 0 5.222 3.572 5.156 7.368h-9.055c.132 2.269.903 3.774 3.944 3.774 1.982 0 2.952-.517 3.899-1.236l1.146 1.528c-1.3 1.033-2.732 1.595-5.045 1.595zm-.11-11.097c-2.798 0-3.636 1.392-3.812 3.504h7.006c-.11-1.977-.287-3.504-3.195-3.504zm12.05 11.074c3.613 0 5.155-.988 5.155-3.841 0-2.808-1.916-3.212-4.935-3.774-2.004-.36-2.753-.651-2.753-1.82 0-.965.572-1.55 2.71-1.55 1.431 0 2.687.36 3.612.877l1.014-1.797c-1.168-.697-2.776-1.101-4.67-1.101-3.504 0-4.803 1.303-4.803 3.572 0 2.852 1.916 3.347 4.802 3.863 2.181.382 2.952.63 2.952 1.82 0 1.505-.859 1.842-2.952 1.842-1.322 0-2.908-.337-4.318-1.258l-1.101 1.707c1.652 1.123 3.547 1.46 5.287 1.46zm12.888 0c2.159 0 3.37-.651 4.626-1.842l-1.432-1.393c-.925.854-1.784 1.28-3.106 1.28-3.062 0-3.9-1.706-3.9-4.492 0-2.785.882-4.448 3.9-4.448 1.564 0 2.423.652 2.996 1.258l1.564-1.505c-.947-1.078-2.379-1.864-4.56-1.864-4.803 0-6.058 2.65-6.058 6.514 0 3.864 1.277 6.492 5.97 6.492zm7.292-.225h2.115v-12.49h-2.115v12.49zm-.022-13.994h2.159v-2.65h-2.159v2.65z"/>
    </g>
</svg>
