<svg xmlns="http://www.w3.org/2000/svg" width="42" height="43" viewBox="0 0 42 43">
    <g fill="none" fill-rule="nonzero">
        <path fill="#888EE8" d="M21 42.579a20.895 20.895 0 0 1-10.578-2.862 2.908 2.908 0 0 0 1.245-2.384 2.91 2.91 0 1 0-5.636-1.031A20.932 20.932 0 0 1 0 21.579c0-11.598 9.402-21 21-21a20.9 20.9 0 0 1 8.638 1.86 2.893 2.893 0 0 0-1.055 2.228 2.911 2.911 0 1 0 5.744.684C39.012 9.201 42 15.04 42 21.578c0 11.597-9.402 21-21 21z"/>
        <path fill="#3F46AD" d="M15.93 23.616a1.175 1.175 0 0 1-1.23 1.1l-14.569-.81c-.086-.773-.13-1.55-.131-2.327v-.017l14.828.824a1.167 1.167 0 0 1 1.101 1.23zM14.425 9.055L31.333 3.77a1.164 1.164 0 0 1 1.508.988L34.974 24.5l6.974-4.317c.03.462.052.927.052 1.396 0 .453-.02.9-.048 1.347l-6.927 4.288-3.23 12.378c-.889.534-1.817 1-2.776 1.397l3.547-13.594-13.196-2.357 5.395 17.198a20.98 20.98 0 0 1-2.354.29L17.325 26.32 9.92 38.169a1.16 1.16 0 0 1-1.058.542 21.327 21.327 0 0 1-1.007-.76c-.122-.327-.114-.7.086-1.018l8.449-13.518-4.07-11.194L.6 16.588c.238-.972.543-1.916.91-2.83l10.444-3.89 1.082-7.721a20.93 20.93 0 0 1 2.474-.839l-1.085 7.747zm4.122 13.465l14.14 2.526-2.014-18.625-16.145 5.046 4.019 11.053z"/>
        <path fill="#FFF" d="M37.333 26.25a3.5 3.5 0 1 1-7 0 3.5 3.5 0 0 1 7 0zM31.5 8.167a3.5 3.5 0 0 1-2.457-5.99 21.014 21.014 0 0 1 5.764 3.586A3.489 3.489 0 0 1 31.5 8.167zm-14 18.666a3.5 3.5 0 1 1 0-7 3.5 3.5 0 0 1 0 7zM9.333 10.5a3.5 3.5 0 1 1 7 0 3.5 3.5 0 0 1-7 0zM5.594 35.844a3.49 3.49 0 0 1 3.156-2.01 3.5 3.5 0 0 1 3.5 3.5c0 1.09-.509 2.05-1.29 2.693a21.062 21.062 0 0 1-5.366-4.183z"/>
        <path fill="#888EE8" d="M8.75 35.583a1.744 1.744 0 1 1 .516 3.414 21.154 21.154 0 0 1-2.256-1.762 1.744 1.744 0 0 1 1.74-1.652zm8.75-10.5a1.75 1.75 0 1 1 0-3.5 1.75 1.75 0 0 1 0 3.5zM14.583 10.5a1.75 1.75 0 1 1-3.5 0 1.75 1.75 0 0 1 3.5 0zM33.833 28a1.75 1.75 0 1 1 0-3.5 1.75 1.75 0 0 1 0 3.5zM33.25 4.667a1.75 1.75 0 0 1-3.5 0c0-.742.464-1.373 1.116-1.628.821.44 1.612.933 2.368 1.477.005.05.016.1.016.15z"/>
    </g>
</svg>