<svg xmlns="http://www.w3.org/2000/svg" width="15" height="20" viewBox="0 0 15 20">
    <path fill="#6D6F7B" fill-rule="nonzero" d="M13.446 6.474c.108 1.403-.428 2.403-1.607 3 .929.245 1.625.649 2.09 1.21.464.562.642 1.404.535 2.527-.035.56-.16 1.052-.375 1.473a4.008 4.008 0 0 1-.75 1.053c-.285.28-.678.509-1.178.684-.5.175-.982.316-1.447.421-.464.105-1.053.158-1.768.158v3H7.125v-2.947H5.679V20H3.804v-3H.16l.321-2.158h1.34c.392 0 .624-.193.696-.579V9.526h.214-.214V6.158c-.107-.562-.464-.842-1.072-.842H.161V3.42h3.643V.474h1.875v2.894a29.043 29.043 0 0 1 1.446-.052V.474h1.821V3.42a7.976 7.976 0 0 1 1.715.263c.5.14.946.316 1.339.527.393.21.714.508.964.894s.393.842.429 1.369h.053zm-2.571 6.42c0-.315-.071-.578-.214-.789a3.461 3.461 0 0 0-.429-.526c-.143-.14-.375-.263-.696-.368A5.587 5.587 0 0 0 8.732 11c-.214-.035-.5-.07-.857-.105a9.004 9.004 0 0 0-.804-.053c-.178 0-.446.018-.803.053-.357.035-.536.035-.536 0v3.947H7.34c.322 0 .554-.017.697-.053.143-.035.375-.07.696-.105.322-.035.536-.088.643-.158.107-.07.304-.14.59-.21.285-.07.446-.193.481-.369a.913.913 0 0 1 .268-.473c.143-.14.179-.334.107-.58h.054zm-.857-5.63c0-.246-.054-.475-.16-.685a1.314 1.314 0 0 0-.376-.474 2.92 2.92 0 0 0-.59-.316 3.405 3.405 0 0 0-.642-.21 9.444 9.444 0 0 0-.75-.105c-.321-.035-.554-.035-.696 0-.143.035-.358.035-.643 0-.286-.035-.429-.035-.429 0v3.579c.036 0 .16.017.375.052.214.035.41.035.59 0 .178-.035.374-.052.589-.052.214 0 .428-.018.643-.053.214-.035.428-.088.642-.158a4.2 4.2 0 0 0 .536-.21c.143-.07.304-.176.482-.316.179-.14.286-.28.322-.421.035-.14.071-.351.107-.632z"/>
</svg>
