<svg xmlns="http://www.w3.org/2000/svg" width="48" height="39" viewBox="0 0 48 39">
    <g fill="none" fill-rule="nonzero">
        <path fill="#3F46AD" d="M26.7 34.45a16.04 16.04 0 0 1-18.57 1.48L.68 38.4c-.52.18-.8-.1-.63-.63l2.49-7.45A16.11 16.11 0 0 1 15.48 6 18.63 18.63 0 0 0 26.7 34.45z"/>
        <path fill="#888EE8" d="M44.95 24.35C49.107 17.368 47.414 8.383 41 3.393c-6.412-4.99-15.538-4.422-21.284 1.323-5.745 5.746-6.313 14.872-1.323 21.285s13.975 8.106 20.957 3.949l7.46 2.49c.52.17.8-.11.63-.63l-2.49-7.46z"/>
        <path fill="#3F46AD" d="M24.79 18.58a1.79 1.79 0 1 1 0-3.58 1.79 1.79 0 0 1 0 3.58zm6 0a1.79 1.79 0 1 1 0-3.58 1.79 1.79 0 0 1 0 3.58zm6 0a1.79 1.79 0 1 1 0-3.58 1.79 1.79 0 0 1 0 3.58z"/>
    </g>
</svg>
