<svg xmlns="http://www.w3.org/2000/svg" width="39" height="40" viewBox="0 0 39 40">
    <g fill="none" fill-rule="nonzero">
        <path fill="#57A7ED" d="M36 40H3a3 3 0 0 1-3-3V10a3 3 0 0 1 3-3h33a3 3 0 0 1 3 3v27a3 3 0 0 1-3 3zM10 17.5A1.5 1.5 0 0 0 8.5 16h-2A1.5 1.5 0 0 0 5 17.5v16A1.5 1.5 0 0 0 6.5 35h2a1.5 1.5 0 0 0 1.5-1.5v-16zm16 6a1.5 1.5 0 0 0-1.5-1.5h-2a1.5 1.5 0 0 0-1.5 1.5v10a1.5 1.5 0 0 0 1.5 1.5h2a1.5 1.5 0 0 0 1.5-1.5v-10zm8-9a1.5 1.5 0 0 0-1.5-1.5h-2a1.5 1.5 0 0 0-1.5 1.5v19a1.5 1.5 0 0 0 1.5 1.5h2a1.5 1.5 0 0 0 1.5-1.5v-19z"/>
        <path fill="#3881C0" d="M14.5 0h2A1.5 1.5 0 0 1 18 1.5v32a1.5 1.5 0 0 1-1.5 1.5h-2a1.5 1.5 0 0 1-1.5-1.5v-32A1.5 1.5 0 0 1 14.5 0z"/>
    </g>
</svg>
