<svg xmlns="http://www.w3.org/2000/svg" width="42" height="37" viewBox="0 0 42 37">
    <g fill="none" fill-rule="nonzero">
        <path fill="#888EE8" d="M26.81 26H6a1 1 0 0 0-1 1v3a1 1 0 0 0 1 1h25a1 1 0 0 0 1-1v-1.806l5-2.446V34a3 3 0 0 1-3 3H3a3 3 0 0 1-3-3V3a3 3 0 0 1 3-3h31a3 3 0 0 1 3 3v14.767L26.81 26zM5 20a1 1 0 0 0 1 1h10a1 1 0 0 0 1-1v-3a1 1 0 0 0-1-1H6a1 1 0 0 0-1 1v3zM32 7a1 1 0 0 0-1-1H6a1 1 0 0 0-1 1v3a1 1 0 0 0 1 1h25a1 1 0 0 0 1-1V7zm0 10a1 1 0 0 0-1-1H21a1 1 0 0 0-1 1v3a1 1 0 0 0 1 1h10a1 1 0 0 0 1-1v-3z"/>
        <path fill="#3F46AD" d="M29.956 27.365L41.1 16.205a3.06 3.06 0 0 0 0-4.318 3.043 3.043 0 0 0-4.31 0l-11.143 11.16a2.445 2.445 0 0 0-.64 1.133l-.98 3.925a.728.728 0 0 0 .88.884l3.918-.984a2.4 2.4 0 0 0 1.13-.642l.001.002z"/>
    </g>
</svg>
