<svg width="33px" height="33px" viewBox="0 0 33 33" version="1.1" xmlns="http://www.w3.org/2000/svg" xmlns:xlink="http://www.w3.org/1999/xlink">
    <g id="Page-1" stroke="none" stroke-width="1" fill="none" fill-rule="evenodd">
        <g id="Group-2" transform="translate(5.125000, 5.125000)" stroke="#000000">
            <circle id="Oval-3" stroke-width="0.825" cx="11.6504348" cy="11.6504348" r="11.4495652" />
            <path d="M0.942674186,14.4407062 L0.957647353,14.1593057 L1.40684237,14.1326868 C2.85923959,14.0414217 3.9622629,13.4786208 5.24995528,12.1742916 C5.92873886,11.4860012 5.91376569,11.6076879 5.36974062,11.0372815 C4.84567976,10.4896914 4.04711085,9.83562544 3.60290689,9.59605477 C2.92412331,9.22719198 2.13054545,9.00283214 1.29703914,8.94579151 L0.932692074,8.91917254 L0.932692074,8.63777207 L0.932692074,8.35637159 L1.19721803,8.37918785 C1.33696759,8.39059597 1.55657404,8.40960952 1.68135043,8.42101765 C3.19863137,8.55030976 4.52126114,9.24240282 5.84888197,10.5923646 L6.29308593,11.0486897 L6.72231672,10.6075754 C8.15474971,9.14353238 9.36757625,8.53509892 11.1294189,8.39820139 C12.3622097,8.30313366 13.5600631,8.53509892 14.6231579,9.07128091 C15.1172725,9.32225971 15.9407966,9.96111484 16.4997949,10.5277185 C16.7593298,10.7901054 16.9839273,11.0068599 17.0038915,11.0144653 C17.0238557,11.018268 17.2085248,10.8471461 17.4181491,10.6265889 C18.5561098,9.44774911 19.7240169,8.74805063 20.9617987,8.51228267 C21.3660742,8.43622848 22.2844285,8.34876617 22.3543033,8.38299056 C22.3742675,8.39439868 22.3942317,8.51988808 22.3942317,8.66819374 L22.3942317,8.93058067 L22.1945895,8.93058067 C21.9450367,8.93058067 21.0915662,9.05607007 20.7970939,9.13972967 C20.4577021,9.23099469 19.8787396,9.48197349 19.5493299,9.67210895 C19.1200991,9.92308775 18.4612798,10.4782833 17.9272368,11.0410842 L17.4580776,11.5316337 L17.5429255,11.6419123 C17.587845,11.7027556 17.8423889,11.9689453 18.1019238,12.2313322 C19.374643,13.528056 20.5525321,14.0870542 22.1446789,14.1517003 L22.3692764,14.1593057 L22.3842496,14.4407062 L22.3992228,14.7221067 L21.9100993,14.6954877 C20.9518166,14.6460525 20.0085071,14.3798628 19.2598487,13.9501567 C18.7307968,13.64594 17.9172547,12.991874 17.4281313,12.4747056 C17.2085248,12.2427403 17.0188647,12.0526049 17.0038915,12.0526049 C16.9889183,12.0526049 16.8741241,12.1666861 16.7443566,12.3073864 C15.2470399,13.9273405 13.8345711,14.6308416 11.9629252,14.6992904 C10.5454654,14.7487256 9.40251364,14.4787333 8.359383,13.8398782 C7.7953937,13.4976343 7.10662801,12.9158198 6.54762977,12.3149918 C6.4428176,12.2009105 6.34299648,12.090632 6.32303226,12.0754211 C6.30306804,12.0602103 6.05351525,12.2807674 5.76902507,12.5697733 C4.3565563,13.9919865 3.0938192,14.6042227 1.37190498,14.6992904 L0.927701019,14.7221067 L0.942674186,14.4407062 Z M12.5169324,14.0832515 C13.909437,13.8969188 14.9026571,13.3036962 16.2951616,11.828245 C16.6046071,11.501212 16.6445355,11.6038852 15.9607609,10.9079894 C15.4566642,10.3946237 14.8128181,9.86984982 14.363623,9.61506831 C12.9960738,8.83551294 11.0994726,8.71382625 9.56721848,9.31465429 C8.77364062,9.62647644 8.01500015,10.1854747 7.16152962,11.0905195 C6.80716467,11.4707904 6.76224516,11.5316337 6.81215572,11.6076879 C6.90698578,11.7712044 7.79040264,12.6344194 8.16972288,12.9386361 C8.97827391,13.5888993 9.87167288,13.972973 10.8549109,14.1022651 C11.2492043,14.1517003 12.0777195,14.1440949 12.5169324,14.0832515 Z" id="Shape" stroke-width="0.66" fill="#000000" fill-rule="nonzero" transform="translate(11.663462, 11.539239) rotate(90.000000) translate(-11.663462, -11.539239) " />
        </g>
        <path d="M16.7575,32.8449994 C7.91818258,32.8449994 0.7525,25.6793168 0.7525,16.8399994 C0.7525,8.00068195 7.91818258,0.834999371 16.7575,0.834999371 C25.5968174,0.834999371 32.7625,8.00068195 32.7625,16.8399994 C32.7625,25.6793168 25.5968174,32.8449994 16.7575,32.8449994 Z M16.7575,31.5249994 C24.8678016,31.5249994 31.4425,24.9503009 31.4425,16.8399994 C31.4425,8.72969782 24.8678016,2.15499937 16.7575,2.15499937 C8.64719845,2.15499937 2.0725,8.72969782 2.0725,16.8399994 C2.0725,24.9503009 8.64719845,31.5249994 16.7575,31.5249994 Z" fill="#000000" fill-rule="nonzero" />
    </g>
</svg>