<svg xmlns="http://www.w3.org/2000/svg" xmlns:xlink="http://www.w3.org/1999/xlink" width="44" height="44" viewBox="0 0 44 44">
    <defs>
        <circle id="b" cx="16" cy="16" r="16"/>
        <filter id="a" width="187.5%" height="187.5%" x="-43.8%" y="-28.1%" filterUnits="objectBoundingBox">
            <feOffset dy="4" in="SourceAlpha" result="shadowOffsetOuter1"/>
            <feGaussianBlur in="shadowOffsetOuter1" result="shadowBlurOuter1" stdDeviation="3"/>
            <feColorMatrix in="shadowBlurOuter1" result="shadowMatrixOuter1" values="0 0 0 0 0.196078431 0 0 0 0 0.196078431 0 0 0 0 0.364705882 0 0 0 0.11 0"/>
            <feOffset dy="1" in="SourceAlpha" result="shadowOffsetOuter2"/>
            <feGaussianBlur in="shadowOffsetOuter2" result="shadowBlurOuter2" stdDeviation="1.5"/>
            <feColorMatrix in="shadowBlurOuter2" result="shadowMatrixOuter2" values="0 0 0 0 0 0 0 0 0 0 0 0 0 0 0 0 0 0 0.08 0"/>
            <feMerge>
                <feMergeNode in="shadowMatrixOuter1"/>
                <feMergeNode in="shadowMatrixOuter2"/>
            </feMerge>
        </filter>
    </defs>
    <g fill="none" fill-rule="evenodd">
        <g transform="translate(6 2)">
            <use fill="#000" filter="url(#a)" xlink:href="#b"/>
            <use fill="#57A7ED" xlink:href="#b"/>
        </g>
        <path fill="#FFF" d="M27.221 15.108c.995-2.798 1.108-5 .112-5.576-1.04-.6-3.011.733-5.027 3.189-2.141-2.347-4.18-3.575-5.187-2.921-.948.615-.743 2.747.347 5.425-2.752.55-4.581 1.524-4.581 2.633 0 1.153 1.974 2.159 4.906 2.695-1.108 2.958-1.271 5.317-.235 5.915 1.039.6 3.011-.733 5.027-3.189 2.14 2.347 4.18 3.575 5.187 2.921.97-.63.733-2.847-.425-5.613 3.036-.527 5.095-1.552 5.095-2.729 0-1.193-2.115-2.229-5.219-2.75z" opacity=".65"/>
        <path fill="#FFF" d="M27.221 15.108c.995-2.798 1.108-5 .112-5.576-1.04-.6-3.011.733-5.027 3.189-2.141-2.347-4.18-3.575-5.187-2.921-.948.615-.743 2.747.347 5.425-2.752.55-4.581 1.524-4.581 2.633 0 1.153 1.974 2.159 4.906 2.695-1.108 2.958-1.271 5.317-.235 5.915 1.039.6 3.011-.733 5.027-3.189 2.14 2.347 4.18 3.575 5.187 2.921.97-.63.733-2.847-.425-5.613 3.036-.527 5.095-1.552 5.095-2.729 0-1.193-2.115-2.229-5.219-2.75zm-6.453-.3a25.99 25.99 0 0 1 1.538-2.087c.56.614 1.128 1.305 1.685 2.058a30.82 30.82 0 0 0-3.223.03zm-.104 6.093a30.391 30.391 0 0 0 3.633.022 26.358 26.358 0 0 1-1.714 2.356c-.639-.7-1.287-1.5-1.919-2.378zm6.557-5.793a25.452 25.452 0 0 1-1.2 2.798c.524.926.968 1.83 1.324 2.681-.934.162-1.96.278-3.048.336a30.653 30.653 0 0 0 1.724-3.017 30.48 30.48 0 0 0-2.03-3.127 26.58 26.58 0 0 1 3.23.33zm-9.43 5.445c.294-.785.654-1.612 1.076-2.46a25.215 25.215 0 0 1-1.4-2.868 24.92 24.92 0 0 1 3.3-.416 30.442 30.442 0 0 0-1.9 3.285 30.48 30.48 0 0 0 1.797 2.807 25.329 25.329 0 0 1-2.873-.348z"/>
        <path fill="#57A7ED" d="M20.799 14.856a33.197 33.197 0 0 0-1.905 3.293 33.236 33.236 0 0 0 1.804 2.816 33.146 33.146 0 0 0 3.639.02 33.414 33.414 0 0 0 1.73-3.024 33.236 33.236 0 0 0-2.034-3.133 33.584 33.584 0 0 0-3.234.028z"/>
    </g>
</svg>
