<svg xmlns="http://www.w3.org/2000/svg" width="41" height="41" viewBox="0 0 41 41">
    <g fill="none" fill-rule="nonzero">
        <path fill="#888EE8" d="M31.924 18.809c-.494.15-.98.23-1.458.279l.81.414c1.235.643 2.4 1.248 3.627 1.658 1.93.643 4.005.787 6.097.772v-9.733l-5.383 4.372c-1.03.836-2.195 1.782-3.693 2.238m-24.58-3.512c2.698 1.434 5.109 2.575 7.31 2 .239-.063.47-.143.704-.223.242-.082.485-.164.73-.234.766-.22 1.616-.348 2.675-.405a21.835 21.835 0 0 1 5.718.458 8.95 8.95 0 0 1 1.997-.582c.777-.127 1.526-.136 2.25-.145.845-.01 1.642-.02 2.32-.226.939-.287 1.823-1.004 2.679-1.7L41 8.335V4c0-2.2-1.8-4-4-4H4C1.8 0 0 1.8 0 4v9c2.49-.052 4.98 1.039 7.345 2.297M33.954 24.005c-1.45-.483-2.778-1.174-4.062-1.841-.828-.43-1.609-.836-2.415-1.187a18.85 18.85 0 0 0-2.652-.92c-1.228.679-2.388 1.672-3.52 2.646l-.305.26c-2.308 1.979-4.903 3.786-7.966 3.745-2.407-.044-4.372-1.205-6.27-2.328-.804-.474-1.56-.922-2.332-1.274A9.839 9.839 0 0 0 0 22.203V37c0 2.2 1.8 4 4 4h33c2.2 0 4-1.8 4-4V24.933c-2.32.015-4.736-.158-7.046-.928"/>
        <path fill="#888EE8" d="M5.68 20.377c.914.418 1.776.928 2.61 1.421 1.637.967 3.183 1.881 4.799 1.91 2.089.065 4.102-1.43 5.96-3.022l.299-.258c.386-.331.786-.671 1.194-1.008-.54-.018-1.08-.02-1.618.011-.84.045-1.458.135-2.01.294-.2.056-.395.124-.59.19-.302.103-.604.204-.912.284-3.516.914-6.96-.915-9.475-2.254C4.05 16.942 1.939 15.946 0 16.018v3.185a12.901 12.901 0 0 1 5.68 1.174"/>
        <path fill="#3F46AD" d="M5.936 17.945c2.517 1.34 5.96 3.168 9.477 2.254.306-.08.608-.182.91-.284.197-.067.392-.134.591-.19.551-.159 1.17-.25 2.01-.295.538-.03 1.079-.028 1.617-.01 1.186-.976 2.474-1.917 3.94-2.528a21.921 21.921 0 0 0-5.719-.458c-1.059.058-1.909.187-2.674.406-.245.07-.489.152-.73.234-.233.08-.465.16-.704.223-2.2.575-4.613-.567-7.31-2C4.98 14.04 2.49 12.948 0 13.001v3.016c1.94-.07 4.05.925 5.937 1.928M34.903 21.16c-1.227-.41-2.393-1.016-3.628-1.658-.265-.138-.538-.276-.809-.414-.578.058-1.146.071-1.702.078-.64.008-1.248.015-1.802.105-.74.121-1.449.407-2.137.786.905.244 1.794.545 2.652.92.806.351 1.587.757 2.415 1.187 1.283.667 2.612 1.357 4.062 1.841 2.31.77 4.725.943 7.046.927v-3c-2.092.014-4.167-.129-6.097-.773"/>
        <path fill="#FFF" d="M4.432 23.105c.77.354 1.529.802 2.332 1.274 1.899 1.123 3.863 2.285 6.27 2.33 3.064.04 5.658-1.767 7.967-3.747l.303-.259c1.134-.974 2.293-1.966 3.522-2.645a18.934 18.934 0 0 0-4.284-.639c-.408.337-.808.677-1.194 1.008l-.3.259c-1.857 1.593-3.87 3.087-5.96 3.023-1.615-.03-3.161-.944-4.798-1.912-.834-.492-1.696-1.003-2.61-1.42A12.9 12.9 0 0 0 0 19.203v3a9.835 9.835 0 0 1 4.432.902M33.727 14.241c-.855.694-1.74 1.412-2.678 1.698-.678.207-1.476.217-2.321.227-.724.01-1.473.017-2.25.144a9.057 9.057 0 0 0-1.997.582c1.439.307 2.849.747 4.196 1.334.614.27 1.206.564 1.79.862a7.54 7.54 0 0 0 1.457-.28c1.498-.456 2.664-1.402 3.694-2.238L41 12.198V8.334l-7.273 5.907z"/>
        <path fill="#FFF" d="M24.825 20.058c.688-.38 1.397-.665 2.137-.786.554-.09 1.161-.098 1.802-.106a18.622 18.622 0 0 0 1.702-.078 33.208 33.208 0 0 0-1.789-.861 22.004 22.004 0 0 0-4.196-1.334c-1.466.61-2.755 1.552-3.939 2.527 1.445.047 2.885.263 4.283.638"/>
    </g>
</svg>
