<svg xmlns="http://www.w3.org/2000/svg" width="25" height="24" viewBox="0 0 25 24">
    <path fill="#8F9CB3" fill-rule="nonzero" d="M25 12c0 .548-.137 1.047-.412 1.496-.274.45-.644.792-1.109 1.029.112.435.168.889.168 1.362 0 1.465-.495 2.822-1.486 4.07-.99 1.249-2.341 2.234-4.053 2.958-1.711.723-3.571 1.085-5.58 1.085s-3.867-.362-5.573-1.085c-1.707-.724-3.056-1.71-4.046-2.958-.99-1.248-1.486-2.605-1.486-4.07 0-.445.051-.89.153-1.334a2.812 2.812 0 0 1-1.144-1.042A2.783 2.783 0 0 1 0 12c0-.775.27-1.44.81-1.993a2.644 2.644 0 0 1 1.966-.83c.79 0 1.465.298 2.023.894 2.028-1.437 4.423-2.203 7.185-2.298l1.618-7.39a.48.48 0 0 1 .21-.298.45.45 0 0 1 .362-.07l5.148 1.148c.167-.35.419-.631.753-.844C20.41.106 20.778 0 21.177 0c.577 0 1.07.206 1.48.617.408.411.613.91.613 1.496 0 .587-.205 1.088-.614 1.504a2 2 0 0 1-1.479.624 1.988 1.988 0 0 1-1.471-.617 2.055 2.055 0 0 1-.607-1.496l-4.66-1.05-1.45 6.695c2.79.085 5.203.842 7.24 2.27a2.623 2.623 0 0 1 1.995-.866c.772 0 1.427.277 1.967.83.54.553.809 1.218.809 1.993zM5.831 14.823c0 .586.203 1.087.607 1.503.405.416.896.624 1.472.624a2 2 0 0 0 1.479-.624c.41-.416.614-.917.614-1.503 0-.587-.205-1.085-.614-1.497a2.01 2.01 0 0 0-1.479-.617c-.567 0-1.055.208-1.465.624a2.05 2.05 0 0 0-.614 1.49zm11.3 5.035a.508.508 0 0 0 .154-.369.508.508 0 0 0-.153-.368.47.47 0 0 0-.35-.142c-.139 0-.26.047-.362.142-.381.397-.944.69-1.688.879a9.03 9.03 0 0 1-2.232.284A9.03 9.03 0 0 1 10.268 20c-.744-.19-1.307-.482-1.688-.88a.517.517 0 0 0-.363-.141.47.47 0 0 0-.349.142.47.47 0 0 0-.153.361c0 .147.051.272.153.376.4.407.951.728 1.653.965.703.236 1.272.376 1.71.418.437.043.86.064 1.269.064.41 0 .832-.021 1.27-.064.437-.042 1.006-.182 1.709-.418.702-.237 1.253-.558 1.653-.965zm-.041-2.908c.576 0 1.067-.208 1.472-.624.404-.416.607-.917.607-1.503a2.05 2.05 0 0 0-.614-1.49 1.983 1.983 0 0 0-1.465-.624 2.01 2.01 0 0 0-1.479.617c-.41.412-.614.91-.614 1.497 0 .586.205 1.087.614 1.503a2 2 0 0 0 1.479.624z"/>
</svg>
