<svg xmlns="http://www.w3.org/2000/svg" width="41" height="49" viewBox="0 0 41 49">
    <g fill="none" fill-rule="nonzero">
        <path fill="#A2E0F5" d="M22 23.5a1.5 1.5 0 1 1-2.999.001A1.5 1.5 0 0 1 22 23.5"/>
        <path fill="#888EE8" d="M2.108 6.54A1.998 1.998 0 0 0 .5 8.5v7.366c0 8.682 3.38 16.844 9.52 22.982l9.066 9.066c.39.39.902.586 1.414.586.512 0 1.025-.196 1.414-.586l9.067-9.066c6.139-6.138 9.519-14.3 9.519-22.982V8.5c0-.954-.674-1.774-1.608-1.96l-1.23-.248A64.653 64.653 0 0 1 21.394.71a2.008 2.008 0 0 0-1.788 0A64.653 64.653 0 0 1 3.338 6.292l-1.23.248"/>
        <path fill="#3F46AD" d="M37.327 29.913A32.39 32.39 0 0 0 40.5 15.866V8.5c0-.954-.674-1.774-1.609-1.96l-1.229-.248A64.653 64.653 0 0 1 21.394.71a2.008 2.008 0 0 0-1.788 0M22.5 11.5a2 2 0 1 1-4.001-.001 2 2 0 0 1 4.001.001m0 16a2 2 0 1 1-4.001-.001 2 2 0 0 1 4.001.001"/>
        <path fill="#FFF" d="M22.5 19.5a2 2 0 1 1-4.001-.001 2 2 0 0 1 4.001.001m-7 8a2 2 0 1 1-4.001-.001 2 2 0 0 1 4.001.001"/>
        <path fill="#3F46AD" d="M15.5 19.5a2 2 0 1 1-4.001-.001 2 2 0 0 1 4.001.001"/>
        <path fill="#FFF" d="M22.5 35.5a2 2 0 1 1-4.001-.001 2 2 0 0 1 4.001.001"/>
    </g>
</svg>
