<svg xmlns="http://www.w3.org/2000/svg" width="23" height="23" viewBox="0 0 23 23">
    <path fill="#8F9CB3" fill-rule="evenodd" d="M22.049 8.243C19.703.43 16.318-1.392 8.508.951.693 3.297-1.132 6.682 1.213 14.492c2.344 7.814 5.73 9.638 13.541 7.294 7.814-2.345 9.638-5.73 7.294-13.541v-.002zm-3.955 5.072l-1.472.493.51 1.528a1.178 1.178 0 1 1-2.233.747l-.511-1.524-3.038 1.018.51 1.524a1.18 1.18 0 0 1-1.147 1.552 1.175 1.175 0 0 1-1.086-.803l-.513-1.526-1.473.492a1.19 1.19 0 0 1-.404.064 1.179 1.179 0 0 1-.345-2.297l1.473-.495-.98-2.923-1.473.493a1.25 1.25 0 0 1-.404.063 1.18 1.18 0 0 1-.345-2.297l1.475-.495-.51-1.523a1.176 1.176 0 0 1 .743-1.49 1.173 1.173 0 0 1 1.49.74l.512 1.524 3.038-1.018-.51-1.523a1.179 1.179 0 1 1 2.236-.75l.508 1.527 1.476-.493a1.18 1.18 0 0 1 .748 2.235l-1.473.492.979 2.924 1.472-.492a1.177 1.177 0 1 1 .748 2.233h-.001zm-8.472-2.899l.979 2.924 3.038-1.018-.98-2.923-3.037 1.017z"/>
</svg>
