<svg xmlns="http://www.w3.org/2000/svg" width="20" height="20" viewBox="0 0 20 20">
    <path fill="#6D6F7B" fill-rule="nonzero" d="M18.105 9.105c.491 0 .895.158 1.21.474.317.316.474.72.474 1.21 0 .772-.35 1.281-1.052 1.527L16.684 13l.684 1.947c.036.176.053.369.053.58 0 .455-.158.859-.474 1.21-.315.35-.719.509-1.21.474-.351 0-.684-.106-1-.316a1.51 1.51 0 0 1-.632-.842l-.631-1.948-3.632 1.263.632 1.948c.07.175.105.35.105.526 0 .456-.158.86-.474 1.21-.316.352-.719.51-1.21.474a1.62 1.62 0 0 1-1-.315 1.916 1.916 0 0 1-.632-.843l-.631-1.894-1.79.631c-.246.07-.456.106-.631.106-.457 0-.843-.158-1.158-.474-.316-.316-.474-.72-.474-1.21 0-.352.105-.685.316-1 .21-.316.491-.51.842-.58l1.842-.631-1.263-3.684-1.842.631c-.176.07-.351.105-.527.105-.49 0-.894-.157-1.21-.473-.316-.316-.474-.72-.474-1.21 0-.352.105-.685.316-1a1.51 1.51 0 0 1 .842-.632l1.842-.58-.631-1.894a2.678 2.678 0 0 1-.053-.526c0-.492.158-.895.474-1.21.315-.317.719-.492 1.21-.527.351 0 .684.105 1 .316.316.21.509.49.58.842l.683 1.894 3.632-1.21-.632-1.895a1.545 1.545 0 0 1-.105-.579c0-.456.158-.842.474-1.158.316-.315.719-.49 1.21-.526.386 0 .72.105 1 .316.281.21.491.491.632.842l.631 1.895 1.895-.632c.176-.07.351-.105.526-.105.457 0 .86.158 1.211.473.35.316.509.702.474 1.158 0 .351-.123.667-.369.948a2.42 2.42 0 0 1-.842.631l-1.842.632 1.21 3.737 1.948-.684c.175-.07.35-.106.526-.106zM8.79 12.211l3.632-1.264-1.21-3.684-3.685 1.263 1.263 3.685z"/>
</svg>
