<svg xmlns="http://www.w3.org/2000/svg" width="18" height="18" viewBox="0 0 18 18">
    <path fill="#6D6F7B" fill-rule="nonzero" d="M17.298.09c.204.18.292.405.263.675L15.059 16.2a.668.668 0 0 1-.308.45 1.26 1.26 0 0 1-.307.045.81.81 0 0 1-.264-.045l-4.434-1.845-2.37 2.97a.579.579 0 0 1-.483.225.479.479 0 0 1-.22-.045.553.553 0 0 1-.307-.225c-.088-.12-.117-.24-.088-.36v-3.51l8.473-10.665L4.26 12.51.395 10.89C.161 10.8.03 10.605 0 10.305c0-.24.102-.435.307-.585L16.64.09c.088-.06.19-.09.307-.09.117 0 .234.03.352.09z"/>
</svg>
