<svg xmlns="http://www.w3.org/2000/svg" width="22" height="19" viewBox="0 0 22 19">
    <path fill="#8F9CB3" fill-rule="evenodd" d="M22 2.144a9.04 9.04 0 0 1-2.592.721A4.576 4.576 0 0 0 21.392.334a8.941 8.941 0 0 1-2.865 1.11A4.485 4.485 0 0 0 15.232 0c-2.493 0-4.514 2.047-4.514 4.573 0 .359.039.708.116 1.043C7.081 5.425 3.758 3.604 1.532.837a4.606 4.606 0 0 0-.612 2.3c0 1.587.799 2.987 2.01 3.805a4.437 4.437 0 0 1-2.045-.57v.057c0 2.216 1.556 4.064 3.621 4.484a4.492 4.492 0 0 1-2.037.08c.573 1.816 2.239 3.139 4.216 3.176a8.987 8.987 0 0 1-5.606 1.954c-.365 0-.724-.019-1.076-.062a12.626 12.626 0 0 0 6.917 2.057c8.301 0 12.841-6.97 12.841-13.014 0-.198-.004-.396-.013-.593A9.25 9.25 0 0 0 22 2.143"/>
</svg>
