<svg xmlns="http://www.w3.org/2000/svg" width="20" height="17" viewBox="0 0 20 17">
    <path fill="#6D6F7B" fill-rule="nonzero" d="M19.833 2.323a7.83 7.83 0 0 1-2.055 2.097c.037.113.055.302.055.567a11.24 11.24 0 0 1-.5 3.286 12.487 12.487 0 0 1-1.444 3.117c-.63.982-1.389 1.87-2.278 2.663-.889.794-1.944 1.417-3.167 1.87-1.222.454-2.555.68-4 .68-2.259 0-4.314-.623-6.166-1.87.296.038.61.057.944.057 1.852 0 3.519-.567 5-1.7-.889-.038-1.666-.321-2.333-.85a4.495 4.495 0 0 1-1.445-1.983c.297.037.556.056.778.056.37 0 .722-.056 1.056-.17A3.772 3.772 0 0 1 2 8.727a4.386 4.386 0 0 1-.944-2.607 4.295 4.295 0 0 0 1.833.51c-.556-.378-1-.869-1.333-1.473A3.52 3.52 0 0 1 1.11 3.23c0-.756.167-1.454.5-2.097 1 1.285 2.222 2.305 3.667 3.06a10.924 10.924 0 0 0 4.61 1.247 4.533 4.533 0 0 1-.11-.963c0-1.134.389-2.097 1.166-2.89.778-.794 1.723-1.19 2.834-1.19 1.185 0 2.166.434 2.944 1.303a9.139 9.139 0 0 0 2.556-.963c-.297.944-.89 1.68-1.778 2.21a7.655 7.655 0 0 0 2.333-.624z"/>
</svg>
