<svg xmlns="http://www.w3.org/2000/svg" width="196" height="258" viewBox="0 0 196 258">
    <defs>
        <linearGradient id="a" x1="34.18%" x2="65.82%" y1="100%" y2="0%">
            <stop offset="0%" stop-color="#57C6E4"/>
            <stop offset="100%" stop-color="#EAD6F7"/>
        </linearGradient>
    </defs>
    <g fill="none" fill-rule="evenodd" transform="translate(-576.954 -691.39)">
        <rect width="196.325" height="257.757" x="576.152" y="691.62" fill="url(#a)" rx="1.6"/>
        <g fill="#FFF" stroke="#FFF" stroke-opacity=".3" stroke-width=".5">
            <path d="M689.083 815.296l58.028-57.955 58.028 57.955-58.028 57.956-58.028-57.956zm-68.908 68.822l58.028-57.955 58.028 57.955-58.028 57.956-58.028-57.956zm-68.908 68.822l58.028-57.955 58.027 57.955-58.028 57.956-58.027-57.956zm-68.909 68.823l58.028-57.956 58.029 57.956-58.029 57.956-58.028-57.956zm-68.908 68.822l58.028-57.956 58.028 57.956-58.028 57.956-58.028-57.956zm-68.908 68.822l58.028-57.956 58.028 57.956-58.028 57.956-58.028-57.956zm413.45-275.288l58.028-57.956 58.028 57.956-58.028 57.956-58.029-57.956zm-68.909 68.822l58.028-57.956 58.028 57.956-58.028 57.956-58.028-57.956zm-68.908 68.822l58.028-57.956 58.028 57.956-58.028 57.956-58.028-57.956z" opacity=".548"/>
            <path d="M482.358 1159.407l58.028-57.956 58.029 57.956-58.029 57.956-58.028-57.956zm-68.908 68.822l58.028-57.956 58.028 57.956-58.028 57.956-58.028-57.956zM826.9 952.941l58.028-57.956 58.028 57.956-58.029 57.955-58.027-57.955zm-68.908 68.822l58.028-57.956 58.028 57.956-58.028 57.955-58.028-57.955zm-68.909 68.822l58.029-57.956 58.027 57.956-58.028 57.955-58.028-57.955zm-68.908 68.822l58.028-57.956 58.028 57.956-58.028 57.956-58.028-57.956zm-68.909 68.822l58.029-57.956 58.027 57.956-58.028 57.956-58.028-57.956zm-68.908 68.822l58.029-57.956 58.028 57.956-58.028 57.956-58.029-57.956zm413.45-275.288l58.028-57.956 58.028 57.956-58.028 57.956-58.028-57.956zm-68.908 68.822l58.028-57.956 58.028 57.956-58.029 57.956-58.027-57.956zm-68.908 68.822l58.028-57.956 58.028 57.956-58.028 57.956-58.028-57.956zm-68.909 68.822l58.029-57.956 58.027 57.956-58.028 57.956-58.028-57.956zm-68.908 68.822l58.028-57.956 58.028 57.956-58.028 57.956-58.028-57.956zm-68.909 68.822l58.029-57.956 58.027 57.956-58.028 57.956-58.028-57.956zm413.45-275.288l58.028-57.956 58.029 57.956-58.029 57.956-58.028-57.956z" opacity=".02"/>
            <path d="M689.083 1503.518l58.028-57.956 58.028 57.956-58.028 57.955-58.028-57.955zm-68.908-757.044l58.028-57.955 58.028 57.955-58.028 57.956-58.028-57.956zm-68.908 68.822l58.028-57.955 58.027 57.955-58.028 57.956-58.027-57.956zm-68.909 68.822l58.028-57.955 58.029 57.955-58.029 57.956-58.028-57.956zM413.45 952.94l58.028-57.955 58.028 57.955-58.028 57.956-58.028-57.956zm-68.908 68.823l58.028-57.956 58.028 57.956-58.028 57.956-58.028-57.956zm-68.908 68.822l58.028-57.956 58.028 57.956-58.028 57.956-58.028-57.956zm275.632-412.933l58.028-57.956 58.029 57.956-58.029 57.956-58.028-57.956zm-68.908 68.822l58.028-57.956 58.029 57.956-58.029 57.956-58.028-57.956z" opacity=".324"/>
            <path d="M68.908 884.119l58.028-57.956 58.029 57.956-58.029 57.955-58.028-57.955zm275.633-412.934l58.029-57.955 58.028 57.956-58.028 57.955-58.029-57.956zm413.224 275.063l58.028-57.956 58.028 57.956-58.028 57.956-58.028-57.956zm69.135 69.048l58.028-57.955 58.028 57.955-58.029 57.956-58.027-57.956z" opacity=".283"/>
            <path d="M689.083 677.652l58.028-57.956 58.028 57.956-58.028 57.956z" opacity=".739"/>
            <path d="M413.45 402.363l58.028-57.955 58.027 57.955-58.027 57.956-58.028-57.956zM826.9 677.652l58.028-57.956 58.028 57.956-58.029 57.956-58.027-57.956zm68.908 68.822l58.028-57.956 58.028 57.956-58.028 57.956-58.028-57.956zm68.908 68.822l58.028-57.956 58.029 57.956-58.029 57.956-58.028-57.956zm68.908 68.823l58.028-57.956 58.029 57.956-58.029 57.955-58.028-57.955zm68.908 68.822l58.029-57.956 58.028 57.956-58.028 57.955-58.029-57.955zm68.91 68.822l58.027-57.956 58.029 57.956-58.029 57.955-58.028-57.955zM757.991 608.83l58.028-57.955 58.028 57.955-58.028 57.956-58.029-57.956zm-68.909-68.823l58.028-57.955 58.028 57.956-58.028 57.956-58.028-57.957zM1240.35 952.94l58.028-57.955 58.028 57.956-58.028 57.955-58.029-57.955zM826.9 540.008l58.028-57.955 58.028 57.956-58.029 57.956-58.027-57.957zm-68.908-68.822l58.028-57.955 58.028 57.956-58.028 57.955-58.028-57.956zM757.991 195.897l58.029-57.955 58.028 57.955-58.028 57.956-58.029-57.956zm-68.908-68.822l58.028-57.955 58.028 57.955-58.028 57.955-58.028-57.955zm413.45 275.288l58.028-57.955 58.028 57.955-58.028 57.956-58.028-57.956zm68.908 68.822l58.028-57.955 58.028 57.956-58.028 57.955-58.028-57.956zm68.908 68.822l58.028-57.955 58.028 57.956-58.028 57.956-58.028-57.957zm68.91 68.823l58.027-57.956 58.028 57.956-58.028 57.956-58.028-57.956zm68.907 68.822l58.028-57.956 58.028 57.956-58.028 57.956-58.028-57.956zm68.908 68.822l58.029-57.956 58.027 57.956-58.028 57.956-58.028-57.956zm-413.45-412.933l58.029-57.955 58.028 57.955-58.028 57.956-58.029-57.956zm-68.908-68.822l58.029-57.955 58.028 57.955-58.028 57.956-58.029-57.956zm-68.908-68.822l58.028-57.955 58.029 57.955-58.029 57.956-58.028-57.956zM826.9 127.075l58.028-57.955 58.028 57.955-58.029 57.955-58.027-57.955zm-68.91-68.822L816.02.297l58.027 57.956-58.028 57.955-58.028-57.955z" opacity=".02"/>
        </g>
    </g>
</svg>
