<svg xmlns="http://www.w3.org/2000/svg" xmlns:xlink="http://www.w3.org/1999/xlink" width="196" height="258" viewBox="0 0 196 258">
    <defs>
        <linearGradient id="b" x1="34.18%" x2="65.82%" y1="100%" y2="0%">
            <stop offset="0%" stop-color="#B4F3B6"/>
            <stop offset="30%" stop-color="#B4F3B6"/>
            <stop offset="70%" stop-color="#8AE5E4"/>
            <stop offset="100%" stop-color="#85E3E9"/>
        </linearGradient>
        <rect id="a" width="195.523" height="259.358" rx="1.6"/>
    </defs>
    <g fill="none" fill-rule="evenodd" transform="translate(0 -1.37)">
        <mask id="c" fill="#fff">
            <use xlink:href="#a"/>
        </mask>
        <use fill="url(#b)" xlink:href="#a"/>
        <g fill="#FFF" stroke="#FFF" stroke-opacity=".3" stroke-width=".5" mask="url(#c)">
            <path d="M112.93 124.476l58.029-57.955 58.028 57.955-58.029 57.956-58.027-57.956zm-68.907 68.822l58.028-57.955 58.028 57.955-58.028 57.956-58.028-57.956zm-68.909 68.822l58.029-57.955L91.17 262.12l-58.028 57.956-58.028-57.956zm-68.908 68.823l58.028-57.956 58.028 57.956-58.028 57.956-58.028-57.956zm-68.908 68.822l58.028-57.956 58.027 57.956-58.027 57.956-58.028-57.956zm-68.909 68.822l58.029-57.956 58.028 57.956-58.028 57.956-58.029-57.956zm413.45-275.288l58.028-57.956 58.028 57.956-58.028 57.956-58.028-57.956zM112.93 262.12l58.028-57.956 58.028 57.956-58.029 57.956-58.027-57.956zm-68.908 68.822l58.028-57.956 58.028 57.956-58.028 57.956-58.028-57.956z" opacity=".548"/>
            <path d="M-93.794 468.587l58.028-57.956 58.028 57.956-58.028 57.956-58.028-57.956zm-68.908 68.822l58.028-57.956 58.027 57.956-58.027 57.956-58.028-57.956zm413.45-275.288l58.028-57.956 58.027 57.956-58.028 57.955-58.028-57.955zm-68.909 68.822l58.029-57.956 58.028 57.956-58.028 57.955-58.029-57.955zm-68.908 68.822l58.028-57.956 58.028 57.956-58.029 57.955-58.027-57.955zm-68.909 68.822l58.029-57.956 58.028 57.956-58.028 57.956-58.029-57.956zm-68.908 68.822l58.028-57.956L91.17 537.41l-58.028 57.956-58.028-57.956zm-68.908 68.822l58.028-57.956 58.029 57.956-58.029 57.956-58.028-57.956zm413.45-275.288l58.028-57.955 58.028 57.955-58.028 57.956-58.028-57.956zm-68.909 68.822l58.029-57.955 58.027 57.955-58.028 57.956-58.028-57.956zm-68.908 68.822l58.029-57.956 58.028 57.956-58.028 57.956-58.029-57.956zm-68.908 68.822l58.028-57.956 58.028 57.956-58.029 57.956-58.027-57.956zm-68.909 68.822l58.029-57.956 58.028 57.956-58.028 57.956-58.029-57.956zm-68.908 68.822l58.028-57.956 58.028 57.956-58.028 57.956-58.028-57.956zm413.45-275.288l58.028-57.955 58.028 57.955-58.028 57.956-58.028-57.956z" opacity=".02"/>
            <path d="M112.93 812.698l58.029-57.956 58.028 57.956-58.029 57.955-58.027-57.955zM44.024 55.654L102.05-2.3l58.028 57.955-58.028 57.956-58.028-57.956zm-68.909 68.822l58.029-57.955 58.027 57.955-58.028 57.956-58.028-57.956zm-68.908 68.822l58.028-57.955 58.028 57.955-58.028 57.956-58.028-57.956zm-68.908 68.822l58.028-57.955 58.027 57.955-58.027 57.956-58.028-57.956zm-68.909 68.823l58.029-57.956 58.028 57.956-58.028 57.956-58.029-57.956zm-68.908 68.822l58.028-57.956 58.029 57.956-58.029 57.956-58.028-57.956zM-24.886-13.168l58.028-57.956L91.17-13.168 33.142 44.788l-58.028-57.956zm-68.908 68.822l58.028-57.956 58.028 57.956-58.028 57.956-58.028-57.956z" opacity=".324"/>
            <path d="M-507.244 193.299l58.028-57.956 58.028 57.956-58.028 57.955-58.028-57.955zm275.633-412.934l58.028-57.955 58.029 57.956-58.029 57.955-58.028-57.956zM181.612 55.428l58.029-57.956 58.028 57.956-58.028 57.956-58.029-57.956zm69.135 69.048l58.029-57.955 58.027 57.955-58.028 57.956-58.028-57.956z" opacity=".283"/>
            <path d="M112.93-13.168l58.029-57.956 58.028 57.956-58.029 57.956z" opacity=".739"/>
            <path d="M-162.702-288.457l58.028-57.955 58.027 57.955-58.028 57.956-58.027-57.956zm413.45 275.289l58.028-57.956 58.027 57.956-58.028 57.956-58.028-57.956zm68.908 68.822l58.028-57.956 58.028 57.956-58.028 57.956-58.028-57.956zm68.908 68.822l58.028-57.956 58.028 57.956-58.028 57.956-58.028-57.956zm68.908 68.823l58.028-57.956 58.028 57.956-58.028 57.955-58.028-57.955zm68.908 68.822l58.028-57.956 58.029 57.956-58.029 57.955-58.028-57.955zm68.909 68.822l58.028-57.956 58.028 57.956-58.028 57.955-58.028-57.955zM181.839-81.99l58.028-57.955 58.028 57.955-58.028 57.956L181.84-81.99zm-68.908-68.823l58.028-57.955 58.028 57.956-58.029 57.956-58.027-57.957zM664.197 262.12l58.028-57.955 58.028 57.956-58.028 57.955-58.028-57.955zm-413.45-412.933l58.029-57.955 58.027 57.956-58.028 57.956-58.028-57.957zm-68.908-68.822l58.029-57.955 58.028 57.956-58.028 57.955-58.029-57.956zM181.839-494.923l58.028-57.955 58.028 57.955-58.028 57.956-58.028-57.956zm-68.908-68.822l58.028-57.955 58.028 57.955-58.029 57.956-58.027-57.956zm413.45 275.288l58.028-57.955 58.028 57.955-58.028 57.956-58.029-57.956zm68.907 68.822l58.029-57.955 58.028 57.956-58.028 57.955-58.029-57.956zm68.909 68.822l58.028-57.955 58.028 57.956-58.028 57.956-58.028-57.957zm68.909 68.823l58.027-57.956 58.029 57.956-58.029 57.956-58.027-57.956zm68.908 68.822l58.028-57.956 58.028 57.956-58.028 57.956-58.028-57.956zm68.908 68.822L928.95-2.302l58.028 57.956-58.028 57.956-58.028-57.956zm-413.45-412.933l58.028-57.955 58.029 57.955-58.029 57.956-58.028-57.956zM388.564-426.1l58.028-57.955 58.029 57.955-58.029 57.956-58.028-57.956zm-68.908-68.822l58.028-57.955 58.028 57.955-58.028 57.956-58.028-57.956zm-68.908-68.822l58.028-57.955 58.027 57.955-58.028 57.956-58.027-57.956zm-68.91-68.822l58.029-57.956 58.028 57.956-58.028 57.956-58.028-57.956z" opacity=".02"/>
        </g>
    </g>
</svg>
